<svg id="Layer_1" xmlns="http://www.w3.org/2000/svg" viewBox="0 0 1187.8 385.2">
  <style>
    .st0{fill:#F1FAFE;} .st1{fill:#E62F25;} .st2{fill:#EDB0A4;} .st3{fill:#2CBCEE;} .st4{fill:#FFFFFF;} .st5{fill:#F15623;} .st6{fill:#5E2E21;} .st7{fill:#4167B1;} .st8{fill:#4167B1;stroke:#4167B1;stroke-width:2;stroke-miterlimit:10;} .st9{fill:#FFFFFF;stroke:#2CBCEE;stroke-width:3;stroke-miterlimit:10;} .st10{fill:none;} .st11{font-family:&apos;OctinSportsRg-Regular&apos;;} .st12{font-size:19.691px;} .st13{fill:#1D2554;} .st14{font-family:&apos;HelveticaLTStd-Light&apos;;} .st15{font-size:12.4365px;} .st16{fill:#8A5143;} .st17{fill:#CC2036;stroke:#CC2036;stroke-miterlimit:10;stroke-dasharray:1,1;} .st18{fill:#CC2036;stroke:#4167B1;stroke-miterlimit:10;}
  </style>
  <path class="st0" d="M0 301.8h525v73.7H0z"/>
  <path class="st0" d="M0 9.6h1187.8v61.3H0z"/>
  <path class="st0" d="M0 199h583.1v78.5H0z"/>
  <path class="st0" d="M544 129.6h643.8v59.8H544z"/>
  <path class="st0" d="M0 92.4h569v60H0z"/>
  <path class="st0" d="M585.7 237.3h602v88.6h-602z"/>
  <path class="st1" d="M528.6 10.7l4.1 18.4 11.7-14.8-4.4 18.3 17.1-8.3L545 38.8l19.2-.2-17.4 8 17.4 8-19.2-.2L557.1 69 540 60.7l4.4 18.3-11.7-14.9-4.1 18.4-4.1-18.4L512.7 79l4.5-18.3L500 69l12.1-14.6-19.1.2 17.3-8-17.3-8 19.1.2L500 24.3l17.2 8.3-4.5-18.3 11.8 14.8z"/>
  <path class="st1" d="M626.5 13.3l3.9 18 11.3-14.5-4.3 17.8 16.4-8.1-11.5 14.2 18.3-.2-16.6 7.8 16.6 7.8-18.3-.2 11.5 14.2-16.4-8.1 4.3 17.8-11.3-14.4-3.9 17.9-3.9-17.9-11.3 14.4 4.3-17.8-16.5 8.1 11.6-14.2-18.3.2 16.6-7.8-16.6-7.8 18.3.2-11.6-14.2 16.5 8.1-4.3-17.8 11.3 14.5z"/>
  <path class="st1" d="M599.6 194.7l4 18.4 11.6-14.9-4.4 18.4 17-8.4-12 14.6 18.9-.2-17.1 8 17.1 8-18.9-.2 12 14.6-17-8.3 4.4 18.3-11.6-14.8-4 18.4-4-18.4L584 263l4.4-18.3-16.9 8.3 11.9-14.6-18.8.2 17-8-17-8 18.8.2-11.9-14.6 16.9 8.4-4.4-18.4 11.6 14.9z"/>
  <path class="st1" d="M709 165l4.5 21 13.3-17-5 20.9 19.2-9.5-13.6 16.6 21.5-.2-19.4 9.1 19.4 9.1-21.5-.2 13.6 16.6-19.2-9.5 5 20.9-13.3-16.9-4.5 21-4.6-21-13.2 16.9 5-20.9-19.2 9.5 13.6-16.6-21.5.2 19.4-9.1-19.4-9.1 21.5.2-13.6-16.6 19.2 9.5-5-20.9 13.2 17z"/>
  <path class="st1" d="M515.2 272.4l3.7 15.5 9.5-12.8-3.3 15.5 14.1-7.3-9.8 12.5 15.9-.5-14.3 7.1 14.6 6.4-15.9.2 10.3 12.1-14.4-6.7 4.1 15.3-10.1-12.3-3 15.7-3.7-15.5-9.5 12.8 3.3-15.6-14.1 7.4 9.8-12.6-15.9.6 14.2-7.1-14.5-6.4 15.9-.2-10.4-12.1 14.4 6.7-4-15.4 10.1 12.3z"/>
  <path class="st1" d="M451.4 179.6l4.2 19.7 12.4-15.9-4.7 19.6 18-8.9-12.7 15.5 20.1-.2-18.2 8.5 18.2 8.5-20.1-.2 12.7 15.6-18-8.9 4.7 19.5-12.4-15.8-4.2 19.6-4.3-19.6-12.3 15.8 4.6-19.5-17.9 8.9 12.6-15.6-20 .2 18.1-8.5-18.1-8.5 20 .2-12.6-15.5 17.9 8.9-4.6-19.6 12.3 15.9z"/>
  <path class="st1" d="M486.2 205l3 14 8.8-11.3-3.3 13.9 12.8-6.3-9 11.1 14.3-.2-13 6.1 13 6.1-14.3-.2 9 11.2-12.8-6.4 3.3 13.9-8.8-11.3-3 14-3.1-14-8.8 11.3 3.3-13.9-12.8 6.4 9-11.2-14.3.2 13-6.1-13-6.1 14.3.2-9-11.1 12.8 6.3-3.3-13.9 8.8 11.3z"/>
  <path class="st1" d="M484 116l4.3 19.7 12.5-15.9-4.8 19.6 18.2-8.9-12.8 15.6 20.2-.2-18.3 8.6 18.3 8.6-20.2-.2 12.8 15.6-18.2-8.9 4.8 19.6-12.5-15.9L484 193l-4.3-19.7-12.4 15.9 4.7-19.6-18.1 8.9 12.8-15.6-20.2.2 18.3-8.6-18.3-8.6 20.2.2-12.8-15.6 18.1 8.9-4.7-19.6 12.4 15.9z"/>
  <path class="st1" d="M719.4 227.4c-1 1-2.1 1.9-3.3 2.8h-.2c-2.5 1.5-5.1 2.6-7.8 3.4.2-1.1.4-2.2.5-3.4h-.1c0-1.4-.2-2.8-.7-4.2h2.4c.4-1.4.8-2.7 1-4h-1.9c5.8-1.6 10.1-6.9 10.1-13.2 0-7.2-5.6-13.1-12.7-13.6-2.7-6.2-8.6-9.2-15.8-9.6 9.4-4 20.6-2.1 28.3 5.5 10.2 9.9 10.2 26.2.2 36.3z"/>
  <path class="st1" d="M508.4 140.7c-2.1 2.3-4.2 4.7-6.5 7.4-2.2-.6-4.5-1-6.8-1.3-1.4-.2-4.2-.8-6.8-1-1.7-.2-3.4-.5-5.1-.7-.1 1-.3 2.1-.5 3.1-.9 2.8-1.2 7.8-1.3 9.2-1.2 9.9-.6 20 2.9 28.9-1.9-1.1-3.7-2.5-5.3-4.1-8-8-9.6-20-4.9-29.6 0-.1.1-.2.1-.3 1.2-2.4 2.8-4.5 4.7-6.5 7.4-7.4 18.1-9.3 27.2-5.9.9.1 1.6.4 2.3.8z"/>
  <path class="st2" d="M625.2 70.8c0-2.2.1-4.4 0-6.4 0-2.6-.1-5.1-.3-7.4 0-.4-.1-.9-.1-1.3-1.9-22.6-11-27.1-34.5-29-.4 0-.8-.1-1.2-.1-.2 0-.5 0-.7-.1-13.9-1-29.6 2.5-42.7 9-.3.2-.6.3-.9.5-11.5 5.9-21 14.2-25.2 24-.1.3-.3.7-.4 1-.8 2.1-1.4 4.2-1.8 6.3-.3 1.7 0 3.4-.1 5-1.3 0-2.6.2-3.7.4-11.1 2.4-13.9 14.1 4.2 16.3.7 8.6 2.5 13.5 5.9 16.8l.8.8c5 4.1 13.1 5.5 26.2 9.2v6.6l-4.1 1.3-4.4 1.5s5 9.2 17.6 12.2c.3.1.7.2 1 .2 9 1.8 21.6.5 38.7-8.9l-10.9-5.7-3.6-1.9V117c18.5-6.7 30.2-24.1 30.6-31.7 20.6 2.1 9.6-14.5 9.6-14.5zM605 44.9l3.5-5.9s8.2 8.8 7.2 22.2c-2.1.7-4.4 1-6.8 1-12.4 0-22.5-10.2-22.5-22.8v-.5c5.4 3 12.2 5.8 18.6 6zm-75.3 5.9s7.6 1.4 0 10.4c0 0 5 1.3 13.1-4.7-3.3 3.9-8.2 6.4-13.7 6.4-1.8 0-3.5-.3-5.1-.7 1-3.5 2.8-7.3 5.7-11.4z"/>
  <path class="st2" d="M517.4 170.4s-7 8-15.2 18.1c-5.2 6.4-10.9 13.5-15.6 20-.2.3-.4.6-.7.9-5.3 7.3-9.1 13.6-9.3 16.6-.7 9.8-.7 16.5-7.6 16.5-6.9 0 3.5-11.1 0-16.5 0 0-4 9-9.3 12-8.1 4.7-6.6-3.9 3.1-12 5.8-4.9 0-5.6-7.6 0-4.4 3.3-13.8-2.2 6.2-10.5 0 0-13.1 0-11.1-6.2 10.4 1.4 12.4-4.8 22.1 0l5.4-8.2.6-.9 16-24.5 11.9-18.1 11.1 12.8z"/>
  <path class="st2" d="M586.8 360.8l8.5-63.6-19.9-.4-.2 61.7z"/>
  <path class="st2" d="M540.9 302.5l-1.4 6.9-10.4 53.7h-11.7l2.5-41.4v-1.1l1.3-20.7v-.9l14.7 2.6 1 .2z"/>
  <path class="st2" d="M615.6 162.7l11.1-12.8 33.9 51.7c9.7-4.8 11.7 1.4 22.1 0 2.1 6.2-11.1 6.2-11.1 6.2 20 8.3 10.6 13.8 6.2 10.5-7.6-5.6-13.4-4.9-7.6 0 9.7 8.2 11.2 16.8 3.1 12-5.3-3.1-9.3-12-9.3-12-3.5 5.4 6.9 16.5 0 16.5s-6.9-6.7-7.6-16.5c-.7-9.8-40.8-55.6-40.8-55.6z"/>
  <path class="st3" d="M607.7 298.8s-3.9 2.8-13.2 4.3c-4.9.7-11.2 1.1-19.2.4-2.8-.2-5.8-.6-9-1.1l-3.1-41.5s-6.4 1-12.8 44.6c0 0-1.2 5.8-11 3.9-1-.2-2.1-.5-3.3-.8-.3-.1-.7-.2-1-.3-3.7-1.3-8.3-3.4-14.1-6.8V300c0-1.4 0-3.6.1-6.6.1-2 .1-4.3.3-6.9 0-.3 0-.7.1-1 .8-14.2 3.3-35.4 10.6-53.7 1.4-3.6 3-7.1 4.9-10.4l32.6 1.8 1.1.1 5.2.3 1.1.1 22.6 1.3v4.2c.1 4.3.2 11.4.8 19.9v.1c0 .3 0 .7.1 1 .9 15.1 3 34.3 7.2 48.6z"/>
  <path class="st4" d="M641.1 154.1v.3c-.1.8-.2 1.7-.4 2.6-.4 2-1.3 4.3-2.8 6.6-.3.5-.7 1-1.1 1.5-2.5 3-6.3 5.9-12.2 7.9-3.2 1.1-7.1 1.9-11.7 2.3l-13.8-12.5 4.1 7.6v57.4s-1.2.4-3.4 1.1c-4.4 1.4-12.6 3.7-22.4 5.4-.3.1-.7.1-1 .2-2.1.3-4.2.6-6.4.9-.3 0-.7.1-1 .1-12.2 1.3-25.6.9-36.7-3.8-2.5-1.1-4.9-2.3-7.1-3.9 0 0 2.8-40.8 7.6-60.1-8.3 4.8-18 28.3-26.9 23.5-1.4-.8-2.5-1.7-3.5-2.7-3.2-3.4-4.3-8.1-7.7-12.8-1.9-2.7-4.6-5.5-8.9-8 .5-.6 1-1.3 1.5-1.9.1-.1.2-.2.2-.3 8.9-11 16.3-19.7 22.6-26.5.3-.3.5-.6.8-.9 22.3-24.3 28.9-24 36.4-23 .4 1.9 1.7 4.6 3.6 7.4 2.4 3.6 5.9 7.3 10.2 9.5.3.2.7.3 1 .5 7.1 3.3 16.2 2.5 26.2-8.7.2-.2.4-.5.6-.7.5-.6 1-1.2 1.5-1.9.8-1 1.6-2.2 2.5-3.3 0 0 9.7-2.1 20.7 4.1l27.6 29.7v.1c-.1.4 0 1.2-.1 2.3z"/>
  <path class="st5" d="M610.7 125.5l27.6 29.7s.7 5.6-2.9 11.4c6.8-6.8 5.7-14.8 5.7-14.8L613.4 122c-11.1-6.2-20.7-4.1-20.7-4.1-.8 1.2-1.7 2.3-2.5 3.4 1.5-.3 10.4-1.5 20.5 4.2z"/>
  <path class="st5" d="M603.1 172.5v55.2s-1 .4-2.8.9v-54.8l-4.1-7.6 6.9 6.3z"/>
  <path class="st5" d="M588.4 123.4c-.1.2-.2.3-.3.5-10.1 13.2-19.4 15.4-26.9 12.9-.3-.1-.7-.2-1-.4-6.1-2.4-10.9-7.8-13.6-12.5-1.2-2.1-2-4-2.3-5.4-7.2-1-13.5-1.3-33.5 19.9-.3.3-.5.6-.8.8-.2.2-.4.4-.6.7-.2.3-.5.5-.7.8-2.1 2.2-4.3 4.7-6.6 7.3-4.4 5-9.2 10.7-14.7 17.4-.1.1-.1.2-.2.3l-1.5 1.8c6.1-7.5 11.4-14 16.2-19.5 2.3-2.7 4.5-5.2 6.5-7.4.2-.3.5-.5.7-.8.3-.3.5-.6.8-.8.3-.3.5-.6.8-.9 22.3-24.3 28.9-24.1 36.4-23 .4 1.9 1.7 4.7 3.6 7.5 2.4 3.6 5.9 7.2 10.2 9.5.3.2.7.3 1 .5 7.2 3.3 16.4 2.5 26.5-9.2z"/>
  <path class="st5" d="M517.4 185.4c2.6-3 5.1-6.7 7.6-10-2.5 2.9-5 6.6-7.6 10z"/>
  <path class="st6" d="M504.7 62c0 .6 0 1.2.1 1.9.1 0-.1-.8-.1-1.9z"/>
  <path class="st6" d="M585.6 44.9c-.1 0-1 0-2.2-.4.7.1 1.4.3 2.2.4z"/>
  <path class="st6" d="M638.3 59.1l-11-4.7-1-.4-1.1-.4c.1.5.2.9.3 1.4.1.4.1.9.2 1.3.4 3 .1 5.8-.5 8.2-3.4 12.4-17.6 17.4-18.1 17.6 5.5-7.2 7.9-13.8 8.5-19.7 0-.4.1-.7.1-1.1 1-13.4-7.2-22.2-7.2-22.2L605 45c-6.4-.2-13.3-3-18.6-5.9-.3-.2-.7-.4-1-.6-5.1-2.9-8.5-5.6-8.5-5.6.4 8.1 4.1 10.7 6.5 11.6-12.6-3-21.1-11.6-21.1-11.6-6.2 10.4-11.8 17.1-16.6 21.3-1 .9-1.9 1.6-2.9 2.3-8.1 6-13.1 4.7-13.1 4.7 7.6-9 0-10.4 0-10.4-2.9 4.1-4.7 7.9-5.7 11.3-.1.3-.2.7-.3 1-3.6 14.1 6 22.2 6 22.2-10.4-.8-14.9-6-16.1-12.5-.9-4.8-.1-10.4 1.5-15.2l.4-1.2.3-.9c-.4 0-.7-.1-1.1-.1h-1.3c-7.1 0-8.5 4-8.6 6.5 0-5.3 2.5-9.5 5.9-12.8.3-.3.6-.5.9-.8 7.6-6.7 18.9-9.3 18.9-9.3-7.6-6.9-12.1-.7-12.1-.7 1.7-4.6 4.3-8.2 7.3-11.1.5-.4.9-.9 1.4-1.3 12-10.2 29.6-9.8 29.6-9.8l-9-4.8c11.7-1.4 18.7 6.2 18.7 6.2-1.4-14.4 19.2-13 19.2-13-13.5 2.5-12.3 11.7-12.3 11.7 50.4-8.3 60.1 9.3 60.1 9.3-2.2-.3-4.1-.4-5.5-.4-.4 0-.9 0-1.3.1-5.8.5-5 3.4-5 3.4 4.2 3 7.4 5.9 9.8 8.8.4.5.7.9 1.1 1.4l.1.1c.3.4.5.7.8 1 7.5 10.7 4.9 19.2 4.9 19.2z"/>
  <path class="st7" d="M529.1 379.7c-14.7 6.2-49.4 0-49.4 0-6.2-25.9 19.2-26.4 26.9-22.3s22.5 0 22.5 0v22.3z"/>
  <path class="st3" d="M509.2 358.5l-11.4 23.9h7.5l11.4-23.9z"/>
  <path class="st7" d="M574.4 378.7c14.7 6.2 49.4 0 49.4 0 6.2-25.9-19.2-26.4-26.9-22.3s-22.5 0-22.5 0v22.3z"/>
  <path class="st3" d="M594.3 357.4l11.4 24h-7.4l-11.5-24z"/>
  <ellipse cx="552.7" cy="79.6" rx="2.1" ry="5.7"/>
  <ellipse cx="585.3" cy="79.6" rx="2.1" ry="5.7"/>
  <path class="st1" d="M631.4 37.5c-2.4-2.9-5.6-5.8-9.8-8.8 0 0-.8-2.9 5-3.4 2.7 3.4 4.4 7.6 4.8 12.2z"/>
  <path class="st1" d="M615.7 61.2c-2.1.7-4.4 1-6.8 1-12.4 0-22.5-10.2-22.5-22.8v-.5c5.3 2.9 12.2 5.8 18.6 5.9l3.5-5.9c0 .2 8.2 8.9 7.2 22.3z"/>
  <path class="st8" d="M670.9 39h-38.3v-.1c-.1-5.1-1.9-9.8-4.7-13.6-4.3-5.8-11.2-9.6-18.9-9.6-8.3 0-15.7 4.4-19.9 11-2.2 3.4-3.5 7.4-3.7 11.7v1.1c0 13.1 10.6 23.8 23.6 23.8 2.3 0 4.6-.3 6.7-1 3.5-1 6.6-2.9 9.3-5.3.3-.2.6-.5.8-.8.6-.6 1.1-1.2 1.6-1.8 3.2-4 5.1-9 5.2-14.4h72.9v-1h-34.6zm-44.6 15c-.3.3-.5.6-.8.9-.2.3-.5.5-.8.8-2.5 2.5-5.6 4.4-9.1 5.5-2.1.7-4.4 1-6.8 1-12.4 0-22.5-10.2-22.5-22.8v-.5c.1-4.5 1.5-8.7 3.8-12.2 4.1-6.1 10.9-10.1 18.7-10.1 7.1 0 13.5 3.4 17.6 8.6 2.7 3.4 4.5 7.6 4.8 12.2.1.7.1 1.3.1 2 .2 5.6-1.7 10.7-5 14.6z"/>
  <path class="st1" d="M521.2 293.3c-.1 3-.1 5.2-.1 6.6l-1.2 20.7h-1.2c-9.5 0-17.2-7.7-17.2-17.2s7.7-17.2 17.2-17.2c.9 0 1.9.1 2.7.2 0 2.6-.1 4.9-.2 6.9z"/>
  <path class="st8" d="M439.3 304h61.2c.3 9.8 8.4 17.7 18.2 17.7h1.1c7.8-.5 14.3-5.8 16.4-13.1.5-1.6.7-3.4.7-5.2 0-.6 0-1.1-.1-1.7-.8-8.4-7.2-15.1-15.4-16.4-.9-.1-1.9-.2-2.8-.2-9.9 0-18 7.9-18.2 17.7h-61.2v1.2zm80.6 16.6h-1.2c-9.5 0-17.2-7.7-17.2-17.2s7.7-17.2 17.2-17.2c.9 0 1.9.1 2.7.2 7.6 1.2 13.5 7.4 14.4 15.1.1.6.1 1.2.1 1.9 0 1.7-.2 3.3-.7 4.8-1.9 6.8-8 11.9-15.3 12.4z"/>
  <path class="st1" d="M489.5 222.4c0 13.9-11.3 25.3-25.3 25.3-13.9 0-25.3-11.3-25.3-25.3 0-13.9 11.3-25.3 25.3-25.3 5 0 9.7 1.5 13.6 4l-5.4 8.2c-9.7-4.8-11.7 1.4-22.1 0-2.1 6.2 11.1 6.2 11.1 6.2-20 8.3-10.6 13.8-6.2 10.5 7.6-5.6 13.4-4.9 7.6 0-9.7 8.2-11.2 16.8-3.1 12 5.3-3.1 9.3-12 9.3-12 3.5 5.4-6.9 16.5 0 16.5s6.9-6.7 7.6-16.5c.2-3 4.1-9.3 9.3-16.6 2.3 3.8 3.6 8.2 3.6 13z"/>
  <path class="st8" d="M486.6 208.5c-2.1-3.3-4.9-6.2-8.2-8.3-4.1-2.6-8.9-4.2-14.2-4.2-14.3 0-26 11.5-26.3 25.8h-128v1H438c.3 14.3 12 25.8 26.3 25.8 14.5 0 26.3-11.8 26.3-26.3 0-5-1.5-9.8-4-13.8zm-22.3 39.1c-13.9 0-25.3-11.3-25.3-25.3 0-13.9 11.3-25.3 25.3-25.3 5 0 9.7 1.5 13.6 4 3.3 2.1 6.1 5 8.1 8.3 2.3 3.8 3.6 8.2 3.6 13-.1 14-11.4 25.3-25.3 25.3z"/>
  <path class="st1" d="M612 243.1c-3.3 3.3-7.4 5.2-11.6 5.9v-.1c-.5-8.5-.7-15.7-.8-19.9 2.2-.7 3.4-1.1 3.4-1.1v-19.5c3.3.9 6.4 2.7 9 5.3 2.6 2.6 4.4 5.7 5.3 9 .3 1.1.5 2.2.7 3.3.7 6-1.2 12.4-6 17.1z"/>
  <path class="st8" d="M648.4 278.8l-35.3-35.3c4.9-5.1 6.8-12 5.8-18.6-.2-1.1-.4-2.1-.7-3.2-1-3.3-2.8-6.3-5.4-8.9-2.8-2.8-6.2-4.7-9.7-5.6-.9-.2-1.8-.4-2.8-.6-4.1-.6-8.4 0-12.2 1.8-2.3 1.1-4.4 2.5-6.3 4.4-1.2 1.2-2.2 2.4-3 3.8-1.3 2.1-2.3 4.4-2.8 6.8-.8 3.6-.7 7.5.3 11 1 3.4 2.8 6.7 5.5 9.4 2.6 2.6 5.8 4.5 9.1 5.5 3.1 1 6.4 1.2 9.6.7 4.3-.6 8.5-2.6 11.9-5.8l35.9 35.9h100.1v-1.5l-100 .2zM612 243.1c-3.3 3.3-7.4 5.2-11.6 5.9-2.9.4-5.9.3-8.8-.5-3.3-.9-6.5-2.7-9.1-5.3-2.5-2.5-4.3-5.6-5.3-8.8-1-3.5-1.1-7.3-.3-10.8.5-2.2 1.4-4.3 2.6-6.2.8-1.3 1.8-2.6 2.9-3.7 1.9-1.9 4-3.3 6.3-4.3 3.6-1.6 7.6-2.1 11.5-1.6.9.1 1.9.3 2.8.6 3.3.9 6.4 2.7 9 5.3 2.6 2.6 4.4 5.7 5.3 9 .3 1.1.5 2.2.7 3.3.7 6-1.2 12.4-6 17.1z"/>
  <path class="st9" d="M575.6 170.4h-5v-5.3h-14.7V176h15.7l4.6 4.5v14.2l-6 6h-13.7l-6-6V187h5v5.6l3.1 3.1h9.5l3.1-3.1v-9.8l-2.1-2.1h-18.2v-20.5h24.7v10.2z"/>
  <path class="st8" d="M546.7 35.6c-3.3-5.8-9.5-9.7-16.6-9.7-.7 0-1.4 0-2.1.1-9.3 1-16.7 8.8-16.9 18.4h-73.6v1h73.6c0 1.3.2 2.5.5 3.7.5 2.3 1.5 4.4 2.7 6.3.5.8 1.1 1.5 1.7 2.2 1.2 1.3 2.6 2.5 4.1 3.4 1.4.9 3 1.6 4.6 2.1 1.7.5 3.5.8 5.4.8 7.1 0 13.3-3.9 16.6-9.8 1.5-2.7 2.4-5.9 2.4-9.2 0-3.4-.8-6.5-2.4-9.3zm-2.8 20.8c-3.3 3.9-8.2 6.4-13.7 6.4-1.8 0-3.5-.3-5.1-.7-1.6-.5-3.1-1.2-4.5-2-1.5-1-2.9-2.2-4.1-3.6-.3-.3-.5-.6-.8-1-1.5-2.1-2.6-4.5-3.2-7.2-.2-1.1-.3-2.2-.3-3.4 0-8.7 6.2-16 14.5-17.6 1.1-.2 2.3-.3 3.5-.3 6.7 0 12.5 3.7 15.6 9.1 1.5 2.6 2.3 5.6 2.3 8.8 0 4.4-1.6 8.4-4.2 11.5z"/>
  <path class="st10" d="M238.3 3.1h194.8v63H238.3z"/>
  <text transform="translate(238.25 16.89)">
    <tspan x="0" y="0" class="st7 st11 st12">Growth &amp; Maturity</tspan><tspan x="0" y="14.9" class="st13 st14 st15">As youth mature from puberty into </tspan><tspan x="0" y="29.8" class="st13 st14 st15">adolescence the severity of sports </tspan><tspan x="0" y="44.8" class="st13 st14 st15">related injuries increase.</tspan>
  </text>
  <path class="st10" d="M258.8 85.7h161.1v67.5H258.8z"/>
  <text transform="translate(258.754 99.495)">
    <tspan x="0" y="0" class="st7 st11 st12">Football</tspan><tspan x="0" y="14.9" class="st13 st14 st15">Over 500,000 injuries occur </tspan><tspan x="0" y="29.8" class="st13 st14 st15">annually to American youth </tspan><tspan x="0" y="44.8" class="st13 st14 st15">from playing Football.</tspan>
  </text>
  <path class="st10" d="M238.3 192.6h148.2v87.5H238.3z"/>
  <text transform="translate(238.25 206.357)">
    <tspan x="0" y="0" class="st7 st11 st12">Finger, Hand &amp; </tspan><tspan x="0" y="21.8" class="st7 st11 st12">Wrist</tspan><tspan x="0" y="36.7" class="st13 st14 st15">The most commonly </tspan><tspan x="0" y="51.6" class="st13 st14 st15">injured areas are the </tspan><tspan x="0" y="66.5" class="st13 st14 st15">fingers, hands and wrists.</tspan>
  </text>
  <path class="st10" d="M281.7 295.5h189.8v89.7H281.7z"/>
  <text transform="translate(281.66 309.328)">
    <tspan x="0" y="0" class="st7 st11 st12">Knee Injuries</tspan><tspan x="0" y="14.9" class="st13 st14 st15">Knee problems are also one of </tspan><tspan x="0" y="29.8" class="st13 st14 st15">the most common injuriesin the </tspan><tspan x="0" y="44.8" class="st13 st14 st15">young athlete including anterior </tspan><tspan x="0" y="59.7" class="st13 st14 st15">cruciate ligament damage</tspan>
  </text>
  <path class="st10" d="M754.5 230.6h171v99h-171z"/>
  <text transform="translate(754.508 244.407)">
    <tspan x="0" y="0" class="st7 st11 st12">Hip Examination</tspan><tspan x="0" y="14.9" class="st13 st14 st15">In the child, hip pathology can </tspan><tspan x="0" y="29.8" class="st13 st14 st15">present as knee pain so a </tspan><tspan x="0" y="44.8" class="st13 st14 st15">careful exam is important in </tspan><tspan x="0" y="59.7" class="st13 st14 st15">the child presenting with an </tspan><tspan x="0" y="74.6" class="st13 st14 st15">insidious onset of knee pain.</tspan>
  </text>
  <path class="st10" d="M774.5 122.8h143.4v73.4H774.5z"/>
  <text transform="translate(774.53 136.548)">
    <tspan x="0" y="0" class="st7 st11 st12">Baseball </tspan><tspan x="0" y="14.9" class="st13 st14 st15">Most injuries occur as a </tspan><tspan x="0" y="29.8" class="st13 st14 st15">result of being struck by </tspan><tspan x="0" y="44.8" class="st13 st14 st15">projectile objects.</tspan>
  </text>
  <path class="st16" d="M708.6 230.1v1c-.1 1-.2 1.9-.4 2.8l-.3 1.2c-2.6 8.5-11.2 14.3-11.2 14.3-23.5 15.9-48.9 2.5-50-15.7-.1-.9-.1-1.7-.1-2.5 0-.4 0-.7-.1-1-.6-12.6 0-17.9 4.1-23.3.9-1.2 2-2.3 3.2-3.6 1.4-1.7 2.9-3.4 4.5-4.9 8.6-8 20.4-12.7 30.3-12.9h2.4c7.2.4 13.1 3.4 15.8 9.6.1.2.2.4.2.5.1.2.1.3.2.5.4 1.2.7 2.5.9 3.9.1 1 .2 2.1.2 3.2 0 .8-.1 1.5-.2 2.1-.5 2.1-1.9 3.4-3.6 4.2-.1 0-.1 0-.2.1-.3.1-.7.2-1 .3-.7.2-1.3.3-2 .4-3 .3-6.2-.2-8-.6-.2 0-.4-.1-.5-.1-.2-.1-.4-.1-.5-.1-.3-.1-.4-.1-.4-.1.1.1.3.2.4.3.2.1.4.2.5.3.2.1.3.2.5.3h.1c1.1.7 2.2 1.4 3.2 2.1 1.2.9 2.4 1.7 3.4 2.6.5.4 1 .9 1.5 1.3 1.2 1.2 2.3 2.3 3.2 3.5 0 .1.1.1.1.2l.9 1.2c.1.1.1.2.2.3.1.2.2.4.3.5.1.2.2.3.3.5.7 1.2 1.2 2.4 1.5 3.5.3 1.3.6 2.8.6 4.1z"/>
  <path class="st10" d="M710.3 3h194.8v91.2H710.3z"/>
  <text transform="translate(710.335 16.737)">
    <tspan x="0" y="0" class="st7 st11 st12">Neurological </tspan><tspan x="0" y="21.8" class="st7 st11 st12">Damage</tspan><tspan x="0" y="36.7" class="st13 st14 st15">Sports contribute to approxamate</tspan><tspan x="186.6" y="36.7" class="st13 st14 st15">-</tspan><tspan x="0" y="51.6" class="st13 st14 st15">ly 21% of all traumatic brain inju</tspan><tspan x="176.9" y="51.6" class="st13 st14 st15">-</tspan><tspan x="0" y="66.5" class="st13 st14 st15">ries among American Youth.</tspan>
  </text>
  <path class="st6" d="M704.6 221.9v-7h7.5c0-.9 0-1.8-.1-2.6h-7.4v-7h6c-.6-1.8-1.2-3.1-1.6-4-.4-.8-.7-1.2-.7-1.2-4.4.3-8.3.5-11.6.7h-1.9c-14.1.8-17.3.9-17.3.9.3 1.8.7 3.5 1.1 5.2.4 1.9.9 3.6 1.5 5.3.7 2.1 1.4 4 2.1 5.8v-3.1h8v7h-6.3c.7 1.4 1.4 2.8 2.1 4h4.2v6.4c.1.1.1.2.2.3.5.6.9 1.1 1.4 1.7 5.1 6 9.4 8.3 9.4 8.3 1.9-2.4 3.5-4.7 4.8-7 .2-.4.5-.8.7-1.2.3-.5.5-1 .8-1.4h-2.8v-7h5.7c.4-1.4.8-2.7 1-4h-6.8zm-14.5-9.6h-8v-7h8v7zm11.3-7v7h-8v-7h8zm-8 9.6h8v7h-8v-7zm8 18h-8v-7h8v7z"/>
  <path class="st8" d="M753.7 157.1l15-15-.7-.7-37.8 37.8.1.1-10.5 10.5c-8.5-8.2-21-9.6-31-4.4-2.3 1.2-4.5 2.8-6.5 4.8-3.2 3.2-5.5 7.1-6.7 11.2-.6 2-1 4.2-1.1 6.3v1.4c0 2.6.4 5.2 1.1 7.7 1.2 4.1 3.5 8.1 6.7 11.3.7.7 1.5 1.4 2.3 2 .5.4.9.7 1.4 1 1.8 1.3 3.8 2.3 5.8 3 4.6 1.7 9.5 2.2 14.2 1.3.6-.1 1.3-.2 1.9-.4 3-.8 5.9-2.1 8.6-3.9.5-.3 1-.7 1.4-1 .8-.6 1.5-1.3 2.3-2 10.3-10.3 10.4-27 .4-37.5l33.4-33.4-.3-.1zm-34.3 70.3c-1 1-2.1 1.9-3.3 2.8-.5.4-1 .7-1.6 1-2 1.2-4.1 2.2-6.4 2.8-.5.1-1 .3-1.5.4-5.4 1.2-11.2.6-16.3-1.8-.9-.4-1.7-.9-2.6-1.4-.5-.3-1.1-.7-1.6-1-1.1-.8-2.2-1.7-3.3-2.8-2.8-2.8-4.9-6.2-6.1-9.7-.9-2.6-1.4-5.3-1.4-8.1 0-.7 0-1.4.1-2 .1-2 .5-4 1.1-5.9 1.2-3.9 3.3-7.6 6.4-10.6 2.4-2.4 5.2-4.2 8.1-5.5 9.4-4 20.6-2.1 28.3 5.5 10.1 9.9 10.1 26.2.1 36.3z"/>
  <circle class="st4" cx="705.9" cy="208.7" r="13.1"/>
  <path class="st7" d="M706.9 195.1h-1c-4.6 0-8.7 2.3-11.2 5.8-1.6 2.2-2.5 4.9-2.5 7.9v.8c.1 1.9.6 3.7 1.5 5.3 1.6 3.1 4.3 5.5 7.6 6.7 1.4.5 2.9.8 4.5.8h.4c1.1 0 2.1-.2 3.1-.5 5.8-1.6 10.1-6.9 10.1-13.2.2-7.2-5.4-13.1-12.5-13.6zm-1 26.2h-.4c-.3 0-.6 0-.9-.1h-.1c-1.1-.1-2.1-.4-3.1-.8-2.8-1.1-5-3.1-6.5-5.6-.5-.8-.8-1.7-1.1-2.6-.2-.7-.3-1.4-.4-2.1 0-.2 0-.4-.1-.6v-1.7c.1-.9.2-1.8.4-2.6.4-1.4 1.1-2.8 1.9-4 .1-.2.3-.4.4-.6.1-.1.1-.2.2-.3 2.3-2.7 5.8-4.4 9.6-4.4.5 0 .9 0 1.4.1.7.1 1.3.2 1.9.4.3.1.7.2 1 .3 4.8 1.8 8.3 6.4 8.3 11.9 0 2-.5 4-1.3 5.7-.1.3-.3.6-.5.9-2.2 3.7-6.1 6.1-10.7 6.1z"/>
  <path class="st17" d="M705.5 221.3l-.9-.1c1.9-8.7-.7-14.4-8.9-19.9l.6-.8c8.6 5.8 11.2 11.6 9.2 20.8z"/>
  <path class="st17" d="M716.7 215.3c-6.9-5.4-9.1-10.6-7.4-18.7l1 .3c-1.6 7.9.3 12.4 6.9 17.5l-.5.9z"/>
  <path d="M531.7 215.3c4.7.3 4.1-.7 5.2-4.9-.8 5-.1 5.6-5.2 4.9 1 0 1.4.2 0 0z"/>
  <path class="st18" d="M532.1 169.9c-.2-.5-.5-.9-.7-1.3-2-3.5-4.5-6.7-7.7-9.6-.4-.4-.8-.7-1.3-1.1-.9-.8-1.9-1.5-3-2.3-5.2-3.6-11.1-5.9-17.3-7.5h-.2c-2.2-.6-4.5-1-6.8-1.3-1.4-.2-4.2-.8-6.8-1-2-.1-3.8 0-4.7.7-.3.3-.6.9-.9 1.6-.9 2.8-1.2 7.8-1.3 9.2-1.2 9.9-.6 20 2.9 28.9.2.5.4 1 .7 1.5 2.8 6.2 7.1 11.8 13.3 16.1 7.8 5.5 17.3 8.7 26.7 10.4.3.1.7.1 1.1.2 2.8.6 8.3 2 9.6 1 1.6-1.4 1.9-9.8 2.2-11.5v-.2c.6-11.9-.6-23.8-5.8-33.8z"/>
  <path class="st13" d="M491.9 146.3h-.1c-7.5-.4-7.6-1.3-9.6 5.8l.6-3.9c.2-1 .3-2.1.5-3.1 1.7.2 3.4.5 5.1.7.9.1 1.8.3 2.7.4h.2c.1 0 .2 0 .4.1h.2z"/>
  <path class="st4" d="M503.5 173.6c-.7.6-1.3 1.1-2 1.7-2.3-1.7-2-2.8.7-3.5-1.9-2.5-1.6-3.7-4.3-1.3-2.3-1.7-2.1-2.9.6-3.6-.8-1-1.6-2-2.3-3 4.8-3.5 1.7 3.5 6.2-.1 2.2 1.6 2 2.7-.5 3.4 1.8 2.4 1.5 3.7 4.2 1.5 2.2 1.6 2.1 2.7-.4 3.5.4.5.7 1 1.1 1.5.5 1.6 1.2 1.9 2 .7.7-1.1 1.3-1 1.7.3 1.3 1.1.9 1.9-1.2 2.4 1.8 2.3 1.5 3.6 4.1 1.5 2.2 1.6 2.1 2.7-.5 3.4 1.8 2.4 1.5 3.7 4.2 1.5 2.2 1.6 2.1 2.7-.4 3.5.4.5.8 1 1.1 1.5.5 1.7 1.2 1.9 2 .7.7-1.1 1.3-1 1.7.3 1.4 1.1.9 1.9-1.3 2.4l2.4 3c-4.9 3.4-1.5-3.9-6.3.3-2.3-1.7-2.1-2.9.6-3.6-1.9-2.5-1.5-3.7-4.3-1.3-2.3-1.6-2.1-2.8.6-3.5-1.9-2.5-1.6-3.8-4.3-1.4-2.3-1.7-2.1-2.9.5-3.6-.8-1-1.5-2-2.3-3-1.4 2.4-2.6 2.2-3.5-.5 3.1-2.2 1.8-2.2-.1-4.7-.7.6.8 1.1 0 0z"/>
  <path class="st4" d="M549.1 234.8c-6-.6-11.8-1.8-17.1-4-2.5-1.1-4.9-2.3-7.1-3.9 0 0 2.8-40.8 7.6-60.1l12.2 2.8 4.4 64.6"/>
  <path class="st8" d="M523.6 159c-1-5.2-3.4-10.1-7.4-14-2.1-2.1-4.4-3.7-6.8-4.9-.1-.1-.2-.1-.2-.1-.9-.5-1.9-.9-2.9-1.2-9.3-3.3-20-1.3-27.5 5.9L447.1 113l-22.3-22.3h-62.2v.9l62.2-.1.6.6-.3.3 52.9 52.9c-2 2.1-3.6 4.4-4.8 6.9 0 .1-.1.2-.1.3-4.6 9.9-2.9 22.1 5.3 30.3 2 2 4.3 3.6 6.7 4.9 5.8 3 12.5 3.7 18.7 2.2 2.2-.5 4.3-1.3 6.3-2.4.3-.2.6-.3.9-.5.6-.3 1.2-.7 1.7-1.1.6-.4 1.2-.9 1.8-1.3.1-.1.2-.1.2-.2.5-.4 1-.9 1.5-1.4 6.5-6.6 8.9-15.6 7.4-24zm-8.1 23.1c-.4.4-.9.9-1.4 1.3h-.1c-.6.5-1.3 1.1-2 1.5-.5.4-1.1.7-1.6 1-.3.2-.7.4-1 .6-2.1 1.2-4.4 2-6.7 2.5-6.2 1.3-12.8.4-18.4-2.9-1.9-1.1-3.7-2.5-5.3-4.1-8-8-9.6-20-4.9-29.6 0-.1.1-.2.1-.3 1.2-2.4 2.8-4.5 4.7-6.5 7.4-7.4 18.1-9.3 27.2-5.9l2.1.9c.1 0 .2.1.2.1 2.5 1.2 4.8 2.8 6.8 4.9 3.5 3.5 5.8 7.7 6.8 12.2 2.3 8.5 0 17.8-6.5 24.3z"/>
</svg>
