<?xml version="1.0" encoding="utf-8"?>
<!-- Generator: Adobe Illustrator 19.2.1, SVG Export Plug-In . SVG Version: 6.00 Build 0)  -->
<svg version="1.1" id="Layer_1" xmlns="http://www.w3.org/2000/svg" xmlns:xlink="http://www.w3.org/1999/xlink" x="0px" y="0px"
	 viewBox="0 0 688.4 385.2" style="enable-background:new 0 0 688.4 385.2;" xml:space="preserve">
<style type="text/css">
	.st0{fill:#E62F25;}
	.st1{fill:#EDB0A4;}
	.st2{fill:#2CBCEE;}
	.st3{fill:#FFFFFF;}
	.st4{fill:#F15623;}
	.st5{fill:#5E2E21;}
	.st6{fill:#4167B1;}
	.st7{fill:#4167B1;stroke:#4167B1;stroke-width:2;stroke-miterlimit:10;}
	.st8{fill:#FFFFFF;stroke:#2CBCEE;stroke-width:3;stroke-miterlimit:10;}
	.st9{fill:none;}
	.st10{font-family:'OctinSportsRg-Regular';}
	.st11{font-size:19.691px;}
	.st12{fill:#1D2554;}
	.st13{font-family:'HelveticaLTStd-Light';}
	.st14{font-size:12.4365px;}
	.st15{fill:#8A5143;}
	.st16{fill:#CC2036;stroke:#CC2036;stroke-miterlimit:10;stroke-dasharray:1,1;}
	.st17{fill:#CC2036;stroke:#4167B1;stroke-miterlimit:10;}
</style>
<path class="st0" d="M290.3,10.7l4.1,18.4l11.7-14.8l-4.4,18.3l17.1-8.3l-12.1,14.5l19.2-0.2l-17.4,8l17.4,8l-19.2-0.2L318.8,69
	l-17.1-8.3l4.4,18.3l-11.7-14.9l-4.1,18.4l-4.1-18.4L274.5,79l4.5-18.3L261.8,69l12.1-14.6l-19.1,0.2l17.3-8l-17.3-8l19.1,0.2
	l-12.1-14.5l17.2,8.3l-4.5-18.3l11.8,14.8L290.3,10.7z"/>
<path class="st0" d="M388.2,13.3l3.9,18l11.3-14.5l-4.3,17.8l16.4-8.1l-11.5,14.2l18.3-0.2l-16.6,7.8l16.6,7.8l-18.3-0.2l11.5,14.2
	L399.2,62l4.3,17.8l-11.3-14.4l-3.9,17.9l-3.9-17.9L373,79.8l4.3-17.8l-16.5,8.1l11.6-14.2l-18.3,0.2l16.6-7.8l-16.6-7.8l18.3,0.2
	l-11.6-14.2l16.5,8.1L373,16.8l11.3,14.5L388.2,13.3z"/>
<path class="st0" d="M361.3,194.7l4,18.4l11.6-14.9l-4.4,18.4l17-8.4l-12,14.6l18.9-0.2l-17.1,8l17.1,8l-18.9-0.2l12,14.6l-17-8.3
	l4.4,18.3l-11.6-14.8l-4,18.4l-4-18.4L345.8,263l4.4-18.3l-16.9,8.3l11.9-14.6l-18.8,0.2l17-8l-17-8l18.8,0.2l-11.9-14.6l16.9,8.4
	l-4.4-18.4l11.6,14.9L361.3,194.7z"/>
<path class="st0" d="M470.8,165l4.5,21l13.3-17l-5,20.9l19.2-9.5L489.2,197l21.5-0.2l-19.4,9.1l19.4,9.1l-21.5-0.2l13.6,16.6
	l-19.2-9.5l5,20.9l-13.3-16.9l-4.5,21l-4.6-21L453,242.8l5-20.9l-19.2,9.5l13.6-16.6l-21.5,0.2l19.4-9.1l-19.4-9.1l21.5,0.2
	l-13.6-16.6l19.2,9.5l-5-20.9l13.2,17L470.8,165z"/>
<path class="st0" d="M277,272.4l3.7,15.5l9.5-12.8l-3.3,15.5l14.1-7.3l-9.8,12.5l15.9-0.5l-14.3,7.1l14.6,6.4l-15.9,0.2l10.3,12.1
	l-14.4-6.7l4.1,15.3l-10.1-12.3l-3,15.7l-3.7-15.5l-9.5,12.8l3.3-15.6l-14.1,7.4l9.8-12.6l-15.9,0.6l14.2-7.1l-14.5-6.4l15.9-0.2
	l-10.4-12.1l14.4,6.7l-4-15.4l10.1,12.3L277,272.4z"/>
<path class="st0" d="M213.1,179.6l4.2,19.7l12.4-15.9L225,203l18-8.9l-12.7,15.5l20.1-0.2l-18.2,8.5l18.2,8.5l-20.1-0.2l12.7,15.6
	l-18-8.9l4.7,19.5l-12.4-15.8l-4.2,19.6l-4.3-19.6l-12.3,15.8l4.6-19.5l-17.9,8.9l12.6-15.6l-20,0.2l18.1-8.5l-18.1-8.5l20,0.2
	l-12.6-15.5l17.9,8.9l-4.6-19.6l12.3,15.9L213.1,179.6z"/>
<path class="st0" d="M248,205l3,14l8.8-11.3l-3.3,13.9l12.8-6.3l-9,11.1l14.3-0.2l-13,6.1l13,6.1l-14.3-0.2l9,11.2l-12.8-6.4
	l3.3,13.9l-8.8-11.3l-3,14l-3.1-14l-8.8,11.3l3.3-13.9l-12.8,6.4l9-11.2l-14.3,0.2l13-6.1l-13-6.1l14.3,0.2l-9-11.1l12.8,6.3
	l-3.3-13.9l8.8,11.3L248,205z"/>
<path class="st0" d="M245.8,116l4.3,19.7l12.5-15.9l-4.8,19.6l18.2-8.9l-12.8,15.6l20.2-0.2l-18.3,8.6l18.3,8.6l-20.2-0.2l12.8,15.6
	l-18.2-8.9l4.8,19.6L250,173.3l-4.3,19.7l-4.3-19.7l-12.4,15.9l4.7-19.6l-18.1,8.9l12.8-15.6l-20.2,0.2l18.3-8.6l-18.3-8.6l20.2,0.2
	l-12.8-15.6l18.1,8.9l-4.7-19.6l12.4,15.9L245.8,116z"/>
<path class="st0" d="M481.2,227.4c-1,1-2.1,1.9-3.3,2.8h-0.2c-2.5,1.5-5.1,2.6-7.8,3.4c0.2-1.1,0.4-2.2,0.5-3.4h-0.1
	c0-1.4-0.2-2.8-0.7-4.2h2.4c0.4-1.4,0.8-2.7,1-4h-1.9c5.8-1.6,10.1-6.9,10.1-13.2c0-7.2-5.6-13.1-12.7-13.6
	c-2.7-6.2-8.6-9.2-15.8-9.6c9.4-4,20.6-2.1,28.3,5.5C491.2,201,491.2,217.3,481.2,227.4z"/>
<path class="st0" d="M270.1,140.7c-2.1,2.3-4.2,4.7-6.5,7.4c-2.2-0.6-4.5-1-6.8-1.3c-1.4-0.2-4.2-0.8-6.8-1
	c-1.7-0.2-3.4-0.5-5.1-0.7c-0.1,1-0.3,2.1-0.5,3.1c-0.9,2.8-1.2,7.8-1.3,9.2c-1.2,9.9-0.6,20,2.9,28.9c-1.9-1.1-3.7-2.5-5.3-4.1
	c-8-8-9.6-20-4.9-29.6c0-0.1,0.1-0.2,0.1-0.3c1.2-2.4,2.8-4.5,4.7-6.5c7.4-7.4,18.1-9.3,27.2-5.9C268.8,140,269.5,140.3,270.1,140.7
	L270.1,140.7z"/>
<path class="st1" d="M387,70.8c0-2.2,0.1-4.4,0-6.4c0-2.6-0.1-5.1-0.3-7.4c0-0.4-0.1-0.9-0.1-1.3c-1.9-22.6-11-27.1-34.5-29
	c-0.4,0-0.8-0.1-1.2-0.1c-0.2,0-0.5,0-0.7-0.1c-13.9-1-29.6,2.5-42.7,9c-0.3,0.2-0.6,0.3-0.9,0.5c-11.5,5.9-21,14.2-25.2,24
	c-0.1,0.3-0.3,0.7-0.4,1c-0.8,2.1-1.4,4.2-1.8,6.3c-0.3,1.7,0,3.4-0.1,5c-1.3,0-2.6,0.2-3.7,0.4c-11.1,2.4-13.9,14.1,4.2,16.3
	c0.7,8.6,2.5,13.5,5.9,16.8l0.8,0.8c5,4.1,13.1,5.5,26.2,9.2v6.6l-4.1,1.3l-4.4,1.5c0,0,5,9.2,17.6,12.2c0.3,0.1,0.7,0.2,1,0.2
	c9,1.8,21.6,0.5,38.7-8.9l-10.9-5.7l-3.6-1.9V117c18.5-6.7,30.2-24.1,30.6-31.7C397.9,87.4,386.9,70.8,387,70.8L387,70.8z
	 M366.8,44.9l3.5-5.9c0,0,8.2,8.8,7.2,22.2c-2.1,0.7-4.4,1-6.8,1c-12.4,0-22.5-10.2-22.5-22.8v-0.5
	C353.6,41.9,360.4,44.7,366.8,44.9z M291.5,50.8c0,0,7.6,1.4,0,10.4c0,0,5,1.3,13.1-4.7c-3.3,3.9-8.2,6.4-13.7,6.4
	c-1.8,0-3.5-0.3-5.1-0.7C286.8,58.7,288.5,54.9,291.5,50.8z"/>
<path class="st1" d="M279.2,170.4c0,0-7,8-15.2,18.1c-5.2,6.4-10.9,13.5-15.6,20c-0.2,0.3-0.4,0.6-0.7,0.9
	c-5.3,7.3-9.1,13.6-9.3,16.6c-0.7,9.8-0.7,16.5-7.6,16.5s3.5-11.1,0-16.5c0,0-4,9-9.3,12c-8.1,4.7-6.6-3.9,3.1-12
	c5.8-4.9,0-5.6-7.6,0c-4.4,3.3-13.8-2.2,6.2-10.5c0,0-13.1,0-11.1-6.2c10.4,1.4,12.4-4.8,22.1,0l5.4-8.2l0.6-0.9l16-24.5l11.9-18.1
	L279.2,170.4L279.2,170.4z"/>
<path class="st1" d="M348.5,360.8l8.5-63.6l-19.9-0.4l-0.2,61.7L348.5,360.8z"/>
<path class="st1" d="M302.7,302.5l-1.4,6.9l-10.4,53.7h-11.7l2.5-41.4v-1.1l1.3-20.7V299l14.7,2.6l1,0.2L302.7,302.5z"/>
<path class="st1" d="M377.3,162.7l11.1-12.8l33.9,51.7c9.7-4.8,11.7,1.4,22.1,0c2.1,6.2-11.1,6.2-11.1,6.2
	c20,8.3,10.6,13.8,6.2,10.5c-7.6-5.6-13.4-4.9-7.6,0c9.7,8.2,11.2,16.8,3.1,12c-5.3-3.1-9.3-12-9.3-12c-3.5,5.4,6.9,16.5,0,16.5
	s-6.9-6.7-7.6-16.5C417.5,208.5,377.4,162.7,377.3,162.7L377.3,162.7z"/>
<path class="st2" d="M369.5,298.8c0,0-3.9,2.8-13.2,4.3c-4.9,0.7-11.2,1.1-19.2,0.4c-2.8-0.2-5.8-0.6-9-1.1l-3.1-41.5
	c0,0-6.4,1-12.8,44.6c0,0-1.2,5.8-11,3.9c-1-0.2-2.1-0.5-3.3-0.8c-0.3-0.1-0.7-0.2-1-0.3c-3.7-1.3-8.3-3.4-14.1-6.8V300
	c0-1.4,0-3.6,0.1-6.6c0.1-2,0.1-4.3,0.3-6.9c0-0.3,0-0.7,0.1-1c0.8-14.2,3.3-35.4,10.6-53.7c1.4-3.6,3-7.1,4.9-10.4l32.6,1.8
	l1.1,0.1l5.2,0.3l1.1,0.1l22.6,1.3v4.2c0.1,4.3,0.2,11.4,0.8,19.9v0.1c0,0.3,0,0.7,0.1,1C363.1,265.3,365.2,284.5,369.5,298.8
	L369.5,298.8z"/>
<path class="st3" d="M402.8,154.1v0.3c-0.1,0.8-0.2,1.7-0.4,2.6c-0.4,2-1.3,4.3-2.8,6.6c-0.3,0.5-0.7,1-1.1,1.5
	c-2.5,3-6.3,5.9-12.2,7.9c-3.2,1.1-7.1,1.9-11.7,2.3l-13.8-12.5l4.1,7.6v57.4c0,0-1.2,0.4-3.4,1.1c-4.4,1.4-12.6,3.7-22.4,5.4
	c-0.3,0.1-0.7,0.1-1,0.2c-2.1,0.3-4.2,0.6-6.4,0.9c-0.3,0-0.7,0.1-1,0.1c-12.2,1.3-25.6,0.9-36.7-3.8c-2.5-1.1-4.9-2.3-7.1-3.9
	c0,0,2.8-40.8,7.6-60.1c-8.3,4.8-18,28.3-26.9,23.5c-1.4-0.8-2.5-1.7-3.5-2.7c-3.2-3.4-4.3-8.1-7.7-12.8c-1.9-2.7-4.6-5.5-8.9-8
	c0.5-0.6,1-1.3,1.5-1.9c0.1-0.1,0.2-0.2,0.2-0.3c8.9-11,16.3-19.7,22.6-26.5c0.3-0.3,0.5-0.6,0.8-0.9c22.3-24.3,28.9-24,36.4-23
	c0.4,1.9,1.7,4.6,3.6,7.4c2.4,3.6,5.9,7.3,10.2,9.5c0.3,0.2,0.7,0.3,1,0.5c7.1,3.3,16.2,2.5,26.2-8.7c0.2-0.2,0.4-0.5,0.6-0.7
	c0.5-0.6,1-1.2,1.5-1.9c0.8-1,1.6-2.2,2.5-3.3c0,0,9.7-2.1,20.7,4.1l27.6,29.7v0.1C402.8,152.2,402.9,153,402.8,154.1L402.8,154.1z"
	/>
<path class="st4" d="M372.5,125.5l27.6,29.7c0,0,0.7,5.6-2.9,11.4c6.8-6.8,5.7-14.8,5.7-14.8L375.2,122c-11.1-6.2-20.7-4.1-20.7-4.1
	c-0.8,1.2-1.7,2.3-2.5,3.4C353.5,121,362.4,119.8,372.5,125.5z"/>
<path class="st4" d="M364.8,172.5v55.2c0,0-1,0.4-2.8,0.9v-54.8l-4.1-7.6L364.8,172.5L364.8,172.5z"/>
<path class="st4" d="M350.2,123.4c-0.1,0.2-0.2,0.3-0.3,0.5c-10.1,13.2-19.4,15.4-26.9,12.9c-0.3-0.1-0.7-0.2-1-0.4
	c-6.1-2.4-10.9-7.8-13.6-12.5c-1.2-2.1-2-4-2.3-5.4c-7.2-1-13.5-1.3-33.5,19.9c-0.3,0.3-0.5,0.6-0.8,0.8c-0.2,0.2-0.4,0.4-0.6,0.7
	s-0.5,0.5-0.7,0.8c-2.1,2.2-4.3,4.7-6.6,7.3c-4.4,5-9.2,10.7-14.7,17.4c-0.1,0.1-0.1,0.2-0.2,0.3l-1.5,1.8
	c6.1-7.5,11.4-14,16.2-19.5c2.3-2.7,4.5-5.2,6.5-7.4c0.2-0.3,0.5-0.5,0.7-0.8c0.3-0.3,0.5-0.6,0.8-0.8c0.3-0.3,0.5-0.6,0.8-0.9
	c22.3-24.3,28.9-24.1,36.4-23c0.4,1.9,1.7,4.7,3.6,7.5c2.4,3.6,5.9,7.2,10.2,9.5c0.3,0.2,0.7,0.3,1,0.5
	C330.9,135.9,340.1,135.1,350.2,123.4L350.2,123.4z"/>
<path class="st4" d="M279.2,185.4c2.6-3,5.1-6.7,7.6-10C284.2,178.3,281.8,182,279.2,185.4z"/>
<path class="st5" d="M266.5,62c0,0.6,0,1.2,0.1,1.9C266.7,63.9,266.5,63.1,266.5,62z"/>
<path class="st5" d="M347.3,44.9c-0.1,0-1,0-2.2-0.4C345.8,44.6,346.5,44.8,347.3,44.9z"/>
<path class="st5" d="M400,59.1l-11-4.7l-1-0.4l-1.1-0.4c0.1,0.5,0.2,0.9,0.3,1.4c0.1,0.4,0.1,0.9,0.2,1.3c0.4,3,0.1,5.8-0.5,8.2
	c-3.4,12.4-17.6,17.4-18.1,17.6c5.5-7.2,7.9-13.8,8.5-19.7c0-0.4,0.1-0.7,0.1-1.1c1-13.4-7.2-22.2-7.2-22.2l-3.5,5.9
	c-6.4-0.2-13.3-3-18.6-5.9c-0.3-0.2-0.7-0.4-1-0.6c-5.1-2.9-8.5-5.6-8.5-5.6c0.4,8.1,4.1,10.7,6.5,11.6c-12.6-3-21.1-11.6-21.1-11.6
	c-6.2,10.4-11.8,17.1-16.6,21.3c-1,0.9-1.9,1.6-2.9,2.3c-8.1,6-13.1,4.7-13.1,4.7c7.6-9,0-10.4,0-10.4c-2.9,4.1-4.7,7.9-5.7,11.3
	c-0.1,0.3-0.2,0.7-0.3,1c-3.6,14.1,6,22.2,6,22.2c-10.4-0.8-14.9-6-16.1-12.5c-0.9-4.8-0.1-10.4,1.5-15.2l0.4-1.2l0.3-0.9
	c-0.4,0-0.7-0.1-1.1-0.1h-1.3c-7.1,0-8.5,4-8.6,6.5c0-5.3,2.5-9.5,5.9-12.8c0.3-0.3,0.6-0.5,0.9-0.8c7.6-6.7,18.9-9.3,18.9-9.3
	c-7.6-6.9-12.1-0.7-12.1-0.7c1.7-4.6,4.3-8.2,7.3-11.1c0.5-0.4,0.9-0.9,1.4-1.3c12-10.2,29.6-9.8,29.6-9.8l-9-4.8
	c11.7-1.4,18.7,6.2,18.7,6.2c-1.4-14.4,19.2-13,19.2-13c-13.5,2.5-12.3,11.7-12.3,11.7c50.4-8.3,60.1,9.3,60.1,9.3
	c-2.2-0.3-4.1-0.4-5.5-0.4c-0.4,0-0.9,0-1.3,0.1c-5.8,0.5-5,3.4-5,3.4c4.2,3,7.4,5.9,9.8,8.8c0.4,0.5,0.7,0.9,1.1,1.4l0.1,0.1
	c0.3,0.4,0.5,0.7,0.8,1C402.7,50.6,400.1,59.1,400,59.1L400,59.1z"/>
<path class="st6" d="M290.8,379.7c-14.7,6.2-49.4,0-49.4,0c-6.2-25.9,19.2-26.4,26.9-22.3c7.7,4.1,22.5,0,22.5,0V379.7z"/>
<path class="st2" d="M271,358.5l-11.4,23.9h7.5l11.4-23.9H271z"/>
<path class="st6" d="M336.2,378.7c14.7,6.2,49.4,0,49.4,0c6.2-25.9-19.2-26.4-26.9-22.3s-22.5,0-22.5,0V378.7z"/>
<path class="st2" d="M356,357.4l11.4,24H360l-11.5-24H356z"/>
<ellipse cx="314.5" cy="79.6" rx="2.1" ry="5.7"/>
<ellipse cx="347" cy="79.6" rx="2.1" ry="5.7"/>
<path class="st0" d="M393.2,37.5c-2.4-2.9-5.6-5.8-9.8-8.8c0,0-0.8-2.9,5-3.4C391.1,28.7,392.8,32.9,393.2,37.5z"/>
<path class="st0" d="M377.5,61.2c-2.1,0.7-4.4,1-6.8,1c-12.4,0-22.5-10.2-22.5-22.8v-0.5c5.3,2.9,12.2,5.8,18.6,5.9l3.5-5.9
	C370.2,39.1,378.5,47.8,377.5,61.2z"/>
<path class="st7" d="M432.7,39h-38.3v-0.1c-0.1-5.1-1.9-9.8-4.7-13.6c-4.3-5.8-11.2-9.6-18.9-9.6c-8.3,0-15.7,4.4-19.9,11
	c-2.2,3.4-3.5,7.4-3.7,11.7v1.1c0,13.1,10.6,23.8,23.6,23.8c2.3,0,4.6-0.3,6.7-1c3.5-1,6.6-2.9,9.3-5.3c0.3-0.2,0.6-0.5,0.8-0.8
	c0.6-0.6,1.1-1.2,1.6-1.8c3.2-4,5.1-9,5.2-14.4h72.9v-1H432.7L432.7,39z M388.1,54c-0.3,0.3-0.5,0.6-0.8,0.9
	c-0.2,0.3-0.5,0.5-0.8,0.8c-2.5,2.5-5.6,4.4-9.1,5.5c-2.1,0.7-4.4,1-6.8,1c-12.4,0-22.5-10.2-22.5-22.8v-0.5
	c0.1-4.5,1.5-8.7,3.8-12.2c4.1-6.1,10.9-10.1,18.7-10.1c7.1,0,13.5,3.4,17.6,8.6c2.7,3.4,4.5,7.6,4.8,12.2c0.1,0.7,0.1,1.3,0.1,2
	C393.3,45,391.4,50.1,388.1,54z"/>
<path class="st0" d="M283,293.3c-0.1,3-0.1,5.2-0.1,6.6l-1.2,20.7h-1.2c-9.5,0-17.2-7.7-17.2-17.2s7.7-17.2,17.2-17.2
	c0.9,0,1.9,0.1,2.7,0.2C283.2,289,283.1,291.3,283,293.3z"/>
<path class="st7" d="M201,304h61.2c0.3,9.8,8.4,17.7,18.2,17.7h1.1c7.8-0.5,14.3-5.8,16.4-13.1c0.5-1.6,0.7-3.4,0.7-5.2
	c0-0.6,0-1.1-0.1-1.7c-0.8-8.4-7.2-15.1-15.4-16.4c-0.9-0.1-1.9-0.2-2.8-0.2c-9.9,0-18,7.9-18.2,17.7H201L201,304L201,304z
	 M281.6,320.6h-1.2c-9.5,0-17.2-7.7-17.2-17.2s7.7-17.2,17.2-17.2c0.9,0,1.9,0.1,2.7,0.2c7.6,1.2,13.5,7.4,14.4,15.1
	c0.1,0.6,0.1,1.2,0.1,1.9c0,1.7-0.2,3.3-0.7,4.8C295,315,288.9,320.1,281.6,320.6L281.6,320.6z"/>
<path class="st0" d="M251.2,222.4c0,13.9-11.3,25.3-25.3,25.3c-13.9,0-25.3-11.3-25.3-25.3c0-13.9,11.3-25.3,25.3-25.3
	c5,0,9.7,1.5,13.6,4l-5.4,8.2c-9.7-4.8-11.7,1.4-22.1,0c-2.1,6.2,11.1,6.2,11.1,6.2c-20,8.3-10.6,13.8-6.2,10.5
	c7.6-5.6,13.4-4.9,7.6,0c-9.7,8.2-11.2,16.8-3.1,12c5.3-3.1,9.3-12,9.3-12c3.5,5.4-6.9,16.5,0,16.5s6.9-6.7,7.6-16.5
	c0.2-3,4.1-9.3,9.3-16.6C249.9,213.2,251.2,217.6,251.2,222.4L251.2,222.4z"/>
<path class="st7" d="M248.4,208.5c-2.1-3.3-4.9-6.2-8.2-8.3c-4.1-2.6-8.9-4.2-14.2-4.2c-14.3,0-26,11.5-26.3,25.8h-128v1h128.1
	c0.3,14.3,12,25.8,26.3,25.8c14.5,0,26.3-11.8,26.3-26.3C252.3,217.3,250.8,212.5,248.4,208.5L248.4,208.5z M226.1,247.6
	c-13.9,0-25.3-11.3-25.3-25.3c0-13.9,11.3-25.3,25.3-25.3c5,0,9.7,1.5,13.6,4c3.3,2.1,6.1,5,8.1,8.3c2.3,3.8,3.6,8.2,3.6,13
	C251.3,236.3,240,247.6,226.1,247.6L226.1,247.6z"/>
<path class="st0" d="M373.8,243.1c-3.3,3.3-7.4,5.2-11.6,5.9v-0.1c-0.5-8.5-0.7-15.7-0.8-19.9c2.2-0.7,3.4-1.1,3.4-1.1v-19.5
	c3.3,0.9,6.4,2.7,9,5.3s4.4,5.7,5.3,9c0.3,1.1,0.5,2.2,0.7,3.3C380.5,232,378.6,238.4,373.8,243.1L373.8,243.1z"/>
<path class="st7" d="M410.2,278.8l-35.3-35.3c4.9-5.1,6.8-12,5.8-18.6c-0.2-1.1-0.4-2.1-0.7-3.2c-1-3.3-2.8-6.3-5.4-8.9
	c-2.8-2.8-6.2-4.7-9.7-5.6c-0.9-0.2-1.8-0.4-2.8-0.6c-4.1-0.6-8.4,0-12.2,1.8c-2.3,1.1-4.4,2.5-6.3,4.4c-1.2,1.2-2.2,2.4-3,3.8
	c-1.3,2.1-2.3,4.4-2.8,6.8c-0.8,3.6-0.7,7.5,0.3,11c1,3.4,2.8,6.7,5.5,9.4c2.6,2.6,5.8,4.5,9.1,5.5c3.1,1,6.4,1.2,9.6,0.7
	c4.3-0.6,8.5-2.6,11.9-5.8l35.9,35.9h100.1v-1.5L410.2,278.8L410.2,278.8z M373.8,243.1c-3.3,3.3-7.4,5.2-11.6,5.9
	c-2.9,0.4-5.9,0.3-8.8-0.5c-3.3-0.9-6.5-2.7-9.1-5.3c-2.5-2.5-4.3-5.6-5.3-8.8c-1-3.5-1.1-7.3-0.3-10.8c0.5-2.2,1.4-4.3,2.6-6.2
	c0.8-1.3,1.8-2.6,2.9-3.7c1.9-1.9,4-3.3,6.3-4.3c3.6-1.6,7.6-2.1,11.5-1.6c0.9,0.1,1.9,0.3,2.8,0.6c3.3,0.9,6.4,2.7,9,5.3
	s4.4,5.7,5.3,9c0.3,1.1,0.5,2.2,0.7,3.3C380.5,232,378.6,238.4,373.8,243.1L373.8,243.1z"/>
<path class="st8" d="M337.3,170.4h-5v-5.3h-14.7V176h15.7l4.6,4.5v14.2l-6,6h-13.7l-6-6V187h5v5.6l3.1,3.1h9.5l3.1-3.1v-9.8
	l-2.1-2.1h-18.2v-20.5h24.7L337.3,170.4L337.3,170.4z"/>
<path class="st7" d="M308.5,35.6c-3.3-5.8-9.5-9.7-16.6-9.7c-0.7,0-1.4,0-2.1,0.1c-9.3,1-16.7,8.8-16.9,18.4h-73.6v1h73.6
	c0,1.3,0.2,2.5,0.5,3.7c0.5,2.3,1.5,4.4,2.7,6.3c0.5,0.8,1.1,1.5,1.7,2.2c1.2,1.3,2.6,2.5,4.1,3.4c1.4,0.9,3,1.6,4.6,2.1
	c1.7,0.5,3.5,0.8,5.4,0.8c7.1,0,13.3-3.9,16.6-9.8c1.5-2.7,2.4-5.9,2.4-9.2C310.9,41.5,310.1,38.4,308.5,35.6z M305.7,56.4
	c-3.3,3.9-8.2,6.4-13.7,6.4c-1.8,0-3.5-0.3-5.1-0.7c-1.6-0.5-3.1-1.2-4.5-2c-1.5-1-2.9-2.2-4.1-3.6c-0.3-0.3-0.5-0.6-0.8-1
	c-1.5-2.1-2.6-4.5-3.2-7.2c-0.2-1.1-0.3-2.2-0.3-3.4c0-8.7,6.2-16,14.5-17.6c1.1-0.2,2.3-0.3,3.5-0.3c6.7,0,12.5,3.7,15.6,9.1
	c1.5,2.6,2.3,5.6,2.3,8.8C309.9,49.3,308.3,53.3,305.7,56.4z"/>
<path class="st9" d="M0.1,3.1h194.8v63H0.1V3.1z"/>
<text transform="matrix(1 0 0 1 0 16.8905)" class="st6 st10 st11">Growth &amp; Maturity</text>
<text transform="matrix(1 0 0 1 0 31.7905)" class="st12 st13 st14">As youth mature from puberty into </text>
<text transform="matrix(1 0 0 1 0 46.6905)" class="st12 st13 st14">adolescence the severity of sports </text>
<text transform="matrix(1 0 0 1 0 61.6905)" class="st12 st13 st14">related injuries increase.</text>
<path class="st9" d="M20.5,85.7h161.1v67.5H20.5V85.7z"/>
<text transform="matrix(1 0 0 1 20.504 99.4955)" class="st6 st10 st11">Football</text>
<text transform="matrix(1 0 0 1 20.504 114.3955)" class="st12 st13 st14">Over 500,000 injuries occur </text>
<text transform="matrix(1 0 0 1 20.504 129.2955)" class="st12 st13 st14">annually to American youth </text>
<text transform="matrix(1 0 0 1 20.504 144.2955)" class="st12 st13 st14">from playing Football.</text>
<path class="st9" d="M0.1,192.6h148.2v87.5H0.1V192.6z"/>
<text transform="matrix(1 0 0 1 0 206.3575)" class="st6 st10 st11">Finger, Hand &amp; </text>
<text transform="matrix(1 0 0 1 0 228.1575)" class="st6 st10 st11">Wrist</text>
<text transform="matrix(1 0 0 1 0 243.0575)" class="st12 st13 st14">The most commonly </text>
<text transform="matrix(1 0 0 1 0 257.9575)" class="st12 st13 st14">injured areas are the </text>
<text transform="matrix(1 0 0 1 0 272.8575)" class="st12 st13 st14">fingers, hands and wrists.</text>
<path class="st9" d="M43.5,295.5h189.8v89.7H43.5V295.5z"/>
<text transform="matrix(1 0 0 1 43.41 309.3285)" class="st6 st10 st11">Knee Injuries</text>
<text transform="matrix(1 0 0 1 43.41 324.2285)" class="st12 st13 st14">Knee problems are also one of </text>
<text transform="matrix(1 0 0 1 43.41 339.1285)" class="st12 st13 st14">the most common injuriesin the </text>
<text transform="matrix(1 0 0 1 43.41 354.1285)" class="st12 st13 st14">young athlete including anterior </text>
<text transform="matrix(1 0 0 1 43.41 369.0285)" class="st12 st13 st14">cruciate ligament damage</text>
<path class="st9" d="M516.2,230.6h171v99h-171V230.6z"/>
<text transform="matrix(1 0 0 1 516.258 244.4075)" class="st6 st10 st11">Hip Examination</text>
<text transform="matrix(1 0 0 1 516.258 259.3075)" class="st12 st13 st14">In the child, hip pathology can </text>
<text transform="matrix(1 0 0 1 516.258 274.2075)" class="st12 st13 st14">present as knee pain so a </text>
<text transform="matrix(1 0 0 1 516.258 289.2075)" class="st12 st13 st14">careful exam is important in </text>
<text transform="matrix(1 0 0 1 516.258 304.1075)" class="st12 st13 st14">the child presenting with an </text>
<text transform="matrix(1 0 0 1 516.258 319.0075)" class="st12 st13 st14">insidious onset of knee pain.</text>
<path class="st9" d="M536.2,122.8h143.4v73.4H536.2V122.8z"/>
<text transform="matrix(1 0 0 1 536.28 136.5485)" class="st6 st10 st11">Baseball </text>
<text transform="matrix(1 0 0 1 536.28 151.4485)" class="st12 st13 st14">Most injuries occur as a </text>
<text transform="matrix(1 0 0 1 536.28 166.3485)" class="st12 st13 st14">result of being struck by </text>
<text transform="matrix(1 0 0 1 536.28 181.3485)" class="st12 st13 st14">projectile objects.</text>
<path class="st15" d="M470.3,230.1v1c-0.1,1-0.2,1.9-0.4,2.8l-0.3,1.2c-2.6,8.5-11.2,14.3-11.2,14.3c-23.5,15.9-48.9,2.5-50-15.7
	c-0.1-0.9-0.1-1.7-0.1-2.5c0-0.4,0-0.7-0.1-1c-0.6-12.6,0-17.9,4.1-23.3c0.9-1.2,2-2.3,3.2-3.6c1.4-1.7,2.9-3.4,4.5-4.9
	c8.6-8,20.4-12.7,30.3-12.9h2.4c7.2,0.4,13.1,3.4,15.8,9.6c0.1,0.2,0.2,0.4,0.2,0.5c0.1,0.2,0.1,0.3,0.2,0.5
	c0.4,1.2,0.7,2.5,0.9,3.9c0.1,1,0.2,2.1,0.2,3.2c0,0.8-0.1,1.5-0.2,2.1c-0.5,2.1-1.9,3.4-3.6,4.2c-0.1,0-0.1,0-0.2,0.1
	c-0.3,0.1-0.7,0.2-1,0.3c-0.7,0.2-1.3,0.3-2,0.4c-3,0.3-6.2-0.2-8-0.6c-0.2,0-0.4-0.1-0.5-0.1c-0.2-0.1-0.4-0.1-0.5-0.1
	c-0.3-0.1-0.4-0.1-0.4-0.1c0.1,0.1,0.3,0.2,0.4,0.3c0.2,0.1,0.4,0.2,0.5,0.3c0.2,0.1,0.3,0.2,0.5,0.3h0.1c1.1,0.7,2.2,1.4,3.2,2.1
	c1.2,0.9,2.4,1.7,3.4,2.6c0.5,0.4,1,0.9,1.5,1.3c1.2,1.2,2.3,2.3,3.2,3.5c0,0.1,0.1,0.1,0.1,0.2l0.9,1.2c0.1,0.1,0.1,0.2,0.2,0.3
	c0.1,0.2,0.2,0.4,0.3,0.5c0.1,0.2,0.2,0.3,0.3,0.5c0.7,1.2,1.2,2.4,1.5,3.5C470.1,227.3,470.4,228.8,470.3,230.1L470.3,230.1z"/>
<path class="st9" d="M472,3h194.8v91.2H472V3z"/>
<text transform="matrix(1 0 0 1 472.085 16.7375)" class="st6 st10 st11">Neurological </text>
<text transform="matrix(1 0 0 1 472.085 38.5375)" class="st6 st10 st11">Damage</text>
<text transform="matrix(1 0 0 1 472.085 53.4375)" class="st12 st13 st14">Sports contribute to approxamate</text>
<text transform="matrix(1 0 0 1 658.6851 53.4375)" class="st12 st13 st14">-</text>
<text transform="matrix(1 0 0 1 472.085 68.3375)" class="st12 st13 st14">ly 21% of all traumatic brain inju</text>
<text transform="matrix(1 0 0 1 648.985 68.3375)" class="st12 st13 st14">-</text>
<text transform="matrix(1 0 0 1 472.085 83.2375)" class="st12 st13 st14">ries among American Youth.</text>
<path class="st5" d="M466.3,221.9v-7h7.5c0-0.9,0-1.8-0.1-2.6h-7.4v-7h6c-0.6-1.8-1.2-3.1-1.6-4c-0.4-0.8-0.7-1.2-0.7-1.2
	c-4.4,0.3-8.3,0.5-11.6,0.7h-1.9c-14.1,0.8-17.3,0.9-17.3,0.9c0.3,1.8,0.7,3.5,1.1,5.2c0.4,1.9,0.9,3.6,1.5,5.3
	c0.7,2.1,1.4,4,2.1,5.8v-3.1h8v7h-6.3c0.7,1.4,1.4,2.8,2.1,4h4.2v6.4c0.1,0.1,0.1,0.2,0.2,0.3c0.5,0.6,0.9,1.1,1.4,1.7
	c5.1,6,9.4,8.3,9.4,8.3c1.9-2.4,3.5-4.7,4.8-7c0.2-0.4,0.5-0.8,0.7-1.2c0.3-0.5,0.5-1,0.8-1.4h-2.8v-7h5.7c0.4-1.4,0.8-2.7,1-4
	L466.3,221.9L466.3,221.9z M451.8,212.3h-8v-7h8V212.3z M463.1,205.3v7h-8v-7H463.1z M455.1,214.9h8v7h-8V214.9z M463.1,232.9h-8v-7
	h8V232.9z"/>
<path class="st7" d="M515.5,157.1l15-15l-0.7-0.7L492,179.2l0.1,0.1l-10.5,10.5c-8.5-8.2-21-9.6-31-4.4c-2.3,1.2-4.5,2.8-6.5,4.8
	c-3.2,3.2-5.5,7.1-6.7,11.2c-0.6,2-1,4.2-1.1,6.3v1.4c0,2.6,0.4,5.2,1.1,7.7c1.2,4.1,3.5,8.1,6.7,11.3c0.7,0.7,1.5,1.4,2.3,2
	c0.5,0.4,0.9,0.7,1.4,1c1.8,1.3,3.8,2.3,5.8,3c4.6,1.7,9.5,2.2,14.2,1.3c0.6-0.1,1.3-0.2,1.9-0.4c3-0.8,5.9-2.1,8.6-3.9
	c0.5-0.3,1-0.7,1.4-1c0.8-0.6,1.5-1.3,2.3-2c10.3-10.3,10.4-27,0.4-37.5l33.4-33.4L515.5,157.1L515.5,157.1z M481.2,227.4
	c-1,1-2.1,1.9-3.3,2.8c-0.5,0.4-1,0.7-1.6,1c-2,1.2-4.1,2.2-6.4,2.8c-0.5,0.1-1,0.3-1.5,0.4c-5.4,1.2-11.2,0.6-16.3-1.8
	c-0.9-0.4-1.7-0.9-2.6-1.4c-0.5-0.3-1.1-0.7-1.6-1c-1.1-0.8-2.2-1.7-3.3-2.8c-2.8-2.8-4.9-6.2-6.1-9.7c-0.9-2.6-1.4-5.3-1.4-8.1
	c0-0.7,0-1.4,0.1-2c0.1-2,0.5-4,1.1-5.9c1.2-3.9,3.3-7.6,6.4-10.6c2.4-2.4,5.2-4.2,8.1-5.5c9.4-4,20.6-2.1,28.3,5.5
	C491.2,201,491.2,217.3,481.2,227.4z"/>
<circle class="st3" cx="467.7" cy="208.7" r="13.1"/>
<path class="st6" d="M468.7,195.1h-1c-4.6,0-8.7,2.3-11.2,5.8c-1.6,2.2-2.5,4.9-2.5,7.9v0.8c0.1,1.9,0.6,3.7,1.5,5.3
	c1.6,3.1,4.3,5.5,7.6,6.7c1.4,0.5,2.9,0.8,4.5,0.8h0.4c1.1,0,2.1-0.2,3.1-0.5c5.8-1.6,10.1-6.9,10.1-13.2
	C481.3,201.5,475.7,195.6,468.7,195.1L468.7,195.1z M467.7,221.3h-0.4c-0.3,0-0.6,0-0.9-0.1h-0.1c-1.1-0.1-2.1-0.4-3.1-0.8
	c-2.8-1.1-5-3.1-6.5-5.6c-0.5-0.8-0.8-1.7-1.1-2.6c-0.2-0.7-0.3-1.4-0.4-2.1c0-0.2,0-0.4-0.1-0.6v-1.7c0.1-0.9,0.2-1.8,0.4-2.6
	c0.4-1.4,1.1-2.8,1.9-4c0.1-0.2,0.3-0.4,0.4-0.6c0.1-0.1,0.1-0.2,0.2-0.3c2.3-2.7,5.8-4.4,9.6-4.4c0.5,0,0.9,0,1.4,0.1
	c0.7,0.1,1.3,0.2,1.9,0.4c0.3,0.1,0.7,0.2,1,0.3c4.8,1.8,8.3,6.4,8.3,11.9c0,2-0.5,4-1.3,5.7c-0.1,0.3-0.3,0.6-0.5,0.9
	C476.2,218.9,472.3,221.3,467.7,221.3L467.7,221.3z"/>
<path class="st16" d="M467.2,221.3l-0.9-0.1c1.9-8.7-0.7-14.4-8.9-19.9l0.6-0.8C466.6,206.3,469.2,212.1,467.2,221.3L467.2,221.3z"
	/>
<path class="st16" d="M478.5,215.3c-6.9-5.4-9.1-10.6-7.4-18.7l1,0.3c-1.6,7.9,0.3,12.4,6.9,17.5L478.5,215.3z"/>
<path d="M293.5,215.3c4.7,0.3,4.1-0.7,5.2-4.9C297.9,215.4,298.6,216,293.5,215.3C294.5,215.3,294.9,215.5,293.5,215.3z"/>
<path class="st17" d="M293.8,169.9c-0.2-0.5-0.5-0.9-0.7-1.3c-2-3.5-4.5-6.7-7.7-9.6c-0.4-0.4-0.8-0.7-1.3-1.1
	c-0.9-0.8-1.9-1.5-3-2.3c-5.2-3.6-11.1-5.9-17.3-7.5h-0.2c-2.2-0.6-4.5-1-6.8-1.3c-1.4-0.2-4.2-0.8-6.8-1c-2-0.1-3.8,0-4.7,0.7
	c-0.3,0.3-0.6,0.9-0.9,1.6c-0.9,2.8-1.2,7.8-1.3,9.2c-1.2,9.9-0.6,20,2.9,28.9c0.2,0.5,0.4,1,0.7,1.5c2.8,6.2,7.1,11.8,13.3,16.1
	c7.8,5.5,17.3,8.7,26.7,10.4c0.3,0.1,0.7,0.1,1.1,0.2c2.8,0.6,8.3,2,9.6,1c1.6-1.4,1.9-9.8,2.2-11.5v-0.2
	C300.2,191.8,299,179.9,293.8,169.9L293.8,169.9z"/>
<path class="st12" d="M253.6,146.3h-0.1c-7.5-0.4-7.6-1.3-9.6,5.8l0.6-3.9c0.2-1,0.3-2.1,0.5-3.1c1.7,0.2,3.4,0.5,5.1,0.7
	c0.9,0.1,1.8,0.3,2.7,0.4h0.2c0.1,0,0.2,0,0.4,0.1H253.6L253.6,146.3z"/>
<path class="st3" d="M265.2,173.6c-0.7,0.6-1.3,1.1-2,1.7c-2.3-1.7-2-2.8,0.7-3.5c-1.9-2.5-1.6-3.7-4.3-1.3
	c-2.3-1.7-2.1-2.9,0.6-3.6c-0.8-1-1.6-2-2.3-3c4.8-3.5,1.7,3.5,6.2-0.1c2.2,1.6,2,2.7-0.5,3.4c1.8,2.4,1.5,3.7,4.2,1.5
	c2.2,1.6,2.1,2.7-0.4,3.5c0.4,0.5,0.7,1,1.1,1.5c0.5,1.6,1.2,1.9,2,0.7c0.7-1.1,1.3-1,1.7,0.3c1.3,1.1,0.9,1.9-1.2,2.4
	c1.8,2.3,1.5,3.6,4.1,1.5c2.2,1.6,2.1,2.7-0.5,3.4c1.8,2.4,1.5,3.7,4.2,1.5c2.2,1.6,2.1,2.7-0.4,3.5c0.4,0.5,0.8,1,1.1,1.5
	c0.5,1.7,1.2,1.9,2,0.7c0.7-1.1,1.3-1,1.7,0.3c1.4,1.1,0.9,1.9-1.3,2.4l2.4,3c-4.9,3.4-1.5-3.9-6.3,0.3c-2.3-1.7-2.1-2.9,0.6-3.6
	c-1.9-2.5-1.5-3.7-4.3-1.3c-2.3-1.6-2.1-2.8,0.6-3.5c-1.9-2.5-1.6-3.8-4.3-1.4c-2.3-1.7-2.1-2.9,0.5-3.6c-0.8-1-1.5-2-2.3-3
	c-1.4,2.4-2.6,2.2-3.5-0.5C268.5,176.1,267.2,176.1,265.2,173.6C264.6,174.2,266.1,174.7,265.2,173.6L265.2,173.6z"/>
<path class="st3" d="M310.8,234.8c-6-0.6-11.8-1.8-17.1-4c-2.5-1.1-4.9-2.3-7.1-3.9c0,0,2.8-40.8,7.6-60.1l12.2,2.8l4.4,64.6"/>
<path class="st7" d="M285.3,159c-1-5.2-3.4-10.1-7.4-14c-2.1-2.1-4.4-3.7-6.8-4.9c-0.1-0.1-0.2-0.1-0.2-0.1
	c-0.9-0.5-1.9-0.9-2.9-1.2c-9.3-3.3-20-1.3-27.5,5.9L208.9,113l-22.3-22.3h-62.2v0.9l62.2-0.1l0.6,0.6l-0.3,0.3l52.9,52.9
	c-2,2.1-3.6,4.4-4.8,6.9c0,0.1-0.1,0.2-0.1,0.3c-4.6,9.9-2.9,22.1,5.3,30.3c2,2,4.3,3.6,6.7,4.9c5.8,3,12.5,3.7,18.7,2.2
	c2.2-0.5,4.3-1.3,6.3-2.4c0.3-0.2,0.6-0.3,0.9-0.5c0.6-0.3,1.2-0.7,1.7-1.1c0.6-0.4,1.2-0.9,1.8-1.3c0.1-0.1,0.2-0.1,0.2-0.2
	c0.5-0.4,1-0.9,1.5-1.4C284.5,176.4,286.9,167.4,285.3,159L285.3,159z M277.2,182.1c-0.4,0.4-0.9,0.9-1.4,1.3h-0.1
	c-0.6,0.5-1.3,1.1-2,1.5c-0.5,0.4-1.1,0.7-1.6,1c-0.3,0.2-0.7,0.4-1,0.6c-2.1,1.2-4.4,2-6.7,2.5c-6.2,1.3-12.8,0.4-18.4-2.9
	c-1.9-1.1-3.7-2.5-5.3-4.1c-8-8-9.6-20-4.9-29.6c0-0.1,0.1-0.2,0.1-0.3c1.2-2.4,2.8-4.5,4.7-6.5c7.4-7.4,18.1-9.3,27.2-5.9l2.1,0.9
	c0.1,0,0.2,0.1,0.2,0.1c2.5,1.2,4.8,2.8,6.8,4.9c3.5,3.5,5.8,7.7,6.8,12.2C286.1,166.3,283.8,175.6,277.2,182.1L277.2,182.1z"/>
</svg>
