<svg id="Layer_1" data-name="Layer 1" xmlns="http://www.w3.org/2000/svg" viewBox="0 0 882.44 154.45"><title>final-prevention</title><path d="M0,119.91H878.25a4.19,4.19,0,0,1,4.19,4.19v26.16a4.19,4.19,0,0,1-4.19,4.19H0a0,0,0,0,1,0,0V119.91A0,0,0,0,1,0,119.91Z" fill="#f1fafe"/><path d="M139.31,91.63a81.09,81.09,0,0,0,1.43,15.48l-1.27-.27-1.48-.31h0l-2.75-.57a87.08,87.08,0,0,1-1.15-14.32c0-.76,0-1.51,0-2.26a82.66,82.66,0,0,1,2.08-16.82l2.82-.6,2.87-.62a74.29,74.29,0,0,0-2.54,18C139.32,90.1,139.31,90.86,139.31,91.63Z" fill="#a7a9ac"/><path d="M122.37,120.19v17.74L88.44,123.88V109.27a2.63,2.63,0,0,1,.15-0.86l5.09,1.77v10.21l23.46,9.71V119.28a2.63,2.63,0,0,1,.15-0.86Z" fill="#a7a9ac"/><path d="M75.87,104l1.25,0.44c-1.39,2.12-3.24,3.46-5.53,3.46-5.67,0-8.63-8.17-8.63-16.24s3-16.24,8.63-16.24c2.32,0,4.19,1.37,5.59,3.54l-1.23.44A3.6,3.6,0,0,0,73.33,78a2.73,2.73,0,0,0-.86.15c-2.27.74-4.12,4.35-4.84,9.17-0.1.7-.18,1.44-0.23,2.19s-0.08,1.4-.08,2.11v0c0,6.84,2.24,12.51,5.14,13.46h0a2.72,2.72,0,0,0,.86.15A3.53,3.53,0,0,0,75.87,104Z" fill="#a7a9ac"/><path d="M143.45,127.54l-21.08-7.35-5.09-1.77-23.61-8.24-5.09-1.77-11.46-4L75.87,104a3.53,3.53,0,0,1-2.54,1.29,2.72,2.72,0,0,1-.86-0.15h0c-2.9-1-5.13-6.62-5.14-13.46l0.87,0.19,5.14,1.08,1.62,0.34,2.57,0.54,1.72,0.36,0.87,0.19,55.12,11.61C136.74,115,139.65,122.57,143.45,127.54Z" fill="#96080b"/><path d="M154.2,109.94v18.73c-5.21,0-10.87-8.35-13.46-21.56Z" fill="#96080b"/><path d="M154.2,68.67v41.27l-13.46-2.83-1.27-.27-1.48-.32-2.75-.57L80.11,94.34l-0.87-.19-1.72-.36-2.57-.54-1.62-.34-5.14-1.08-0.87-.19v0c0-.72,0-1.42.08-2.11s0.12-1.48.23-2.19l0.92-.2,4.78-1,1-.23,2.54-.55L78.58,85l0.9-.2,56.71-12.22,2.82-.6,2.87-.62Z" fill="#e62f25"/><path d="M143.43,55.74c-3.11,4.06-5.62,9.87-7.24,16.81L79.48,84.77l-0.9.2-1.66.35-2.54.55-1,.23-4.78,1-0.92.2c0.72-4.82,2.57-8.44,4.84-9.17A2.73,2.73,0,0,1,73.33,78a3.6,3.6,0,0,1,2.61,1.36Z" fill="#fbc8b4"/><path d="M154.2,54.59V68.67l-12.32,2.65C144.77,60.94,149.65,54.59,154.2,54.59Z" fill="#fbc8b4"/><path d="M169.1,91.63a80.33,80.33,0,0,1-1.71,16.85c-2.7,12.42-8.16,20.19-13.19,20.19-5.21,0-10.87-8.35-13.46-21.56l-1.27-.27-1.48-.31h0a84.34,84.34,0,0,1-1.29-14.89A80.94,80.94,0,0,1,139,71.95l2.87-.62c2.89-10.38,7.77-16.74,12.32-16.74,4.92,0,10.24,7.43,13,19.35A78.81,78.81,0,0,1,169.1,91.63Z" fill="#231f20"/><path d="M154.2,128.67v5.23c-4,0-7.66-2.32-10.75-6.36-3.8-5-6.72-12.52-8.22-21.59l2.75,0.57h0l1.48,0.31,1.27,0.27C143.33,120.31,149,128.67,154.2,128.67Z" fill="#a7a9ac"/><path d="M174.33,91.63a85.75,85.75,0,0,1-1.61,16.85c-3,15.09-10.1,25.42-18.52,25.42v-5.23c5,0,10.49-7.77,13.19-20.19a80.33,80.33,0,0,0,1.71-16.85,78.81,78.81,0,0,0-1.91-17.69c-2.76-11.92-8.07-19.35-13-19.35-4.55,0-9.43,6.35-12.32,16.74l-2.87.62-2.82.6c1.63-6.94,4.14-12.75,7.24-16.81s6.78-6.38,10.77-6.38c8.26,0,15.21,9.95,18.33,24.58A84.09,84.09,0,0,1,174.33,91.63Z" fill="#a7a9ac"/><path d="M139.34,89.35a74.29,74.29,0,0,1,2.54-18l-2.87.62-2.82.6a82.66,82.66,0,0,0-2.08,16.82c0,0.75,0,1.5,0,2.26a87.08,87.08,0,0,0,1.15,14.32l2.75,0.57h0l1.48,0.31,1.27,0.27a81.09,81.09,0,0,1-1.43-15.48C139.31,90.86,139.32,90.1,139.34,89.35Z" fill="#a7a9ac"/><path d="M154.2,74.31H796.13a4.19,4.19,0,0,1,4.19,4.19v26.16a4.19,4.19,0,0,1-4.19,4.19H154.2a0,0,0,0,1,0,0V74.31A0,0,0,0,1,154.2,74.31Z" fill="#4167b1"/><circle cx="645.6" cy="52.43" r="45.83" fill="#fff" stroke="#4167b1" stroke-width="3"/><path d="M662.51,47.18V34.51H610.75V66.73h7.53a6.47,6.47,0,0,1,12.42,0h25.62a6.47,6.47,0,0,1,12.41,0h11.22V47.18H662.51ZM631,47.31h-3.3v3.3h-6.34v-3.3H618V41h3.3v-3.3h6.34V41H631v6.34Z" fill="#d9f1fd" stroke="#4167b1" stroke-miterlimit="10" stroke-width="2"/><path d="M669,68.55a6.47,6.47,0,0,1-12.94,0,6.34,6.34,0,0,1,.26-1.82,6.47,6.47,0,0,1,12.41,0A6.34,6.34,0,0,1,669,68.55Z" fill="#4167b1" stroke="#4167b1" stroke-width="3"/><polygon points="630.69 41.3 630.69 47.25 627.59 47.25 627.59 50.36 621.63 50.36 621.63 47.25 618.53 47.25 618.53 41.3 621.63 41.3 621.63 38.2 627.59 38.2 627.59 41.3 630.69 41.3" fill="#e62f25"/><path d="M631,68.55a6.47,6.47,0,0,1-12.94,0,6.34,6.34,0,0,1,.26-1.82A6.47,6.47,0,0,1,631,68.55Z" fill="#4167b1" stroke="#4167b1" stroke-width="3"/><circle cx="752.45" cy="53.3" r="45.83" fill="#fff" stroke="#4167b1" stroke-width="3"/><path d="M761.89,81.42l-20.43-.09c-7-24-.35-42.2-0.35-42.2l4-.09,4.51-.1,4-.09,4.51-.1,5.7-.12A85.16,85.16,0,0,1,761.89,81.42Z" fill="#2cbcee" stroke="#4167b1" stroke-width="2"/><polygon points="759.51 34.85 759.51 39.05 755.01 38.95 751 38.86 746.5 38.76 746.5 34.85 759.51 34.85" fill="#f15623" stroke="#4167b1" stroke-width="2"/><polygon points="763.58 26.16 763.58 34.85 742.43 34.85 742.43 26.16 751 26.16 751 19.13 755.01 19.13 755.01 26.16 763.58 26.16" fill="#cc2036" stroke="#4167b1" stroke-width="2"/><ellipse cx="330.47" cy="48.97" rx="46" ry="47.47" fill="#fff" stroke="#4167b1" stroke-width="3"/><path d="M343.3,21.7V36.4H317.5V21.7A6.46,6.46,0,0,1,324,15.25h12.89A6.46,6.46,0,0,1,343.3,21.7Z" fill="#f15623" stroke="#4167b1" stroke-width="2"/><path d="M317.5,62.2h25.8V76.89a6.46,6.46,0,0,1-6.45,6.45H324a6.46,6.46,0,0,1-6.45-6.45V62.2Z" fill="#f15623" stroke="#4167b1" stroke-width="2"/><rect x="296.35" y="36.4" width="68.1" height="25.8" rx="6.83" ry="6.83" fill="#f15623" stroke="#4167b1" stroke-width="2"/><rect x="320.67" y="38.94" width="19.46" height="20.06" rx="5.49" ry="5.49" fill="none" stroke="#4167b1" stroke-width="2"/><circle cx="225.43" cy="51.57" r="45.83" fill="#fff" stroke="#4167b1" stroke-width="3"/><path d="M259.86,52.55l-32.46,4.61c0,0.44.05,0.88,0.05,1.33A19.59,19.59,0,1,1,207.86,38.9h52C263.23,47.82,259.86,52.55,259.86,52.55Z" fill="#d9f1fd" stroke="#4167b1" stroke-miterlimit="10" stroke-width="3"/><path d="M541.46,4a45.83,45.83,0,1,0,45.82,45.83A45.83,45.83,0,0,0,541.46,4Z" fill="#fff" stroke="#4167b1" stroke-width="3"/><polygon points="563.66 26.63 567.79 31.71 567.79 31.72 567.64 50.74 566.74 51.5 562.84 47.99 558.18 43.8 558.18 43.79 555.74 41.59 557.93 76.39 520.07 78.58 523.15 43.8 512.58 57.45 500.25 47.23 517.87 27.95 529.31 24.42 538.57 28.39 549.57 24.42 558.32 25.79 562.99 26.53 563.66 26.63" fill="#fff" stroke="#4167b1" stroke-width="3"/><polygon points="576.87 42.92 572.36 46.73 572.43 37.44 576.87 42.92" fill="#fff" stroke="#4167b1" stroke-width="3"/><polygon points="528.5 24.49 528.12 78.06 532.79 77.78 533.15 26.55 528.5 24.49"/><polygon points="519.28 27.31 519.14 48.15 522.39 43.8 519.41 78.58 523.59 78.33 523.96 25.82 519.28 27.31"/><polygon points="500.25 47.23 505.39 51.63 505.46 41.34 500.25 47.23"/><polygon points="510.03 36.16 509.89 55.49 512.17 57.45 514.56 54.26 514.73 30.84 510.03 36.16"/><polygon points="556.39 25.79 556.26 43.8 560.76 47.99 560.92 26.52 556.39 25.79"/><polygon points="568.87 51.99 568.87 32.18 564.29 26.55 564.29 51.02 566.47 53.18 568.87 51.99"/><polygon points="537.67 28.25 537.32 77.51 541.99 77.23 542.35 26.51 537.67 28.25"/><polygon points="547.93 24.43 546.89 24.81 546.52 76.95 551.37 76.66 551.73 25.04 547.93 24.43"/><rect x="43.93" y="99.39" width="407.27" height="45.96" fill="none"/><path d="M442.68,53.55c-1.27,9.44,2.12,15.54,2.12,15.54-25.75,20.12-26,.66-34.46,0-4.23-.32-9.26-0.66-13.25-0.9a32.28,32.28,0,0,1-2.36-12.1c0-20.11,18.63-36.41,41.62-36.41a45.7,45.7,0,0,1,22.78,5.94C447.77,36.12,443.71,45.93,442.68,53.55Z" fill="#fff" stroke="#4167b1" stroke-width="2"/><line x1="457.32" y1="55.55" x2="454.86" y2="67.88" fill="none" stroke="#4167b1" stroke-width="3"/><line x1="465.95" y1="50.39" x2="465.87" y2="53.43" fill="none" stroke="#4167b1" stroke-width="3"/><path d="M457.32,55.55a20.68,20.68,0,0,0,2.18,0" fill="none" stroke="#4167b1" stroke-width="3"/><line x1="454.5" y1="71.11" x2="454.5" y2="71.09" fill="none" stroke="#4167b1" stroke-width="3"/><path d="M459.69,24.46l-3.45,31a38.18,38.18,0,0,1-6.36-1.05l-0.62-2-0.45,1.76c-1.71-.45-3.56-1-5.58-1.76C444.26,44.78,448.32,35,459.69,24.46Z" fill="none" stroke="#4167b1" stroke-width="3"/><path d="M435.51,4.87A45.83,45.83,0,1,0,481.34,50.7,45.83,45.83,0,0,0,435.51,4.87Zm31.2,64.26a19.7,19.7,0,0,1-11.07,3.51,15.07,15.07,0,0,1-9.22-3.18c-25.93,20.26-26.19.66-34.69,0-4.26-.32-9.33-0.66-13.34-0.91A32.5,32.5,0,0,1,396,56.38c0-20.25,18.75-36.66,41.91-36.66a46,46,0,0,1,22.94,6l-3.47,31.23c0.39,0,.75,0,1.1.06l0.64-3.16L460.67,57a11.13,11.13,0,0,0,6.41-2.09,4,4,0,0,0,.95-1l5.89,9.09A37.75,37.75,0,0,1,466.71,69.13Z" fill="#fff" stroke="#4167b1" stroke-width="3"/><path d="M465.87,53.43L465.5,67.6l-6-12.1A11.06,11.06,0,0,0,465.87,53.43Z" fill="none" stroke="#4167b1" stroke-width="3"/><path d="M456.24,55.48l-1.37,12.39-0.36,1.79-4.63-15.24A38.18,38.18,0,0,0,456.24,55.48Z" fill="none" stroke="#4167b1" stroke-width="3"/><path d="M454.86,67.88l-0.36,3.22a15,15,0,0,1-9.15-3.15l3.46-13.78,1.06,0.27,4.63,15.24Z" fill="none" stroke="#4167b1" stroke-width="3"/><circle cx="420.72" cy="42.72" r="6.21" fill="#f15623" stroke="#4167b1" stroke-width="2"/></svg>