<svg id="Layer_1" data-name="Layer 1" xmlns="http://www.w3.org/2000/svg" viewBox="0 0 290.18 119.44"><title>775000</title><rect x="12.07" width="278.1" height="119.44" rx="12" ry="12" fill="#fff"/><text transform="translate(38.79 75.56)" font-size="12.44" fill="#1d2554" font-family="Open Sans">children and adolescents ages 14 and <tspan x="0" y="14.92">under are treated in hospital emergency </tspan><tspan x="0" y="29.85">rooms for sportsrelated injuries each year.</tspan></text><text transform="translate(17.62 110.7) rotate(-90)" font-size="20.14" fill="#cc2036" stroke="#cc2036" stroke-miterlimit="10" font-family="Octin Sports">more than</text><path d="M68.23,15.29L51.29,57.16h-7L61.29,16V10.89H42.49v8.66H37V4.92H68.23V15.29Z" fill="#fff" stroke="#2cbcee" stroke-miterlimit="10" stroke-width="2"/><path d="M104.12,15.29L87.18,57.16h-7L97.18,16V10.89H78.38v8.66H72.86V4.92h31.27V15.29Z" fill="#fff" stroke="#2cbcee" stroke-miterlimit="10" stroke-width="2"/><path d="M142.33,18.13h-6.42V11.34H117v14h20.22l6,5.82V49.4l-7.76,7.76H117.78L110,49.4V39.47h6.42v7.24l4,4H132.7l4-4V34.1L134,31.34H110.54V4.92h31.79V18.13Z" fill="#fff" stroke="#2cbcee" stroke-miterlimit="10" stroke-width="2"/><path d="M157.4,56.71l-6.19,10.6-2.61-1.12,2.69-10.82V51h6.12v5.67Z" fill="#fff" stroke="#2cbcee" stroke-miterlimit="10" stroke-width="2"/><path d="M195.53,48.72l-8.43,8.43H169.86l-8.43-8.43V13l8.06-8.06h18L195.53,13V48.72ZM172.1,11.34l-4.25,4.25V46.19l4.55,4.55h12.16l4.55-4.55V15.59l-4.25-4.25H172.1Z" fill="#fff" stroke="#2cbcee" stroke-miterlimit="10" stroke-width="2"/><path d="M236.35,48.72l-8.43,8.43H210.68l-8.43-8.43V13l8.06-8.06h18L236.35,13V48.72ZM212.92,11.34l-4.25,4.25V46.19l4.55,4.55h12.16l4.55-4.55V15.59l-4.25-4.25H212.92Z" fill="#fff" stroke="#2cbcee" stroke-miterlimit="10" stroke-width="2"/><path d="M277.16,48.72l-8.43,8.43H251.49l-8.43-8.43V13l8.06-8.06h18L277.16,13V48.72ZM253.73,11.34l-4.25,4.25V46.19L254,50.74h12.16l4.55-4.55V15.59l-4.25-4.25H253.73Z" fill="#fff" stroke="#2cbcee" stroke-miterlimit="10" stroke-width="2"/></svg>