<svg id="Layer_1" data-name="Layer 1" xmlns="http://www.w3.org/2000/svg" viewBox="0 0 359.28 313.2"><title>percentage-balls</title><circle cx="130.5" cy="164.03" r="54.09" fill="#fff"/><circle cx="208.61" cy="102.38" r="53.33" fill="#fff"/><circle cx="209" cy="203.03" r="46.38" fill="#fff"/><circle cx="121.1" cy="81.46" r="36.79" fill="#fff"/><path d="M43.16,114.85L44,115.22l-0.39.89L43.93,117l1.54,0.68,0.76-.3,0.43-1-0.27-.72-2.09-.92-0.55-1.51,0.65-1.48,1.53-.65,2.54,1.12L49,113.78,48.48,115l-0.84-.37,0.39-.89-0.34-.89-1.74-.76-0.75.31-0.39.9L45.07,114,47.17,115l0.55,1.53L47,118.06l-1.53.65-2.34-1-0.56-1.57Z" fill="#1d2554"/><path d="M42.83,109.36L43.07,111l-2.72,3.87-1.63.33-2.54-1.79-0.24-1.65,2.72-3.87,1.63-.33Zm-0.9.53-1.83-1.29-0.8.15L37,112.1l0.12,0.8,1.83,1.29,0.8-.15,2.36-3.35Z" fill="#1d2554"/><path d="M30.31,107.88l-1.64-1.81,0.65-.59L29.76,106l3.75-3.4,1.67,0,2,2.22-0.13,1.66-3.75,3.4,0.44,0.49L33.1,111l-1.64-1.81,0.65-.59,0.52,0.57,3.51-3.19,0.05-.81-1.43-1.57-0.82,0-3.51,3.19L31,107.29Z" fill="#1d2554"/><path d="M31.33,96.81l1.62,2.78-0.76.44-0.55-1L27,101.79l0.76,1.31,1.1-.64,0.42,0.72-1.86,1.08-2.88-4.94,1.86-1.08L26.81,99l-1.1.64,0.76,1.31,4.66-2.71-0.55-1Z" fill="#1d2554"/><path d="M23.5,97.2l-0.77-2.43,0.84-.27,0.23,0.73L26,94.55l-1-3.23L22.78,92,23,92.74,22.17,93,21.4,90.57l0.84-.27L22.47,91l5.14-1.63-0.23-.73,0.84-.27L29,90.84l-0.84.27-0.23-.73-2.15.68,1,3.23,2.15-.68-0.23-.73,0.84-.27L30.32,95l-0.84.27-0.23-.73L24.11,96.2l0.23,0.73Z" fill="#1d2554"/><path d="M27.8,79.64l-0.88,0,0-.73-1.38.43-0.09,2.75,1.35,0.52,0-.74,0.88,0L27.65,84.2l-0.88,0,0-.58-5.33-2,0,0.46-0.88,0L20.66,79l0.88,0,0,0.47L27,77.87l0-.59,0.88,0Zm-6.27.91,3.08,1.18,0.07-2.15Z" fill="#1d2554"/><path d="M28.86,73.24l-0.69,3.14-0.86-.19,0.24-1.07-5.26-1.16L22,75.43,23.2,75.7,23,76.52l-2.1-.47,1.23-5.58,2.11,0.46-0.18.82-1.25-.28L22.5,73l5.26,1.16L28,73Z" fill="#1d2554"/><path d="M22.87,68.41l1-2.45,0.81,0.34-0.34.81,5,2.1L30.27,67l-1.18-.5,0.33-.77,2,0.84-2,4.62-0.81-.34,0.3-.71L24,68l-0.3.71Z" fill="#1d2554"/><path d="M33.91,62.76l-0.73-.49,0.41-.6-1.4-.37-1.54,2.28,0.87,1.16,0.41-.61,0.73,0.49-1.3,1.93-0.73-.49L31,65.57,27.53,61l-0.26.38-0.73-.49,1.64-2.43L28.91,59l-0.26.39,5.51,1.47,0.33-.49,0.73,0.49Zm-5.8-2.56,2,2.63L31.3,61Z" fill="#1d2554"/><path d="M36.32,58.5L36.88,58l0.6,0.65L35.6,60.35,35,59.71l0.57-.52-3.65-4-0.57.52-0.6-.65,1.68-1.55,6.48,2.29L35.4,52l-0.57.52-0.6-.65,1.88-1.73,0.6,0.65-0.57.52,4.25,4.61-1.12,1-6.47-2.28Z" fill="#1d2554"/><path d="M45.43,52.85l-2.78,1.61-0.44-.76,1-.55-2.69-4.67-1.32.76,0.64,1.11-0.72.42L38,48.89l5-2.86L44,47.9l-0.72.42-0.64-1.11L41.34,48,44,52.64l1-.55Z" fill="#1d2554"/><path d="M47,51.17l0.82-.32-1.94-5L45,46.14l-0.32-.82,2.59-1,0.32,0.82-0.82.32,1.94,5,0.82-.32L49.87,51l-2.59,1Z" fill="#1d2554"/><path d="M54.68,47.13l0.86-.18,0.29,1.36L55,49.72l-2.71.57-1.37-.95-1-4.63,0.87-1.42,2.71-.58,1.37,0.95L55.13,45l-0.86.18-0.19-.92-0.83-.56-1.86.39L51,44.82l0.85,4,0.67,0.45,1.86-.4L54.87,48Z" fill="#1d2554"/><path d="M63.32,37.88l-0.83-.29,0.77-2.2,0.83,0.29-0.27.77L70.16,37l-5.28-3.55-0.16.45-0.83-.29,0.79-2.24,0.83,0.29-0.16.46,6.34,0.54-5.28-3.55-0.27.76-0.83-.29,0.77-2.2,0.83,0.29-0.17.49,6.32,4.24-0.45,1.28-6.55-.56,5.46,3.67L71.07,38l-7.59-.64Z" fill="#1d2554"/><path d="M68.48,25.75l2.87-4.38,1.8,1.18-0.48.74-1.07-.7L70.2,24.74,72.08,26l1.41-2.15,0.74,0.48-1.41,2.15,1.89,1.23,1.41-2.15L75,24.83l0.48-.74,1.8,1.18-2.87,4.38-0.74-.48,0.42-.64-4.51-3-0.42.64Z" fill="#1d2554"/><path d="M78.23,17.54l-0.63.66-0.7-.66H75.95l-1.16,1.22,0,0.82,0.78,0.74h0.77l1.57-1.66h1.61l1.18,1.11,0.09,1.66-1.9,2H77.26l-1-1,0.63-.66,0.7,0.66,1,0,1.31-1.38,0-.81L79.1,19.6H78.34l-1.57,1.66H75.15L73.9,20.11,73.8,18.45l1.75-1.86h1.67Z" fill="#1d2554"/><path d="M85.74,17.36l-2.57,1.93-0.53-.7,0.88-.66-3.24-4.31-1.21.91,0.77,1-0.67.5-1.3-1.72,4.57-3.44,1.3,1.72-0.67.5-0.77-1L81.09,13l3.24,4.31,0.88-.66Z" fill="#1d2554"/><path d="M92,12.95l0.73-.26,0.29,0.83-2.4.86-0.3-.83,0.73-.26L88.91,7.17l-0.73.26L87.88,6.6,90,5.83l5.38,5.52L93.36,5.58l-0.72.26L92.34,5l2.4-.86L95,5l-0.73.26,2.48,6.94-1.43.51L90,7.18Z" fill="#1d2554"/><path d="M99.86,11.59l-1.29-1L98,5.86l1-1.35L102,4.1l1.29,1,0.62,4.69-1,1.35Zm0.3-1,2.21-.29,0.49-.65L102.33,5.6l-0.63-.5-2.21.29L99,6l0.54,4.06Z" fill="#1d2554"/><path d="M105.92,3.83l4.39,0.27,1.07,1.28-0.14,2.2-1.18,1.1L111,10.42l0.58,0-0.05.88-2-.12,0.05-.88,0.31,0L109,8.65l-1.61-.1-0.1,1.65,0.66,0-0.05.88L105.48,11l0.05-.88,0.77,0,0.33-5.38-0.77,0Zm1.72,1.05-0.17,2.72,2.17,0.13,0.68-.61,0.09-1.43L109.83,5Z" fill="#1d2554"/><path d="M116.58,12.56l-3.12-.78,0.21-.85,1.07,0.27L116.06,6l-1.47-.37-0.31,1.24-0.81-.2L114,4.54l5.55,1.39L119,8l-0.81-.2,0.31-1.24L117,6.21l-1.31,5.23,1.07,0.27Z" fill="#1d2554"/><path d="M121.66,6.63l2.3,1.1-0.38.79-0.7-.33-1,2L125,11.69l1-2-0.69-.33,0.38-.79,2.3,1.1-0.38.79-0.69-.33L124.54,15l0.69,0.33-0.38.79-2.3-1.1,0.38-.79,0.69,0.33,1-2L121.54,11l-1,2,0.7,0.33-0.38.79-2.3-1.1,0.38-.79,0.7,0.33L122,7.76l-0.7-.33Z" fill="#1d2554"/><path d="M133.77,20l0.65,0.6-0.94,1-1.66.11-2-1.88,0-1.67L133,14.69l1.66-.11,2,1.88,0,1.67-0.94,1-0.65-.6,0.64-.69,0-1-1.4-1.29-0.82,0-2.78,3,0,0.81,1.4,1.29,1,0Z" fill="#1d2554"/><path d="M139.15,19l3.16,4.18-1.72,1.3-0.53-.7,1-.77L139.52,21l-1.8,1.36,1.55,2.05-0.7.53L137,22.89l-1.8,1.36,1.55,2.05,1-.77,0.53,0.7-1.72,1.3-3.16-4.18,0.7-.53,0.46,0.61,4.3-3.25-0.46-.61Z" fill="#1d2554"/><path d="M139,29.9l0.33,0.7-0.8.37-1.08-2.31,0.8-.37,0.33,0.7,4.88-2.29-0.33-.7,0.8-.37,1,2.07-4.13,5.49,4.7-2.2-0.33-.7,0.8-.37L147,32.21l-0.8.37-0.33-.7-5.68,2.66-0.64-1.37,4.13-5.48Z" fill="#1d2554"/><path d="M141.69,40.3l-0.75-3.12L141.8,37,142.06,38l5.24-1.26-0.35-1.48-1.24.3-0.2-.81,2.1-.5,1.34,5.56-2.1.5-0.2-.81,1.24-.3-0.36-1.48L142.29,39l0.26,1.07Z" fill="#1d2554"/><path d="M149.26,42l0.23,4.39-1.15,1.21-2.2.11-1.22-1-1.64,1.11,0,0.58-0.88,0-0.1-2,0.88,0,0,0.31,1.6-1.08L144.74,44l-1.65.09,0,0.66-0.88,0-0.13-2.44,0.88,0,0,0.77,5.38-.28,0-.77Zm-0.85,1.83-2.72.14,0.11,2.18,0.68,0.6,1.43-.07,0.62-.66Z" fill="#1d2554"/><path d="M141.8,53.47l0.87,0.12-0.1.72L144,54l0.39-2.72-1.28-.66-0.1.73-0.87-.12L142.44,49l0.87,0.12-0.08.58,5.07,2.6,0.07-.46,0.87,0.12-0.41,2.91L148,54.7l0.07-.47-5.6,1.08-0.08.59-0.87-.12Zm6.33-.23-2.93-1.51-0.3,2.13Z" fill="#1d2554"/><path d="M148,58.7l-0.83,2.53-0.84-.28,0.27-.84-5.12-1.68-0.75,2.28,1.21,0.4-0.26.79-2-.67,1.57-4.76L142,56.74l-0.24.73,5.12,1.68,0.24-.73Z" fill="#1d2554"/><circle cx="105.82" cy="48.22" r="36.15" fill="#eddb11"/><path d="M213.07,63.67L212,58.55l2.11-.46L214.25,59l-1.25.27,0.55,2.51,2.2-.48-0.55-2.51,0.86-.19,0.55,2.51,2.2-.48-0.55-2.51-1.25.27-0.19-.86,2.11-.46,1.12,5.11-0.86.19L219,61.57l-5.26,1.15,0.17,0.75Z" fill="#1d2554"/><path d="M218.64,51.79l-0.88,0,0-.73-1.35.51,0.08,2.75,1.38,0.43,0-.74,0.88,0,0.07,2.33-0.88,0,0-.58-5.44-1.7v0.46l-0.88,0-0.09-2.94,0.88,0V52.1l5.33-2,0-.59,0.88,0Zm-6.2,1.31,3.14,1-0.07-2.16Z" fill="#1d2554"/><path d="M214.92,43.31l-0.14.9-1-.14-0.77.55-0.25,1.66,0.49,0.65,1.07,0.16,0.62-.45,0.34-2.26,1.32-.92,1.6,0.24,1,1.31-0.41,2.74-1.37,1-1.37-.21,0.14-.9,1,0.14,0.77-.56,0.28-1.88-0.49-.64-1-.15-0.61.44-0.34,2.26-1.33.93-1.7-.26-1-1.31,0.38-2.52,1.37-1Z" fill="#1d2554"/><path d="M221,38.89l-1,3-0.83-.28,0.35-1-5.12-1.7-0.48,1.44,1.21,0.4-0.26.79-2-.68,1.8-5.43,2,0.68-0.26.79-1.21-.4L214.69,38l5.12,1.7,0.35-1Z" fill="#1d2554"/><path d="M223.65,31.69l0.45-.62,0.71,0.51-1.49,2.07-0.71-.51,0.45-.62-4.38-3.14-0.45.63-0.71-.51,1.33-1.86,6.81,0.93-4.22-3-0.45.63-0.71-.51,1.49-2.07,0.71,0.51-0.45.63,5.09,3.66-0.88,1.23-6.8-.93Z" fill="#1d2554"/><path d="M229.35,26.08L227.69,26l-3.18-3.5,0-1.67,2.3-2.09,1.66,0.13,3.18,3.5,0,1.67Zm-0.32-1,1.65-1.5,0-.82-2.75-3-0.81-.05-1.65,1.5,0,0.82,2.75,3Z" fill="#1d2554"/><path d="M229.87,16.27L233.63,14l1.61,0.44,1.14,1.88L236,17.89l1.75,0.92,0.5-.3,0.46,0.75-1.68,1-0.46-.75,0.26-.16-1.7-.9-1.38.84,0.85,1.41,0.56-.34,0.46,0.75-2.09,1.26-0.46-.75,0.66-.4L231,16.63l-0.66.4Zm2-.11,1.41,2.33,1.86-1.13,0.21-.89-0.74-1.22L233.75,15Z" fill="#1d2554"/><path d="M243.62,17.38l-3,1.13-0.31-.82,1-.39-1.89-5-1.42.53L238.47,14l-0.78.29-0.76-2,5.36-2,0.76,2-0.78.29-0.45-1.19-1.42.53,1.89,5,1-.39Z" fill="#1d2554"/><path d="M244.42,9.61l2.52-.41,0.14,0.87-0.76.12,0.36,2.23,3.34-.54-0.36-2.23-0.76.12-0.14-.87,2.52-.41,0.14,0.87-0.76.12,0.86,5.32,0.76-.12,0.14,0.87L249.9,16l-0.14-.87,0.76-.12-0.36-2.23-3.34.54,0.36,2.23,0.76-.12,0.14,0.87-2.52.41-0.14-.87,0.76-.12-0.86-5.32-0.76.12Z" fill="#1d2554"/><path d="M262,13.68l0.87,0.12-0.19,1.37-1.3,1-2.75-.38-1-1.36,0.66-4.68,1.3-1,2.75,0.38,1,1.36-0.19,1.37-0.87-.12,0.13-.93-0.59-.8-1.88-.26-0.65.5-0.57,4.05,0.47,0.66L261,15.21l0.8-.61Z" fill="#1d2554"/><path d="M265.89,9.85l5,1.64-0.68,2-0.83-.28,0.4-1.21-2.44-.81-0.71,2.14L269,14.19l-0.28.84-2.44-.81-0.71,2.14,2.44,0.81,0.4-1.21,0.84,0.28-0.67,2-5-1.64,0.28-.84L264.65,16l1.69-5.12-0.73-.24Z" fill="#1d2554"/><path d="M271.87,18.88l0.67,0.39-0.44.76-2.21-1.29,0.44-.76L271,18.37l2.71-4.66L273,13.33l0.44-.76,2,1.15-0.28,6.86,2.62-4.49-0.67-.39,0.44-.76,2.2,1.29-0.44.76-0.67-.39L275.51,22l-1.31-.76,0.28-6.85Z" fill="#1d2554"/><path d="M280.06,25.89l-2.4-2.14,0.59-.66,0.82,0.73,3.59-4-1.13-1-0.85,1-0.62-.56,1.44-1.61,4.27,3.81L284.32,23l-0.62-.56,0.85-1-1.13-1-3.59,4,0.82,0.73Z" fill="#1d2554"/><path d="M287.23,23l2.7,3.48-0.26,1.65-1.74,1.35-1.6-.16-0.71,1.85L286,31.57l-0.7.54-1.2-1.55,0.7-.54L285,30.26l0.7-1.79-1-1.28-1.3,1,0.4,0.52-0.7.54-1.5-1.93,0.7-.54,0.47,0.61L287,24.1l-0.47-.61Zm0.34,2-2.16,1.67,1.33,1.72,0.9,0.11,1.13-.88,0.13-.89Z" fill="#1d2554"/><path d="M287.65,36.66l0.79-.39,0.32,0.65,1-1-1.23-2.46-1.43.19,0.33,0.66-0.79.39-1-2.09,0.79-.39,0.26,0.52,5.65-.75-0.21-.41,0.79-.39,1.31,2.63-0.79.39-0.21-.42-4,4.07,0.27,0.53-0.79.39Zm5.08-3.79-3.27.43,1,1.93Z" fill="#1d2554"/><path d="M295.71,37.41L296.46,40l-0.84.25-0.25-.84L290.2,40.9l0.68,2.3,1.22-.36,0.24,0.8-2.07.61-1.42-4.81,0.84-.25,0.22,0.74,5.17-1.53-0.22-.74Z" fill="#1d2554"/><path d="M101.17,49.06l-2.85-5.73L101,38.87l0.51,0.2a2.13,2.13,0,0,1,0,1c-1.66,2.42-1.16,4.75.16,7.11a5.11,5.11,0,0,1,.31,1.56Z" fill="#e63025" stroke="#e62f25" stroke-miterlimit="10"/><path d="M96,48.27c-3.94-4.48-2.86-6.91,1-10C95.51,41.5,94.17,44.71,96,48.27Z" fill="#e63025" stroke="#e62f25" stroke-miterlimit="10"/><path d="M110.4,38a2,2,0,0,1,.33.73c-0.86,2.79.23,5,1.91,7.13a6.92,6.92,0,0,1,.65,2.12C109.16,45.68,107.87,41.12,110.4,38Z" fill="#e63025" stroke="#e62f25" stroke-miterlimit="10"/><path d="M107.8,48.88c-4.41-2.65-5-7.72-1.28-10.13l-1.19,4.53Z" fill="#e63025" stroke="#e62f25" stroke-miterlimit="10"/><path d="M114.77,36.25a3.49,3.49,0,0,1,.62,1.34c-0.69,2.93,1,4.89,2.67,6.89a1.59,1.59,0,0,1,.25.57,1.52,1.52,0,0,1,0,.41C115.2,45.46,112.88,40,114.77,36.25Z" fill="#e63025" stroke="#e62f25" stroke-miterlimit="10"/><path d="M90.85,47.23c-2.91-3.9-2.46-7.38,1.19-9.41A12.08,12.08,0,0,0,90.85,47.23Z" fill="#e63025" stroke="#e62f25" stroke-miterlimit="10"/><path d="M119.87,75l0.69-7.37C123.31,70.74,124.5,72.07,119.87,75Z" fill="#e63025" stroke="#e62f25" stroke-miterlimit="10"/><path d="M99.6,69.79c1.7,2.29,4.52,3.88,4.46,7.29l-0.63.41-4.71-7.09Z" fill="#e63025" stroke="#e62f25" stroke-miterlimit="10"/><path d="M127.68,40.78c-4.25-1.44-5-4.8-6-8l0.56-.43c0.46,0.57,1.25,1.11,1.3,1.72a5.58,5.58,0,0,0,3,4.69C127,39,127.17,39.86,127.68,40.78Z" fill="#e63025" stroke="#e62f25" stroke-miterlimit="10"/><path d="M115.53,68.26a8.31,8.31,0,0,0,1.1,1.49c2.7,2.3,2.4,3.82-1.1,5.89V68.26Z" fill="#e63025" stroke="#e62f25" stroke-miterlimit="10"/><path d="M104.09,69.39c3.35,2,5.39,4.84,3.37,7.67Z" fill="#e63025" stroke="#e62f25" stroke-miterlimit="10"/><path d="M109.9,68.91l3.94,4.3-2.49,3Z" fill="#e63025" stroke="#e62f25" stroke-miterlimit="10"/><path d="M99.48,77.46a19.55,19.55,0,0,1-5.37-6.81C96.22,71.18,97.63,72.86,99.48,77.46Z" fill="#e63025" stroke="#e62f25" stroke-miterlimit="10"/><path d="M85.79,45.16c-2.6-4.16-1.59-5.79,2.62-8.78C87.22,39.41,84.56,41.69,85.79,45.16Z" fill="#e63025" stroke="#e62f25" stroke-miterlimit="10"/><path d="M125.57,29.89c0.53,1.38.8,2.95,1.65,4.09s2.32,1.93,3.5,2.9a1.18,1.18,0,0,1,.06.6c-3.42-1.27-5.8-4.31-5.78-7.36Z" fill="#e63025" stroke="#e62f25" stroke-miterlimit="10"/><path d="M125.55,66.57c2.52,4.08,2.32,5.18-1,7Z" fill="#e63025" stroke="#e62f25" stroke-miterlimit="10"/><path d="M77.51,40.39a6.62,6.62,0,0,1,3.87-7.68Z" fill="#e63025" stroke="#e62f25" stroke-miterlimit="10"/><path d="M84.35,35l-3,7.07C79.92,40.15,81.34,35.95,84.35,35Z" fill="#e63025" stroke="#e62f25" stroke-miterlimit="10"/><path d="M90.44,70.64l6.1,6.58-0.42.42a16.51,16.51,0,0,1-6.24-6.5Z" fill="#e63025" stroke="#e62f25" stroke-miterlimit="10"/><path d="M122.35,44.33l-4-4.79a5.32,5.32,0,0,1,2.17.46c1.24,1,2.79,2,2.53,3.93Z" fill="#e63025" stroke="#e62f25" stroke-miterlimit="10"/><path d="M86.82,71l5.44,6C91.21,77.11,87.38,73.65,86.82,71Z" fill="#e63025" stroke="#e62f25" stroke-miterlimit="10"/><path d="M75.34,37c-0.43-3.21,1.32-5,3.93-6.25Z" fill="#e63025" stroke="#e62f25" stroke-miterlimit="10"/><path d="M74.26,34.25c0-3.1,1.85-5,3.87-6.9l0.48,0.39a29.59,29.59,0,0,0-2.48,2.91A35.05,35.05,0,0,0,74.26,34.25Z" fill="#e63025" stroke="#e62f25" stroke-miterlimit="10"/><path d="M130.67,66.38a28.25,28.25,0,0,1,1,3.09,2.42,2.42,0,0,1-.74,1,2.41,2.41,0,0,1-.94-0.84,28.87,28.87,0,0,1,0-3.2Z" fill="#e63025" stroke="#e62f25" stroke-miterlimit="10"/><path d="M131.77,71.52L133.86,66C135.2,68,134.76,69.34,131.77,71.52Z" fill="#e63025" stroke="#e62f25" stroke-miterlimit="10"/><path d="M132.78,34.2l-3.68-2.48a3.06,3.06,0,0,1,4.09,1.94Z" fill="#e63025" stroke="#e62f25" stroke-miterlimit="10"/><path d="M131.39,27.47c1.53,0.51,3.19.82,3.9,2.57l-0.34.54L131,28.1Z" fill="#e63025" stroke="#e62f25" stroke-miterlimit="10"/><path d="M127,26.3c1.69,0.74,2,2.39,1.88,4.26l-2.56-3.78Z" fill="#e63025" stroke="#e62f25" stroke-miterlimit="10"/><path d="M130.39,27.19l-2.48-3.43,0.51-.4c1.72,0.44,2,2,2.48,3.49Z" fill="#e63025" stroke="#e62f25" stroke-miterlimit="10"/><path d="M119.65,35.31l0.3,3.46-1,.09-0.39-3.44Z" fill="#e63025" stroke="#e62f25" stroke-miterlimit="10"/><path d="M87.19,75.35L84,72.42l0.66-.7,3,3.29Z" fill="#e63025" stroke="#e62f25" stroke-miterlimit="10"/><circle cx="302.8" cy="152.99" r="56.48" fill="#eddb11"/><path d="M317.31,91l4.24,1.19,0.78,1.47-0.62,2.22-1.43.86-2.52-.71-0.42,1.48,0.85,0.24-0.24.85-2.56-.72,0.24-.85,0.74,0.21,1.45-5.19-0.74-.21Zm1.46,1.39L318,95.15l2.1,0.59,0.79-.45,0.42-1.48L320.88,93Z" fill="#1d2554"/><path d="M325,101.13l0.33-.81,0.67,0.28,0.08-1.44-2.54-1-1,1.08,0.68,0.28-0.33.81-2.16-.88,0.33-.81,0.54,0.22,3.76-4.28L325,94.35l0.33-.81L328,94.65l-0.33.81-0.44-.18L326.95,101l0.55,0.23-0.33.81Zm1.33-6.2-2.18,2.47,2,0.82Z" fill="#1d2554"/><path d="M332.77,102.18l0.77,0.43-0.67,1.21-1.59.5L328.86,103l-0.41-1.61,2.3-4.13,1.59-.5,2.42,1.35,0.41,1.61-0.67,1.21-0.77-.43,0.45-.82-0.26-1-1.66-.92-0.78.23-2,3.58,0.21,0.78,1.66,0.92,1-.28Z" fill="#1d2554"/><path d="M333.81,104.86l0.73,0.5,3-4.45-0.73-.5,0.5-.73,2.29,1.57-0.5.73-0.73-.5-3,4.45,0.73,0.5-0.5.73-2.29-1.57Z" fill="#1d2554"/><path d="M341.38,102.51l4,3.35L344,107.52l-0.68-.56,0.82-1-2-1.65-1.44,1.73,2,1.65-0.56.68-2-1.65-1.44,1.73,0.68,0.56-0.56.68-2-1.7,0.56-.68,0.59,0.49,3.45-4.14-0.59-.49Z" fill="#1d2554"/><path d="M342.18,111.48l0.62,0.62,3.81-3.81-0.62-.62,0.62-.62,2,2-0.62.62-0.62-.62-3.81,3.81,0.62,0.62-0.62.62-2-2Z" fill="#1d2554"/><path d="M349.19,116.66l0.56,0.68-1.07.88-1.66-.11L345.25,116l0.2-1.65,3.64-3,1.66,0.11,1.77,2.13-0.2,1.65-1.07.88-0.56-.68,0.72-.6,0.11-1-1.21-1.46-0.81-.07-3.15,2.61-0.09.8,1.21,1.47,1,0.08Z" fill="#1d2554"/><g id="_3Q2XDc" data-name="3Q2XDc"><path d="M295.54,155.83l-4.46-9,4.2-7,0.79,0.32a3.33,3.33,0,0,1,0,1.63c-2.59,3.78-1.81,7.42.24,11.11a8,8,0,0,1,.48,2.43Z" fill="#e63025" stroke="#e62f25" stroke-miterlimit="10"/><path d="M287.44,154.6c-6.15-7-4.47-10.79,1.64-15.55C286.71,144,284.61,149,287.44,154.6Z" fill="#e63025" stroke="#e62f25" stroke-miterlimit="10"/><path d="M310,138.61a3.05,3.05,0,0,1,.52,1.14c-1.35,4.35.37,7.82,3,11.14,0.59,0.75.62,1.94,1,3.31C308,150.55,306,143.43,310,138.61Z" fill="#e63025" stroke="#e62f25" stroke-miterlimit="10"/><path d="M305.9,155.55c-6.9-4.14-7.88-12.07-2-15.82L302,146.8Z" fill="#e63025" stroke="#e62f25" stroke-miterlimit="10"/><path d="M316.8,135.82c0.49,1,1.08,1.64,1,2.1-1.07,4.58,1.57,7.65,4.18,10.76a2.48,2.48,0,0,1,.4.89,2.38,2.38,0,0,1,0,.65C317.46,150.21,313.83,141.66,316.8,135.82Z" fill="#e63025" stroke="#e62f25" stroke-miterlimit="10"/><path d="M279.41,153c-4.54-6.09-3.84-11.53,1.86-14.7A18.88,18.88,0,0,0,279.41,153Z" fill="#e63025" stroke="#e62f25" stroke-miterlimit="10"/><path d="M324.77,196.43l1.08-11.51C330.14,189.71,332,191.79,324.77,196.43Z" fill="#e63025" stroke="#e62f25" stroke-miterlimit="10"/><path d="M293.09,188.22c2.66,3.58,7.06,6.07,7,11.4l-1,.65-7.36-11.08Z" fill="#e63025" stroke="#e62f25" stroke-miterlimit="10"/><path d="M337,142.9c-6.64-2.26-7.84-7.5-9.39-12.52l0.87-.67c0.71,0.89,2,1.74,2,2.68a8.73,8.73,0,0,0,4.67,7.32C335.91,140.15,336.17,141.45,337,142.9Z" fill="#e63025" stroke="#e62f25" stroke-miterlimit="10"/><path d="M318,185.84a13,13,0,0,0,1.71,2.33c4.22,3.59,3.76,6-1.71,9.2V185.84Z" fill="#e63025" stroke="#e62f25" stroke-miterlimit="10"/><path d="M300.1,187.6c5.23,3.18,8.43,7.56,5.27,12Z" fill="#e63025" stroke="#e62f25" stroke-miterlimit="10"/><path d="M309.18,186.84l6.16,6.72-3.89,4.63Z" fill="#e63025" stroke="#e62f25" stroke-miterlimit="10"/><path d="M292.9,200.22a30.54,30.54,0,0,1-8.39-10.64C287.81,190.4,290,193,292.9,200.22Z" fill="#e63025" stroke="#e62f25" stroke-miterlimit="10"/><path d="M271.52,149.74c-4.06-6.5-2.49-9,4.09-13.72C273.75,140.75,269.59,144.32,271.52,149.74Z" fill="#e63025" stroke="#e62f25" stroke-miterlimit="10"/><path d="M333.67,125.88c0.82,2.16,1.25,4.61,2.58,6.39s3.63,3,5.47,4.53a1.85,1.85,0,0,1,.1.94c-5.34-2-9.06-6.73-9-11.5Z" fill="#e63025" stroke="#e62f25" stroke-miterlimit="10"/><path d="M333.64,183.19c3.94,6.38,3.62,8.09-1.54,11Z" fill="#e63025" stroke="#e62f25" stroke-miterlimit="10"/><path d="M258.58,142.29c-0.95-5.56,1.21-9.65,6-12Z" fill="#e63025" stroke="#e62f25" stroke-miterlimit="10"/><path d="M269.26,133.84l-4.74,11.05C262.35,141.91,264.56,135.35,269.26,133.84Z" fill="#e63025" stroke="#e62f25" stroke-miterlimit="10"/><path d="M278.78,189.55l9.54,10.28-0.66.65a25.79,25.79,0,0,1-9.74-10.16Z" fill="#e63025" stroke="#e62f25" stroke-miterlimit="10"/><path d="M328.64,148.45L322.36,141c1.27,0.24,2.64.1,3.38,0.72,1.94,1.62,4.36,3.16,3.95,6.14Z" fill="#e63025" stroke="#e62f25" stroke-miterlimit="10"/><path d="M273.12,190.14l8.5,9.41C280,199.67,274,194.26,273.12,190.14Z" fill="#e63025" stroke="#e62f25" stroke-miterlimit="10"/><path d="M255.18,137.05c-0.68-5,2.06-7.76,6.14-9.77Z" fill="#e63025" stroke="#e62f25" stroke-miterlimit="10"/><path d="M253.49,132.7c0-4.84,2.89-7.88,6.05-10.78l0.75,0.61a46.24,46.24,0,0,0-3.88,4.54A54.77,54.77,0,0,0,253.49,132.7Z" fill="#e63025" stroke="#e62f25" stroke-miterlimit="10"/><path d="M341.63,182.9a44.14,44.14,0,0,1,1.49,4.84c0.09,0.45-.74,1.08-1.16,1.62-0.51-.43-1.41-0.83-1.46-1.31a45.11,45.11,0,0,1-.07-5Z" fill="#e63025" stroke="#e62f25" stroke-miterlimit="10"/><path d="M343.36,190.93l3.27-8.58C348.72,185.49,348,187.52,343.36,190.93Z" fill="#e63025" stroke="#e62f25" stroke-miterlimit="10"/><path d="M344.93,132.62l-5.76-3.87c3.46-1,5.29.5,6.39,3Z" fill="#e63025" stroke="#e62f25" stroke-miterlimit="10"/><path d="M342.77,122.1c2.39,0.8,5,1.28,6.09,4l-0.54.84-6.13-3.88Z" fill="#e63025" stroke="#e62f25" stroke-miterlimit="10"/><path d="M335.86,120.27c2.65,1.16,3.05,3.73,2.94,6.65l-4-5.9Z" fill="#e63025" stroke="#e62f25" stroke-miterlimit="10"/><path d="M341.2,121.66l-3.87-5.36,0.8-.62c2.69,0.69,3.19,3.14,3.88,5.45Z" fill="#e63025" stroke="#e62f25" stroke-miterlimit="10"/><path d="M324.42,134.35l0.47,5.41-1.57.14-0.62-5.37Z" fill="#e63025" stroke="#e62f25" stroke-miterlimit="10"/><path d="M273.71,196.92l-5-4.58,1-1.09,4.61,5.13Z" fill="#e63025" stroke="#e62f25" stroke-miterlimit="10"/></g><circle cx="55.09" cy="173.3" r="45.18" fill="#eddb11"/><path d="M9.36,168.32l0.12-.76,0.87,0.14-0.41,2.52-0.87-.14,0.12-.76-5.32-.87-0.12.76-0.87-.14,0.36-2.21,5.47-1.21-4.8-2.89,0.36-2.21,0.87,0.14L5,161.43l5.32,0.87,0.12-.76,0.87,0.14-0.41,2.52-0.87-.14,0.12-.76-5-.81,4.63,2.84-0.16,1L4.4,167.51Z" fill="#1d2554"/><path d="M12.23,159.27l-1.53.66-4.44-1.62-0.75-1.49,1.06-2.91,1.53-.66,4.44,1.62,0.75,1.49Zm-0.74-.73,0.76-2.1-0.35-.74-3.84-1.4-0.74.33-0.76,2.1,0.35,0.74,3.84,1.4Z" fill="#1d2554"/><path d="M10,146.93l1.2-2.13L12,145.23l-0.32.58L16,148.29l0.49,1.59-1.47,2.61-1.62.4-4.41-2.48L8.73,151,8,150.56l1.2-2.13,0.77,0.43-0.38.67,4.13,2.32,0.78-.2,1-1.85L15.27,149l-4.13-2.32-0.38.67Z" fill="#1d2554"/><path d="M18.62,145.27l0.49-.59,0.68,0.56-1.63,2-0.68-.56L18,146l-4.15-3.44-0.49.59-0.68-.56,1.46-1.76,6.72,1.41-4-3.32-0.49.59L15.68,139l1.63-2L18,137.59l-0.49.59,4.82,4-1,1.17L14.63,142Z" fill="#1d2554"/><path d="M26.77,138.15l-2.42,2.11-0.58-.66,0.83-.72-3.54-4.06-1.14,1,0.84,1-0.63.55L18.7,135.7,23,131.94l1.42,1.63-0.63.55-0.84-1-1.14,1,3.54,4.06,0.83-.72Z" fill="#1d2554"/><path d="M31.35,134.9l-0.48-.74,0.61-.4-1.14-.88L28,134.4l0.35,1.4,0.62-.4,0.48,0.73-1.95,1.28-0.48-.74,0.49-.32-1.41-5.52-0.39.25-0.48-.73,2.45-1.62,0.48,0.74-0.4.26,4.52,3.48,0.5-.33,0.48,0.73ZM27,130.31l0.81,3.19,1.8-1.19Z" fill="#1d2554"/><path d="M33.58,132.6l0.79-.39L32,127.37l-0.79.39L30.79,127l2.48-1.23,0.39,0.79-0.79.39,2.39,4.83,0.79-.39,0.39,0.79L34,133.38Z" fill="#1d2554"/><path d="M39.07,130.1l0.73-.24,0.28,0.84-2.42.8-0.28-.84,0.73-.24-1.69-5.12-0.73.24-0.28-.83,2.17-.72,5,4.76-1.63-4.93-0.73.24-0.28-.84,2.42-.8,0.28,0.84-0.73.24,2,6-1.44.48-4.95-4.75Z" fill="#1d2554"/><g id="_3Q2XDc-2" data-name="3Q2XDc"><path d="M49.28,175.58l-3.57-7.17,3.36-5.56,0.63,0.25a2.66,2.66,0,0,1,0,1.3c-2.07,3-1.45,5.94.19,8.89a6.38,6.38,0,0,1,.38,1.95Z" fill="#e63025" stroke="#e62f25" stroke-miterlimit="10"/><path d="M42.8,174.59c-4.92-5.6-3.58-8.63,1.31-12.44C42.21,166.13,40.54,170.14,42.8,174.59Z" fill="#e63025" stroke="#e62f25" stroke-miterlimit="10"/><path d="M60.82,161.8a2.44,2.44,0,0,1,.42.91c-1.08,3.48.29,6.26,2.39,8.91a8.65,8.65,0,0,1,.81,2.65C59.28,171.35,57.66,165.66,60.82,161.8Z" fill="#e63025" stroke="#e62f25" stroke-miterlimit="10"/><path d="M57.57,175.35c-5.52-3.32-6.3-9.65-1.6-12.66l-1.49,5.66Z" fill="#e63025" stroke="#e62f25" stroke-miterlimit="10"/><path d="M66.29,159.57c0.39,0.81.86,1.31,0.77,1.68-0.86,3.66,1.26,6.12,3.34,8.61a2,2,0,0,1,.32.72,1.91,1.91,0,0,1,0,.52C66.82,171.08,63.92,164.24,66.29,159.57Z" fill="#e63025" stroke="#e62f25" stroke-miterlimit="10"/><path d="M36.38,173.29c-3.63-4.88-3.07-9.22,1.49-11.76A15.1,15.1,0,0,0,36.38,173.29Z" fill="#e63025" stroke="#e62f25" stroke-miterlimit="10"/><path d="M72.66,208.06l0.86-9.21C77,202.68,78.45,204.35,72.66,208.06Z" fill="#e63025" stroke="#e62f25" stroke-miterlimit="10"/><path d="M47.32,201.49c2.13,2.87,5.65,4.85,5.58,9.12l-0.78.52-5.88-8.86Z" fill="#e63025" stroke="#e62f25" stroke-miterlimit="10"/><path d="M82.42,165.23c-5.31-1.81-6.27-6-7.51-10l0.69-.54c0.57,0.71,1.56,1.39,1.63,2.15A7,7,0,0,0,81,162.68C81.58,163,81.79,164.07,82.42,165.23Z" fill="#e63025" stroke="#e62f25" stroke-miterlimit="10"/><path d="M67.23,199.58a10.38,10.38,0,0,0,1.37,1.87c3.37,2.87,3,4.78-1.37,7.36v-9.23Z" fill="#e63025" stroke="#e62f25" stroke-miterlimit="10"/><path d="M52.93,201c4.18,2.55,6.74,6,4.21,9.58Z" fill="#e63025" stroke="#e62f25" stroke-miterlimit="10"/><path d="M60.19,200.39l4.93,5.38L62,209.47Z" fill="#e63025" stroke="#e62f25" stroke-miterlimit="10"/><path d="M47.17,211.08a24.44,24.44,0,0,1-6.72-8.51C43.1,203.23,44.86,205.33,47.17,211.08Z" fill="#e63025" stroke="#e62f25" stroke-miterlimit="10"/><path d="M30.06,170.71c-3.25-5.2-2-7.24,3.27-11C31.85,163.51,28.52,166.36,30.06,170.71Z" fill="#e63025" stroke="#e62f25" stroke-miterlimit="10"/><path d="M79.79,151.62c0.66,1.73,1,3.69,2.06,5.11s2.91,2.42,4.37,3.63a1.48,1.48,0,0,1,.08.75c-4.27-1.59-7.24-5.38-7.23-9.2Z" fill="#e63025" stroke="#e62f25" stroke-miterlimit="10"/><path d="M79.76,197.46c3.15,5.1,2.9,6.47-1.23,8.78Z" fill="#e63025" stroke="#e62f25" stroke-miterlimit="10"/><path d="M19.72,164.75c-0.76-4.44,1-7.72,4.84-9.6Z" fill="#e63025" stroke="#e62f25" stroke-miterlimit="10"/><path d="M28.26,158l-3.79,8.84C22.73,164.44,24.5,159.19,28.26,158Z" fill="#e63025" stroke="#e62f25" stroke-miterlimit="10"/><path d="M35.88,202.55l7.63,8.22L43,211.3a20.63,20.63,0,0,1-7.8-8.13Z" fill="#e63025" stroke="#e62f25" stroke-miterlimit="10"/><path d="M75.76,169.67l-5-6c1,0.19,2.11.08,2.71,0.57,1.55,1.29,3.49,2.53,3.16,4.91Z" fill="#e63025" stroke="#e62f25" stroke-miterlimit="10"/><path d="M31.34,203l6.8,7.53C36.83,210.65,32,206.32,31.34,203Z" fill="#e63025" stroke="#e62f25" stroke-miterlimit="10"/><path d="M17,160.55c-0.54-4,1.65-6.21,4.91-7.81Z" fill="#e63025" stroke="#e62f25" stroke-miterlimit="10"/><path d="M15.64,157.07c0-3.87,2.31-6.31,4.84-8.63l0.6,0.49a37,37,0,0,0-3.1,3.63A43.82,43.82,0,0,0,15.64,157.07Z" fill="#e63025" stroke="#e62f25" stroke-miterlimit="10"/><path d="M86.16,197.23a35.31,35.31,0,0,1,1.19,3.87c0.07,0.36-.6.86-0.92,1.3a3,3,0,0,1-1.17-1,36.08,36.08,0,0,1-.06-4Z" fill="#e63025" stroke="#e62f25" stroke-miterlimit="10"/><path d="M87.53,203.66l2.61-6.87C91.82,199.3,91.27,200.93,87.53,203.66Z" fill="#e63025" stroke="#e62f25" stroke-miterlimit="10"/><path d="M88.8,157l-4.61-3.1c2.77-.76,4.23.4,5.12,2.43Z" fill="#e63025" stroke="#e62f25" stroke-miterlimit="10"/><path d="M87.07,148.6c1.91,0.64,4,1,4.87,3.21l-0.43.67-4.9-3.11Z" fill="#e63025" stroke="#e62f25" stroke-miterlimit="10"/><path d="M81.54,147.12c2.12,0.93,2.44,3,2.36,5.32l-3.2-4.72Z" fill="#e63025" stroke="#e62f25" stroke-miterlimit="10"/><path d="M85.81,148.24L82.71,144l0.64-.5c2.15,0.55,2.56,2.51,3.11,4.36Z" fill="#e63025" stroke="#e62f25" stroke-miterlimit="10"/><path d="M72.38,158.39l0.38,4.33-1.26.11L71,158.53Z" fill="#e63025" stroke="#e62f25" stroke-miterlimit="10"/><path d="M31.81,208.45l-4-3.67,0.83-.87L32.31,208Z" fill="#e63025" stroke="#e62f25" stroke-miterlimit="10"/></g><circle cx="147.57" cy="243.41" r="36.15" fill="#eddb11"/><path d="M119.45,278.19l0.62,0.45-0.52.71-2.06-1.5,0.52-.71,0.62,0.45,3.18-4.36-0.62-.45,0.52-.71,1.81,1.32-1.39,5.43,4.75-3,1.81,1.32-0.52.71-0.62-.45-3.18,4.35,0.62,0.45-0.52.71-2.06-1.5,0.52-.71,0.62,0.45,3-4.06L121.89,280l-0.78-.57,1.3-5.27Z" fill="#1d2554"/><path d="M127.61,283.46l0.8,0.37L130.7,279l-0.8-.37,0.37-.8,2.51,1.18-0.37.8-0.8-.37-2.29,4.88,0.8,0.37-0.37.8-2.51-1.18Z" fill="#1d2554"/><path d="M134.3,279.66l4.5,1.31,0.76,1.48L138.24,287l-1.44.84-4.5-1.31,0.25-.84,0.74,0.22,1.51-5.17-0.74-.22Zm0,6.46,2.37,0.69,0.71-.4,1.15-3.93-0.38-.72-2.38-.69Z" fill="#1d2554"/><path d="M141.66,281.62l4.67,0.4,1,1.3L147,288l-1.24,1.11-4.67-.4,0.08-.88,0.77,0.07,0.46-5.37-0.77-.07ZM142.9,288l2.46,0.21,0.62-.53,0.35-4.08-0.51-.63-2.47-.21Z" fill="#1d2554"/><path d="M149.25,282.06l2.65-.24,0.08,0.88-0.88.08,0.48,5.37,2.39-.21-0.11-1.27,0.83-.08,0.19,2.15-5,.45-0.08-.88,0.77-.07-0.48-5.37-0.77.07Z" fill="#1d2554"/><path d="M155.34,281.4l5.06-1.34,0.55,2.08-0.85.23-0.33-1.23-2.49.66,0.58,2.18,2.49-.66,0.23,0.85-2.49.66,0.58,2.18,2.49-.66-0.33-1.23,0.85-.23,0.55,2.08-5.06,1.34-0.23-.85,0.74-.2-1.38-5.21-0.74.2Z" fill="#1d2554"/><path d="M172.6,282l-0.46-.75,0.62-.38-1.11-.92-2.35,1.43,0.3,1.41,0.63-.38,0.46,0.75-2,1.21-0.46-.75,0.5-.3-1.21-5.57-0.4.24-0.46-.75,2.51-1.52,0.46,0.75-0.4.25,4.38,3.64,0.51-.31,0.46,0.75Zm-4.19-4.75,0.69,3.22,1.84-1.12Z" fill="#1d2554"/><path d="M179,277.07l-2.44,2.09-0.57-.67,0.83-.72-3.51-4.09-1.15,1,0.83,1-0.63.54-1.41-1.63,4.34-3.73,1.41,1.63L176,273l-0.83-1-1.15,1,3.51,4.09,0.83-.72Z" fill="#1d2554"/><path d="M176.09,269.92l1.71-2,0.67,0.57-0.57.67,4.12,3.47,1.54-1.83-1-.82,0.54-.64,1.65,1.39-3.23,3.84-0.67-.57,0.5-.59-4.12-3.47-0.5.59Z" fill="#1d2554"/><path d="M188.08,265.43l-0.76-.44,0.37-.63-1.42-.28-1.38,2.38,0.94,1.09,0.37-.64,0.76,0.44-1.17,2-0.76-.44,0.29-.5-3.72-4.32-0.23.4-0.76-.44,1.48-2.54,0.76,0.44-0.24.41,5.59,1.11,0.3-.51,0.76,0.44Zm-6-2.17,2.15,2.5,1.08-1.86Z" fill="#1d2554"/><path d="M190,259.08l0.24-.73,0.84,0.27-0.79,2.43-0.84-.27,0.24-.73-5.12-1.68-0.24.73-0.84-.27,0.71-2.17,6.77-1.16-4.93-1.62-0.24.73-0.84-.27,0.79-2.43,0.84,0.27-0.24.73,6,2-0.47,1.44-6.76,1.17Z" fill="#1d2554"/><path d="M193.58,247.19l-0.37,3.19-0.87-.1,0.13-1.09-5.35-.63-0.18,1.51,1.27,0.15-0.1.83-2.14-.25,0.67-5.68,2.14,0.25-0.1.83L187.4,246l-0.18,1.51,5.35,0.63,0.13-1.09Z" fill="#1d2554"/><path d="M192.84,243.88l0-.88-5.39.11,0,0.88-0.88,0-0.05-2.77,0.88,0,0,0.88,5.39-.11,0-.88,0.88,0,0.05,2.77Z" fill="#1d2554"/><path d="M190.27,234.69l-0.14-.87,1.37-.22,1.38,0.93,0.45,2.74-1,1.32-4.67.76-1.38-.93-0.44-2.74,1-1.32,1.37-.22,0.14,0.87-0.92.15-0.59.8,0.31,1.88,0.67,0.47,4-.66,0.49-.65L192,235.12l-0.82-.58Z" fill="#1d2554"/><path d="M142.92,245.23l-2.85-5.73,2.69-4.45,0.51,0.2a2.13,2.13,0,0,1,0,1c-1.66,2.42-1.16,4.75.16,7.11a5.11,5.11,0,0,1,.31,1.56Z" fill="#e63025" stroke="#e62f25" stroke-miterlimit="10"/><path d="M137.74,244.44c-3.94-4.48-2.86-6.91,1-10C137.27,237.67,135.93,240.88,137.74,244.44Z" fill="#e63025" stroke="#e62f25" stroke-miterlimit="10"/><path d="M152.16,234.21a2,2,0,0,1,.33.73c-0.86,2.79.23,5,1.91,7.13a6.92,6.92,0,0,1,.65,2.12C150.92,241.85,149.63,237.29,152.16,234.21Z" fill="#e63025" stroke="#e62f25" stroke-miterlimit="10"/><path d="M149.56,245c-4.41-2.65-5-7.72-1.28-10.13l-1.19,4.53Z" fill="#e63025" stroke="#e62f25" stroke-miterlimit="10"/><path d="M156.53,232.42a3.49,3.49,0,0,1,.62,1.34c-0.69,2.93,1,4.89,2.67,6.89a1.59,1.59,0,0,1,.25.57,1.52,1.52,0,0,1,0,.41C157,241.63,154.63,236.16,156.53,232.42Z" fill="#e63025" stroke="#e62f25" stroke-miterlimit="10"/><path d="M132.61,243.4c-2.91-3.9-2.46-7.38,1.19-9.41A12.08,12.08,0,0,0,132.61,243.4Z" fill="#e63025" stroke="#e62f25" stroke-miterlimit="10"/><path d="M161.63,271.21l0.69-7.37C165.07,266.91,166.26,268.24,161.63,271.21Z" fill="#e63025" stroke="#e62f25" stroke-miterlimit="10"/><path d="M141.36,266c1.7,2.29,4.52,3.88,4.46,7.29l-0.63.41-4.71-7.09Z" fill="#e63025" stroke="#e62f25" stroke-miterlimit="10"/><path d="M169.44,237c-4.25-1.44-5-4.8-6-8l0.56-.43c0.46,0.57,1.25,1.11,1.3,1.72a5.58,5.58,0,0,0,3,4.69C168.76,235.19,168.93,236,169.44,237Z" fill="#e63025" stroke="#e62f25" stroke-miterlimit="10"/><path d="M157.28,264.43a8.31,8.31,0,0,0,1.1,1.49c2.7,2.3,2.4,3.82-1.1,5.89v-7.38Z" fill="#e63025" stroke="#e62f25" stroke-miterlimit="10"/><path d="M145.85,265.56c3.35,2,5.39,4.84,3.37,7.67Z" fill="#e63025" stroke="#e62f25" stroke-miterlimit="10"/><path d="M151.65,265.08l3.94,4.3-2.49,3Z" fill="#e63025" stroke="#e62f25" stroke-miterlimit="10"/><path d="M141.24,273.63a19.55,19.55,0,0,1-5.37-6.81C138,267.35,139.38,269,141.24,273.63Z" fill="#e63025" stroke="#e62f25" stroke-miterlimit="10"/><path d="M127.55,241.33c-2.6-4.16-1.59-5.79,2.62-8.78C129,235.58,126.32,237.86,127.55,241.33Z" fill="#e63025" stroke="#e62f25" stroke-miterlimit="10"/><path d="M167.33,226.06c0.53,1.38.8,2.95,1.65,4.09s2.32,1.93,3.5,2.9a1.18,1.18,0,0,1,.06.6c-3.42-1.27-5.8-4.31-5.78-7.36Z" fill="#e63025" stroke="#e62f25" stroke-miterlimit="10"/><path d="M167.31,262.74c2.52,4.08,2.32,5.18-1,7Z" fill="#e63025" stroke="#e62f25" stroke-miterlimit="10"/><path d="M119.27,236.56a6.62,6.62,0,0,1,3.87-7.68Z" fill="#e63025" stroke="#e62f25" stroke-miterlimit="10"/><path d="M126.11,231.15l-3,7.07C121.68,236.32,123.1,232.12,126.11,231.15Z" fill="#e63025" stroke="#e62f25" stroke-miterlimit="10"/><path d="M132.2,266.81l6.1,6.58-0.42.42a16.51,16.51,0,0,1-6.24-6.5Z" fill="#e63025" stroke="#e62f25" stroke-miterlimit="10"/><path d="M164.11,240.5l-4-4.79a5.32,5.32,0,0,1,2.17.46c1.24,1,2.79,2,2.53,3.93Z" fill="#e63025" stroke="#e62f25" stroke-miterlimit="10"/><path d="M128.58,267.19l5.44,6C133,273.28,129.13,269.82,128.58,267.19Z" fill="#e63025" stroke="#e62f25" stroke-miterlimit="10"/><path d="M117.1,233.21c-0.43-3.21,1.32-5,3.93-6.25Z" fill="#e63025" stroke="#e62f25" stroke-miterlimit="10"/><path d="M116,230.42c0-3.1,1.85-5,3.87-6.9l0.48,0.39a29.59,29.59,0,0,0-2.48,2.91A35.05,35.05,0,0,0,116,230.42Z" fill="#e63025" stroke="#e62f25" stroke-miterlimit="10"/><path d="M172.43,262.55a28.25,28.25,0,0,1,1,3.09,2.42,2.42,0,0,1-.74,1,2.41,2.41,0,0,1-.94-0.84,28.87,28.87,0,0,1,0-3.2Z" fill="#e63025" stroke="#e62f25" stroke-miterlimit="10"/><path d="M173.53,267.69l2.09-5.49C177,264.21,176.52,265.51,173.53,267.69Z" fill="#e63025" stroke="#e62f25" stroke-miterlimit="10"/><path d="M174.54,230.37l-3.68-2.48a3.06,3.06,0,0,1,4.09,1.94Z" fill="#e63025" stroke="#e62f25" stroke-miterlimit="10"/><path d="M173.15,223.64c1.53,0.51,3.19.82,3.9,2.57l-0.34.54-3.92-2.48Z" fill="#e63025" stroke="#e62f25" stroke-miterlimit="10"/><path d="M168.73,222.47c1.69,0.74,2,2.39,1.88,4.26l-2.56-3.78Z" fill="#e63025" stroke="#e62f25" stroke-miterlimit="10"/><path d="M172.15,223.36l-2.48-3.43,0.51-.4c1.72,0.44,2,2,2.48,3.49Z" fill="#e63025" stroke="#e62f25" stroke-miterlimit="10"/><path d="M161.41,231.48l0.3,3.46-1,.09-0.39-3.44Z" fill="#e63025" stroke="#e62f25" stroke-miterlimit="10"/><path d="M129,271.52l-3.22-2.93,0.66-.7,3,3.29Z" fill="#e63025" stroke="#e62f25" stroke-miterlimit="10"/><circle cx="60.28" cy="81.85" r="32.53" fill="#eddb11" stroke="#cbe3ee" stroke-miterlimit="10"/><g id="_3Q2XDc-3" data-name="3Q2XDc"><path d="M56.09,83.49l-2.57-5.16,2.42-4,0.46,0.18a1.92,1.92,0,0,1,0,.94c-1.49,2.18-1,4.28.14,6.4a4.6,4.6,0,0,1,.28,1.4Z" fill="#e63025" stroke="#e62f25" stroke-miterlimit="10"/><path d="M51.42,82.78c-3.54-4-2.58-6.22.94-9C51,76.69,49.8,79.58,51.42,82.78Z" fill="#e63025" stroke="#e62f25" stroke-miterlimit="10"/><path d="M64.4,73.57a1.76,1.76,0,0,1,.3.66c-0.78,2.51.21,4.51,1.72,6.42A6.23,6.23,0,0,1,67,82.55C63.29,80.45,62.13,76.35,64.4,73.57Z" fill="#e63025" stroke="#e62f25" stroke-miterlimit="10"/><path d="M62.06,83.33c-4-2.39-4.54-7-1.15-9.11l-1.07,4.08Z" fill="#e63025" stroke="#e62f25" stroke-miterlimit="10"/><path d="M68.34,72a3.14,3.14,0,0,1,.56,1.21c-0.62,2.64.91,4.41,2.41,6.2a1.43,1.43,0,0,1,.23.52,1.37,1.37,0,0,1,0,.37C68.72,80.25,66.63,75.33,68.34,72Z" fill="#e63025" stroke="#e62f25" stroke-miterlimit="10"/><path d="M46.8,81.84c-2.61-3.51-2.21-6.64,1.07-8.47A10.88,10.88,0,0,0,46.8,81.84Z" fill="#e63025" stroke="#e62f25" stroke-miterlimit="10"/><path d="M72.93,106.88l0.62-6.63C76,103,77.09,104.21,72.93,106.88Z" fill="#e63025" stroke="#e62f25" stroke-miterlimit="10"/><path d="M54.68,102.15c1.53,2.06,4.07,3.49,4,6.57l-0.56.37-4.24-6.38Z" fill="#e63025" stroke="#e62f25" stroke-miterlimit="10"/><path d="M80,76c-3.82-1.3-4.52-4.32-5.41-7.21l0.5-.39A4.13,4.13,0,0,1,76.22,70a5,5,0,0,0,2.69,4.22A5.31,5.31,0,0,1,80,76Z" fill="#e63025" stroke="#e62f25" stroke-miterlimit="10"/><path d="M69,100.77a7.48,7.48,0,0,0,1,1.34c2.43,2.07,2.16,3.44-1,5.3v-6.64Z" fill="#e63025" stroke="#e62f25" stroke-miterlimit="10"/><path d="M58.72,101.79c3,1.83,4.85,4.35,3,6.9Z" fill="#e63025" stroke="#e62f25" stroke-miterlimit="10"/><path d="M63.95,101.36l3.55,3.87-2.24,2.67Z" fill="#e63025" stroke="#e62f25" stroke-miterlimit="10"/><path d="M54.57,109.06a17.59,17.59,0,0,1-4.84-6.13C51.64,103.4,52.91,104.92,54.57,109.06Z" fill="#e63025" stroke="#e62f25" stroke-miterlimit="10"/><path d="M42.25,80c-2.34-3.74-1.43-5.21,2.36-7.9C43.54,74.81,41.14,76.86,42.25,80Z" fill="#e63025" stroke="#e62f25" stroke-miterlimit="10"/><path d="M78.06,66.24a15,15,0,0,0,1.49,3.68,17.75,17.75,0,0,0,3.15,2.61,1.06,1.06,0,0,1,.06.54c-3.08-1.14-5.22-3.88-5.2-6.62Z" fill="#e63025" stroke="#e62f25" stroke-miterlimit="10"/><path d="M78,99.25c2.27,3.67,2.09,4.66-.88,6.32Z" fill="#e63025" stroke="#e62f25" stroke-miterlimit="10"/><path d="M34.8,75.69a6,6,0,0,1,3.48-6.91Z" fill="#e63025" stroke="#e62f25" stroke-miterlimit="10"/><path d="M41,70.82l-2.73,6.37C37,75.48,38.25,71.69,41,70.82Z" fill="#e63025" stroke="#e62f25" stroke-miterlimit="10"/><path d="M46.44,102.91l5.49,5.92-0.38.38a14.86,14.86,0,0,1-5.61-5.85Z" fill="#e63025" stroke="#e62f25" stroke-miterlimit="10"/><path d="M75.16,79.24l-3.62-4.31a4.79,4.79,0,0,1,1.95.41c1.12,0.93,2.51,1.82,2.27,3.54Z" fill="#e63025" stroke="#e62f25" stroke-miterlimit="10"/><path d="M43.18,103.26l4.89,5.42C47.13,108.74,43.68,105.63,43.18,103.26Z" fill="#e63025" stroke="#e62f25" stroke-miterlimit="10"/><path d="M32.85,72.68c-0.39-2.89,1.19-4.47,3.54-5.63Z" fill="#e63025" stroke="#e62f25" stroke-miterlimit="10"/><path d="M31.87,70.17c0-2.79,1.66-4.54,3.49-6.21l0.43,0.35a26.63,26.63,0,0,0-2.23,2.61A31.55,31.55,0,0,0,31.87,70.17Z" fill="#e63025" stroke="#e62f25" stroke-miterlimit="10"/><path d="M82.64,99.08a25.42,25.42,0,0,1,.86,2.79,2.18,2.18,0,0,1-.67.94A2.17,2.17,0,0,1,82,102a26,26,0,0,1,0-2.88Z" fill="#e63025" stroke="#e62f25" stroke-miterlimit="10"/><path d="M83.63,103.71l1.88-4.94C86.72,100.57,86.32,101.75,83.63,103.71Z" fill="#e63025" stroke="#e62f25" stroke-miterlimit="10"/><path d="M84.54,70.12l-3.32-2.23a2.76,2.76,0,0,1,3.68,1.75Z" fill="#e63025" stroke="#e62f25" stroke-miterlimit="10"/><path d="M83.3,64.07c1.38,0.46,2.87.74,3.51,2.31l-0.31.49L83,64.63Z" fill="#e63025" stroke="#e62f25" stroke-miterlimit="10"/><path d="M79.32,63c1.52,0.67,1.76,2.15,1.7,3.83l-2.3-3.4Z" fill="#e63025" stroke="#e62f25" stroke-miterlimit="10"/><path d="M82.39,63.81l-2.23-3.09,0.46-.36c1.55,0.39,1.84,1.81,2.24,3.14Z" fill="#e63025" stroke="#e62f25" stroke-miterlimit="10"/><path d="M72.73,71.12L73,74.23l-0.9.08-0.35-3.09Z" fill="#e63025" stroke="#e62f25" stroke-miterlimit="10"/><path d="M43.52,107.16l-2.9-2.64,0.6-.63,2.66,3Z" fill="#e63025" stroke="#e62f25" stroke-miterlimit="10"/></g><path d="M296.28,238c0,12.58-10.36,22.15-22.94,22.15a22.77,22.77,0,0,1,0-45.54C285.92,214.58,296.28,225.4,296.28,238Z" fill="#eddb11"/><path d="M246.38,250.19l-0.85.22-0.58-2.26,0.85-.22,0.19,0.75,4.67-2.81-5.45-.2,0.11,0.43-0.85.22-0.6-2.3,0.85-.22,0.11,0.43,4.67-2.81-5.45-.2,0.19,0.75-0.85.22-0.58-2.26,0.85-.22,0.14,0.53,6.54,0.24,0.34,1.31-4.94,3L251.5,245l0.34,1.31-5.6,3.38Z" fill="#1d2554"/><path d="M243.11,236.82l0.59-5.2,2.14,0.25-0.1.87-1.27-.14-0.29,2.56,2.24,0.26,0.29-2.56,0.87,0.1-0.29,2.56,2.24,0.26,0.29-2.56-1.27-.15,0.1-.87,2.14,0.25-0.59,5.2-0.87-.1,0.09-.76-5.36-.61-0.09.77Z" fill="#1d2554"/><path d="M248.76,225l-0.35.84-0.9-.37-0.88.35L246,227.42l0.32,0.75,1,0.41,0.71-.29,0.87-2.12,1.5-.58,1.5,0.61,0.68,1.52-1.05,2.56-1.55.6-1.28-.53,0.35-.84,0.9,0.37,0.89-.36,0.72-1.76-0.33-.74-0.91-.37-0.7.28L248.75,229l-1.51.59-1.59-.65L245,227.47l1-2.36,1.55-.6Z" fill="#1d2554"/><path d="M256,222.56L254,225.12l-0.7-.53,0.67-.87-4.28-3.27-0.92,1.21,1,0.77-0.51.67-1.71-1.31,3.47-4.55,1.71,1.31-0.51.66-1-.77-0.92,1.21,4.28,3.27,0.67-.87Z" fill="#1d2554"/><path d="M262.08,212.53l-0.8.44-0.47-.85-0.91-.28-1.47.81-0.22.79,0.52,0.94,0.74,0.22,2-1.1L263,214l0.78,1.42L263.37,217l-2.43,1.34-1.59-.51-0.67-1.21,0.8-.44L260,217l0.92,0.27,1.67-.92,0.21-.78-0.47-.86-0.72-.22-2,1.1-1.55-.49-0.83-1.5,0.42-1.61,2.24-1.23,1.59,0.51Z" fill="#1d2554"/><path d="M266.55,215.78l-1.38-.93-1-4.61,0.85-1.43,3-.69,1.38,0.93,1,4.61-0.85,1.43Zm0.21-1,2.18-.5,0.43-.7-0.91-4-0.68-.44-2.18.5-0.43.7,0.91,4Z" fill="#1d2554"/><path d="M276.47,207.9l2.43,0.2-0.07.88-0.66-.05-0.42,5-1.24,1.11-3-.25-1-1.3,0.42-5-0.66-.05,0.07-.88,2.43,0.2-0.07.88-0.77-.06-0.39,4.72,0.51,0.63,2.12,0.17,0.62-.53,0.39-4.73-0.77-.06Z" fill="#1d2554"/><path d="M283,217.06l-3-1.18,0.32-.82,1,0.4,2-5-1.41-.56-0.47,1.19-0.78-.31,0.79-2,5.32,2.11-0.79,2-0.78-.31,0.47-1.19-1.41-.56-2,5,1,0.41Z" fill="#1d2554"/><path d="M289.3,212.22l2,1.61-0.55.68-0.6-.49-1.42,1.75,2.63,2.14,1.42-1.75-0.6-.49,0.56-.68,2,1.61-0.55.68-0.6-.49-3.4,4.18,0.6,0.49-0.56.68-2-1.61,0.56-.68,0.6,0.49,1.42-1.75-2.63-2.14-1.42,1.75,0.6,0.49-0.55.68-2-1.61,0.56-.68,0.6,0.49,3.4-4.18-0.6-.49Z" fill="#1d2554"/><path d="M297,228.77l0.36,0.8-1.26.57-1.58-.54-1.15-2.52,0.63-1.54,4.31-2,1.58,0.54,1.15,2.52-0.63,1.54-1.26.57-0.36-.8,0.85-.39,0.36-.93-0.79-1.73-0.77-.28-3.73,1.69-0.3.75,0.79,1.73,0.94,0.35Z" fill="#1d2554"/><path d="M302.33,230.55l0.78,5.18-2.13.32-0.13-.87,1.26-.19-0.38-2.54-2.23.34,0.38,2.55-0.87.13-0.38-2.54-2.23.34,0.38,2.55,1.26-.19,0.13,0.87-2.13.32-0.78-5.18,0.87-.13,0.12,0.76,5.33-.81-0.12-.76Z" fill="#1d2554"/><path d="M296.75,239.89l-0.13.76-0.87-.15,0.43-2.52,0.87,0.15-0.13.76,5.31,0.91,0.13-.76,0.87,0.15-0.39,2.25-6.53,2.14,5.12,0.88,0.13-.76,0.87,0.15L302,246.37l-0.87-.15,0.13-.76-6.18-1.06,0.26-1.5,6.52-2.14Z" fill="#1d2554"/><path d="M292.59,249.59l1.49-2.85,0.78,0.41-0.51,1,4.78,2.49,0.7-1.35-1.13-.59,0.39-.74,1.91,1L298.35,254l-1.91-1,0.39-.74,1.13,0.59,0.7-1.35L293.88,249l-0.51,1Z" fill="#1d2554"/><path d="M296.8,256.2l-3,3.18h-1.67l-1.59-1.52-0.07-1.61-1.93-.43-0.4.42-0.64-.61,1.35-1.41,0.64,0.61-0.21.22,1.88,0.43,1.12-1.17L291,253.15l-0.46.48-0.64-.61,1.69-1.76,0.63,0.61-0.53.56,3.89,3.73,0.53-.56Zm-1.92.63-2-1.89-1.51,1.57,0,0.91,1,1h0.9Z" fill="#1d2554"/><path d="M283.19,258.11l0.43,0.77-0.63.35,1.08,1,2.4-1.33-0.25-1.42-0.64.36-0.43-.77,2-1.13,0.43,0.77-0.51.28,1,5.61,0.4-.22,0.43,0.77-2.57,1.43-0.43-.77,0.41-.23-4.24-3.81-0.52.29-0.43-.77Zm4,4.91-0.57-3.25-1.88,1Z" fill="#1d2554"/><path d="M282.28,266.23l-2.59.62-0.21-.86,0.86-.21-1.26-5.24-2.33.56,0.3,1.24-0.81.2-0.5-2.1,4.88-1.17,0.21,0.86-0.75.18,1.26,5.24,0.75-.18Z" fill="#1d2554"/><path d="M270.42,238.5l-1.8-3.61,1.69-2.8,0.32,0.13a1.34,1.34,0,0,1,0,.66c-1,1.52-.73,3,0.1,4.48a3.22,3.22,0,0,1,.19,1Z" fill="#e63025" stroke="#e62f25" stroke-miterlimit="10" stroke-width="0.5"/><path d="M267.15,238c-2.48-2.82-1.8-4.35.66-6.27C266.86,233.74,266,235.76,267.15,238Z" fill="#e63025" stroke="#e62f25" stroke-miterlimit="10" stroke-width="0.5"/><path d="M276.24,231.55a5.19,5.19,0,0,1,.37,1.08c-0.54,1.76.15,3.15,1.2,4.49a4.36,4.36,0,0,1,.41,1.33C275.62,237,274.64,233.5,276.24,231.55Z" fill="#e63025" stroke="#e62f25" stroke-miterlimit="10" stroke-width="0.5"/><path d="M274.6,238.38c-2.78-1.67-3.18-4.87-.81-6.38L273,234.86Z" fill="#e63025" stroke="#e62f25" stroke-miterlimit="10" stroke-width="0.5"/><path d="M279,230.43a2.2,2.2,0,0,1,.39.85c-0.43,1.85.8,3.7,1.85,5a1,1,0,0,1,.16.36,1,1,0,0,1,0,.26C279.42,236.85,277.8,232.78,279,230.43Z" fill="#e63025" stroke="#e62f25" stroke-miterlimit="10" stroke-width="0.5"/><path d="M263.92,237.34c-1.83-2.46-1.55-4.65.75-5.93A7.61,7.61,0,0,0,263.92,237.34Z" fill="#e63025" stroke="#e62f25" stroke-miterlimit="10" stroke-width="0.5"/><path d="M282.37,255.49l0.44-4.64C284.53,252.78,285.28,253.62,282.37,255.49Z" fill="#e63025" stroke="#e62f25" stroke-miterlimit="10" stroke-width="0.5"/><path d="M269.43,251.56c1.07,1.44,2.85,2.45,2.81,4.6l-0.4.26-3-4.47Z" fill="#e63025" stroke="#e62f25" stroke-miterlimit="10" stroke-width="0.5"/><path d="M287.28,233.91c-2.68-.91-3.33-3.65-4-5.67l0.35-.27a2.89,2.89,0,0,1,.82,1.08,4.78,4.78,0,0,0,2,3.57A3.71,3.71,0,0,1,287.28,233.91Z" fill="#e63025" stroke="#e62f25" stroke-miterlimit="10" stroke-width="0.5"/><path d="M279.63,251.22a5.23,5.23,0,0,0,.69.94c1.7,1.45,1.51,2.41-.69,3.71v-4.65Z" fill="#e63025" stroke="#e62f25" stroke-miterlimit="10" stroke-width="0.5"/><path d="M272.26,251.31c2.11,1.28,3.4,3,2.12,4.83Z" fill="#e63025" stroke="#e62f25" stroke-miterlimit="10" stroke-width="0.5"/><path d="M276.08,251.62l2.48,2.71L277,256.2Z" fill="#e63025" stroke="#e62f25" stroke-miterlimit="10" stroke-width="0.5"/><path d="M269.35,256.39a12.32,12.32,0,0,1-3.38-4.29C267.3,252.43,268.19,253.49,269.35,256.39Z" fill="#e63025" stroke="#e62f25" stroke-miterlimit="10" stroke-width="0.5"/><path d="M260.73,236c-1.64-2.62-1-3.65,1.65-5.53C261.63,232.42,260,233.85,260.73,236Z" fill="#e63025" stroke="#e62f25" stroke-miterlimit="10" stroke-width="0.5"/><path d="M285.79,226.42a10.53,10.53,0,0,0,1,2.58,12.43,12.43,0,0,0,2.2,1.83,0.75,0.75,0,0,1,0,.38,5.28,5.28,0,0,1-3.64-4.64Z" fill="#e63025" stroke="#e62f25" stroke-miterlimit="10" stroke-width="0.5"/><path d="M285.94,250.15c1.59,2.57,1.46,3.26-.62,4.42Z" fill="#e63025" stroke="#e62f25" stroke-miterlimit="10" stroke-width="0.5"/><path d="M255.52,233A4.17,4.17,0,0,1,258,228.2Z" fill="#e63025" stroke="#e62f25" stroke-miterlimit="10" stroke-width="0.5"/><path d="M259.82,229.63l-1.91,4.46C257,232.89,257.93,230.24,259.82,229.63Z" fill="#e63025" stroke="#e62f25" stroke-miterlimit="10" stroke-width="0.5"/><path d="M263.66,252.09l3.85,4.14-0.27.26a10.4,10.4,0,0,1-3.93-4.1Z" fill="#e63025" stroke="#e62f25" stroke-miterlimit="10" stroke-width="0.5"/><path d="M283.93,236.14l-2.53-3a3.35,3.35,0,0,1,1.36.29c0.78,0.65,1.76,1.27,1.59,2.48Z" fill="#e63025" stroke="#e62f25" stroke-miterlimit="10" stroke-width="0.5"/><path d="M261.38,252.33l3.43,3.79C264.14,256.17,261.73,254,261.38,252.33Z" fill="#e63025" stroke="#e62f25" stroke-miterlimit="10" stroke-width="0.5"/><path d="M254.15,230.93c-0.27-2,.83-3.13,2.47-3.94Z" fill="#e63025" stroke="#e62f25" stroke-miterlimit="10" stroke-width="0.5"/><path d="M253.47,229.17c0-2,1.16-3.18,2.44-4.35l0.3,0.24a18.64,18.64,0,0,0-1.56,1.83A22.08,22.08,0,0,0,253.47,229.17Z" fill="#e63025" stroke="#e62f25" stroke-miterlimit="10" stroke-width="0.5"/><path d="M289.17,250a17.8,17.8,0,0,1,.6,1.95,0.54,0.54,0,1,1-1.06.13,18.19,18.19,0,0,1,0-2Z" fill="#e63025" stroke="#e62f25" stroke-miterlimit="10" stroke-width="0.5"/><path d="M289.86,253.27l1.32-3.46C292,251.08,291.74,251.9,289.86,253.27Z" fill="#e63025" stroke="#e62f25" stroke-miterlimit="10" stroke-width="0.5"/><path d="M290.33,229.14L288,227.58a1.93,1.93,0,0,1,2.58,1.23Z" fill="#e63025" stroke="#e62f25" stroke-miterlimit="10" stroke-width="0.5"/><path d="M289.46,224.9c1,0.32,2,.52,2.46,1.62l-0.22.34-2.47-1.57Z" fill="#e63025" stroke="#e62f25" stroke-miterlimit="10" stroke-width="0.5"/><path d="M286.68,224.16c1.07,0.47,1.23,1.5,1.19,2.68l-1.61-2.38Z" fill="#e63025" stroke="#e62f25" stroke-miterlimit="10" stroke-width="0.5"/><path d="M288.83,224.72l-1.56-2.16,0.32-.25c1.08,0.28,1.29,1.27,1.57,2.2Z" fill="#e63025" stroke="#e62f25" stroke-miterlimit="10" stroke-width="0.5"/><path d="M282.06,229.84c0.06,0.73.29,2.08,0.35,2.8l-0.63.06c-0.08-.72-0.33-2.06-0.41-2.79Z" fill="#e63025" stroke="#e62f25" stroke-miterlimit="10" stroke-width="0.5"/><path d="M261.62,255.06l-2-1.85,0.42-.44,1.86,2.07Z" fill="#e63025" stroke="#e62f25" stroke-miterlimit="10" stroke-width="0.5"/><circle cx="224.67" cy="270.4" r="24.19" fill="#eddb11"/><path d="M216,245l-5,2.38-1-2.07,0.85-.4,0.58,1.22,2.47-1.17-1-2.17-2.47,1.17-0.4-.84,2.47-1.17-1-2.17-2.47,1.17,0.58,1.22-0.85.4-1-2.07,5-2.38,0.4,0.84-0.74.35,2.45,5.18,0.74-.35Z" fill="#1d2554"/><path d="M201.18,245.43l0.62,0.7-0.58.51,1.34,0.75,2.19-1.94L204.16,244l-0.59.52-0.62-.7,1.85-1.64,0.62,0.7-0.46.41,2.32,5.59,0.37-.33,0.62,0.7-2.33,2.07-0.62-.7,0.38-.33-5.28-3-0.47.42-0.62-.7Zm5.29,4.17-1.34-3.23-1.71,1.52Z" fill="#1d2554"/><path d="M198.6,256.61l0.52-.82,0.87,0.55,1-.2,1-1.5-0.19-.85-1-.62-0.8.17-1.31,2-1.68.33-1.45-.93-0.43-1.72,1.59-2.48,1.74-.33,1.24,0.79-0.52.82-0.87-.56-1,.21-1.09,1.7,0.2,0.84,0.88,0.56,0.79-.16,1.31-2,1.7-.33,1.53,1L203,254.8l-1.46,2.28-1.74.33Z" fill="#1d2554"/><path d="M191.6,261.54l1-3.25,0.89,0.29-0.36,1.11,5.45,1.74,0.49-1.54-1.29-.41,0.27-.85,2.18,0.7-1.85,5.79-2.18-.7,0.27-.85,1.29,0.41,0.49-1.54-5.45-1.74-0.36,1.11Z" fill="#1d2554"/><path d="M195.75,276l-0.1-1,1-.11,0.65-.77-0.18-1.78-0.68-.54-1.14.12-0.52.63L195,275l-1.11,1.3-1.71.18-1.4-1.08-0.3-2.93,1.15-1.34,1.46-.15,0.1,1-1,.11-0.65.78,0.21,2,0.68,0.53,1-.11,0.51-.62-0.25-2.42,1.12-1.31,1.81-.19,1.4,1.08,0.28,2.7-1.15,1.34Z" fill="#1d2554"/><path d="M192.31,281.59l0.75-1.6,4.67-1.86,1.64,0.65,1.22,3.06-0.75,1.6-4.67,1.86-1.64-.65Zm1.1,0.05,0.88,2.2,0.8,0.34,4-1.61,0.35-.78-0.88-2.2-0.8-.34-4,1.61Z" fill="#1d2554"/><path d="M204.69,288l1.64,2-0.72.59-0.44-.54L201,293.5l-1.76-.13-2-2.46,0.23-1.75,4.17-3.4-0.44-.54,0.72-.59,1.64,2-0.72.59-0.52-.63-3.9,3.18-0.1.85,1.43,1.75,0.86,0.08,3.9-3.18-0.52-.63Z" fill="#1d2554"/><path d="M206.94,299.81l-2.82-1.92,0.53-.77,1,0.66,3.23-4.73-1.33-.91-0.76,1.12-0.73-.5,1.29-1.89,5,3.42L211,296.17l-0.73-.5,0.77-1.12-1.33-.91-3.23,4.73,1,0.66Z" fill="#1d2554"/><path d="M213.56,295l2.59,0.79-0.27.89-0.78-.24-0.7,2.29,3.44,1,0.7-2.29-0.78-.24,0.27-.89,2.59,0.79-0.27.89-0.78-.24-1.67,5.48,0.78,0.24-0.27.89-2.59-.79,0.27-.89,0.78,0.24,0.7-2.29-3.44-1-0.7,2.29,0.78,0.24-0.27.89-2.59-.79,0.27-.89,0.78,0.24,1.67-5.48-0.78-.24Z" fill="#1d2554"/><path d="M231.91,301.34l0.92-.15,0.24,1.45-1,1.46-2.91.48-1.41-1.07-0.81-5,1-1.46,2.91-.48,1.41,1.07,0.24,1.45-0.92.15-0.16-1-0.85-.63-2,.33-0.5.71,0.7,4.29,0.69,0.51,2-.33,0.61-.87Z" fill="#1d2554"/><path d="M233.69,295.9l5-2.35,1,2.08-0.85.39-0.57-1.23L235.8,296l1,2.17,2.48-1.15,0.39,0.85L237.2,299l1,2.17,2.48-1.15-0.57-1.23,0.85-.39,1,2.08-5,2.35-0.39-.85,0.74-.34-2.42-5.19-0.74.34Z" fill="#1d2554"/><path d="M246.41,296.14l0.6-.56,0.64,0.68-2,1.85-0.64-.68,0.6-.56-3.92-4.18-0.6.56-0.64-.68,1.77-1.66,6.9,2.37-3.77-4-0.6.56-0.64-.68,2-1.86,0.64,0.68-0.6.56,4.56,4.86-1.18,1.1-6.89-2.36Z" fill="#1d2554"/><path d="M255.75,285.78l-1.67,3-0.81-.46,0.57-1-5-2.81-0.79,1.41,1.18,0.67-0.44.77-2-1.12,3-5.29,2,1.12-0.44.77-1.18-.67-0.79,1.41,5,2.81,0.57-1Z" fill="#1d2554"/><path d="M250.31,279.6l1.07-4.55,1.53-.89,2.28,0.53,0.94,1.43,2-.65,0.14-.6,0.91,0.21-0.47,2-0.91-.21,0.08-.32-1.95.62-0.39,1.67,1.71,0.4,0.16-.68,0.91,0.21-0.59,2.53-0.91-.21,0.19-.8L251.4,279l-0.19.8Zm1.41-1.61,2.82,0.66,0.53-2.25-0.52-.82-1.48-.35-0.82.49Z" fill="#1d2554"/><path d="M259.17,266.9l-0.93.06-0.05-.77-1.41.6,0.19,2.92,1.48,0.41-0.05-.78,0.93-.06,0.16,2.47-0.93.06,0-.62-5.84-1.59,0,0.49-0.93.06L251.57,267l0.93-.06,0,0.5,5.58-2.35,0-.63,0.93-.06Zm-6.53,1.63,3.38,0.92-0.15-2.29Z" fill="#1d2554"/><path d="M251,263.79l-0.93-2.67,0.88-.31,0.31,0.88,5.41-1.88-0.83-2.41-1.28.44-0.29-.84,2.16-.75,1.75,5-0.88.31-0.27-.77-5.41,1.88,0.27,0.77Z" fill="#1d2554"/><path d="M221.56,272.72l-1.91-3.84,1.8-3,0.34,0.14a1.43,1.43,0,0,1,0,.7c-1.11,1.62-.77,3.18.1,4.76a3.42,3.42,0,0,1,.21,1Z" fill="#e63025" stroke="#e62f25" stroke-miterlimit="10" stroke-width="0.5"/><path d="M218.09,272.19c-2.64-3-1.92-4.62.7-6.66C217.77,267.66,216.88,269.81,218.09,272.19Z" fill="#e63025" stroke="#e62f25" stroke-miterlimit="10" stroke-width="0.5"/><path d="M227.74,265.34a1.31,1.31,0,0,1,.22.49c-0.58,1.87.16,3.35,1.28,4.77a4.63,4.63,0,0,1,.44,1.42C226.91,270.45,226,267.41,227.74,265.34Z" fill="#e63025" stroke="#e62f25" stroke-miterlimit="10" stroke-width="0.5"/><path d="M226,272.6c-3-1.78-3.37-5.17-.86-6.78l-0.8,3Z" fill="#e63025" stroke="#e62f25" stroke-miterlimit="10" stroke-width="0.5"/><path d="M230.66,264.15a2.34,2.34,0,0,1,.41.9c-0.46,2,.67,3.28,1.79,4.61a1.06,1.06,0,0,1,.17.38,1,1,0,0,1,0,.28C230.95,270.31,229.39,266.65,230.66,264.15Z" fill="#e63025" stroke="#e62f25" stroke-miterlimit="10" stroke-width="0.5"/><path d="M214.65,271.49c-1.94-2.61-1.64-4.94.8-6.3A8.09,8.09,0,0,0,214.65,271.49Z" fill="#e63025" stroke="#e62f25" stroke-miterlimit="10" stroke-width="0.5"/><path d="M234.08,290.11l0.46-4.93C236.38,287.23,237.17,288.12,234.08,290.11Z" fill="#e63025" stroke="#e62f25" stroke-miterlimit="10" stroke-width="0.5"/><path d="M220.51,286.59c1.14,1.53,3,2.6,3,4.88l-0.42.28L219.92,287Z" fill="#e63025" stroke="#e62f25" stroke-miterlimit="10" stroke-width="0.5"/><path d="M239.3,267.18c-2.84-1-3.36-3.21-4-5.36l0.37-.29a3.07,3.07,0,0,1,.87,1.15,3.74,3.74,0,0,0,2,3.14A4,4,0,0,1,239.3,267.18Z" fill="#e63025" stroke="#e62f25" stroke-miterlimit="10" stroke-width="0.5"/><path d="M231.17,285.57a5.56,5.56,0,0,0,.73,1c1.81,1.54,1.61,2.56-.73,3.94v-4.94Z" fill="#e63025" stroke="#e62f25" stroke-miterlimit="10" stroke-width="0.5"/><path d="M223.51,286.32c2.24,1.36,3.61,3.24,2.26,5.13Z" fill="#e63025" stroke="#e62f25" stroke-miterlimit="10" stroke-width="0.5"/><path d="M227.4,286l2.64,2.88-1.67,2Z" fill="#e63025" stroke="#e62f25" stroke-miterlimit="10" stroke-width="0.5"/><path d="M220.43,291.73a13.08,13.08,0,0,1-3.6-4.56C218.25,287.52,219.19,288.65,220.43,291.73Z" fill="#e63025" stroke="#e62f25" stroke-miterlimit="10" stroke-width="0.5"/><path d="M211.27,270.11c-1.74-2.78-1.06-3.88,1.75-5.88C212.22,266.26,210.44,267.78,211.27,270.11Z" fill="#e63025" stroke="#e62f25" stroke-miterlimit="10" stroke-width="0.5"/><path d="M237.89,259.89a11.19,11.19,0,0,0,1.11,2.74,13.2,13.2,0,0,0,2.34,1.94,0.79,0.79,0,0,1,0,.4,5.6,5.6,0,0,1-3.87-4.93Z" fill="#e63025" stroke="#e62f25" stroke-miterlimit="10" stroke-width="0.5"/><path d="M237.88,284.44c1.69,2.73,1.55,3.46-.66,4.7Z" fill="#e63025" stroke="#e62f25" stroke-miterlimit="10" stroke-width="0.5"/><path d="M205.73,266.92a4.43,4.43,0,0,1,2.59-5.14Z" fill="#e63025" stroke="#e62f25" stroke-miterlimit="10" stroke-width="0.5"/><path d="M210.3,263.3l-2,4.73C207.34,266.76,208.29,263.94,210.3,263.3Z" fill="#e63025" stroke="#e62f25" stroke-miterlimit="10" stroke-width="0.5"/><path d="M214.38,287.16l4.09,4.4-0.28.28a11,11,0,0,1-4.17-4.35Z" fill="#e63025" stroke="#e62f25" stroke-miterlimit="10" stroke-width="0.5"/><path d="M235.74,269.56L233,266.35a3.56,3.56,0,0,1,1.45.31c0.83,0.69,1.87,1.35,1.69,2.63Z" fill="#e63025" stroke="#e62f25" stroke-miterlimit="10" stroke-width="0.5"/><path d="M212,287.42l3.64,4C214.89,291.5,212.33,289.18,212,287.42Z" fill="#e63025" stroke="#e62f25" stroke-miterlimit="10" stroke-width="0.5"/><path d="M204.27,264.67c-0.29-2.15.88-3.33,2.63-4.18Z" fill="#e63025" stroke="#e62f25" stroke-miterlimit="10" stroke-width="0.5"/><path d="M203.55,262.81c0-2.07,1.24-3.38,2.59-4.62l0.32,0.26a19.81,19.81,0,0,0-1.66,1.94A23.46,23.46,0,0,0,203.55,262.81Z" fill="#e63025" stroke="#e62f25" stroke-miterlimit="10" stroke-width="0.5"/><path d="M241.3,284.31a18.91,18.91,0,0,1,.64,2.07,0.57,0.57,0,1,1-1.12.13,19.32,19.32,0,0,1,0-2.14Z" fill="#e63025" stroke="#e62f25" stroke-miterlimit="10" stroke-width="0.5"/><path d="M242,287.75l1.4-3.68C244.34,285.42,244,286.29,242,287.75Z" fill="#e63025" stroke="#e62f25" stroke-miterlimit="10" stroke-width="0.5"/><path d="M242.71,262.77l-2.47-1.66a2,2,0,0,1,2.74,1.3Z" fill="#e63025" stroke="#e62f25" stroke-miterlimit="10" stroke-width="0.5"/><path d="M241.79,258.27c1,0.34,2.14.55,2.61,1.72l-0.23.36-2.62-1.66Z" fill="#e63025" stroke="#e62f25" stroke-miterlimit="10" stroke-width="0.5"/><path d="M238.83,257.48c1.13,0.5,1.31,1.6,1.26,2.85l-1.71-2.53Z" fill="#e63025" stroke="#e62f25" stroke-miterlimit="10" stroke-width="0.5"/><path d="M241.11,258.08l-1.66-2.29,0.34-.27c1.15,0.29,1.37,1.35,1.66,2.34Z" fill="#e63025" stroke="#e62f25" stroke-miterlimit="10" stroke-width="0.5"/><path d="M233.93,263.52l0.2,2.32-0.67.06-0.26-2.3Z" fill="#e63025" stroke="#e62f25" stroke-miterlimit="10" stroke-width="0.5"/><path d="M212.2,290.32l-2.16-2,0.44-.47,2,2.2Z" fill="#e63025" stroke="#e62f25" stroke-miterlimit="10" stroke-width="0.5"/><text transform="translate(287.63 175.7)" font-size="22.16" fill="#1d2554" stroke="#1d2554" stroke-miterlimit="10" font-family="Graduate">20</text><text transform="translate(315.1 168.32) scale(0.58)" font-size="22.16" fill="#1d2554" stroke="#1d2554" stroke-miterlimit="10" font-family="Graduate">%</text><text transform="translate(39.76 193.11)" font-size="20.8" fill="#1d2554" stroke="#1d2554" stroke-miterlimit="10" font-family="Graduate">18</text><text transform="translate(65.55 186.19) scale(0.58)" font-size="20.8" fill="#1d2554" stroke="#1d2554" stroke-miterlimit="10" font-family="Graduate">%</text><path d="M143.3,244.94v13.93h3.12v1.66h-8.15v-1.66h3.12V247L138,248.64,137.18,247l4.2-2.08h1.91Z" fill="#1d2554" stroke="#1d2554" stroke-miterlimit="10"/><path d="M149.93,258.25v-11l2.16-2.29h4.82l2.16,2.29v2.62h-1.73V248l-1.25-1.29h-3.18l-1.18,1.21v3.6h5.66l2.1,2.21v4.51l-2.16,2.29H152.1Zm1.81-5.05v4.35l1.18,1.21h3.6l1.06-1.1v-3.31l-1.12-1.14h-4.72Z" fill="#1d2554" stroke="#1d2554" stroke-miterlimit="10"/><path d="M162.38,250l-0.79-.84v-3.81l0.79-.84h2.09l0.78,0.84v3.81l-0.78.84h-2.09Zm0.36-.82h1.36l0.33-.33v-3.18l-0.33-.33h-1.36l-0.33.33v3.18Zm1.38,4.86,3.7-9.93h0.93l-3.7,9.93h-0.93Zm4.3-.42-0.79-.84V249l0.79-.84h2.08L171.3,249v3.81l-0.78.84h-2.08Zm0.36-.82h1.36l0.33-.33v-3.18l-0.33-.33H168.8l-0.33.33v3.18Z" fill="#1d2554" stroke="#1d2554" stroke-miterlimit="10"/><text transform="translate(207.2 284.01)" font-size="22" fill="#1d2554" stroke="#1d2554" stroke-miterlimit="10" font-family="Graduate">12</text><text transform="translate(234.48 276.68) scale(0.58)" font-size="22" fill="#1d2554" stroke="#1d2554" stroke-miterlimit="10" font-family="Graduate">%</text><text transform="translate(255.8 248.25)" font-size="22" fill="#1d2554" stroke="#1d2554" stroke-miterlimit="10" font-family="Graduate">12</text><text transform="translate(283.08 240.92) scale(0.58)" font-size="22" fill="#1d2554" stroke="#1d2554" stroke-miterlimit="10" font-family="Graduate">%</text><text transform="translate(47.36 98.29)" font-size="20.8" fill="#1d2554" stroke="#1d2554" stroke-miterlimit="10" font-family="Graduate">15</text><text transform="translate(73.15 91.36) scale(0.58)" font-size="20.8" fill="#1d2554" stroke="#1d2554" stroke-miterlimit="10" font-family="Graduate">%</text><circle cx="254.7" cy="51.81" r="36.15" fill="#eddb11"/><g id="_3Q2XDc-4" data-name="3Q2XDc"><path d="M250,53.63l-2.85-5.73,2.69-4.45,0.51,0.2a2.13,2.13,0,0,1,0,1c-1.66,2.42-1.16,4.75.16,7.11a5.11,5.11,0,0,1,.31,1.56Z" fill="#e63025" stroke="#e62f25" stroke-miterlimit="10"/><path d="M244.86,52.84c-3.94-4.48-2.86-6.91,1-10C244.39,46.07,243.05,49.28,244.86,52.84Z" fill="#e63025" stroke="#e62f25" stroke-miterlimit="10"/><path d="M259.28,42.61a2,2,0,0,1,.33.73c-0.86,2.79.23,5,1.91,7.13a6.92,6.92,0,0,1,.65,2.12C258,50.25,256.75,45.7,259.28,42.61Z" fill="#e63025" stroke="#e62f25" stroke-miterlimit="10"/><path d="M256.68,53.45c-4.41-2.65-5-7.72-1.28-10.13l-1.19,4.53Z" fill="#e63025" stroke="#e62f25" stroke-miterlimit="10"/><path d="M263.65,40.82a3.49,3.49,0,0,1,.62,1.34c-0.69,2.93,1,4.89,2.67,6.89a1.59,1.59,0,0,1,.25.57,1.52,1.52,0,0,1,0,.41C264.08,50,261.76,44.56,263.65,40.82Z" fill="#e63025" stroke="#e62f25" stroke-miterlimit="10"/><path d="M239.73,51.8c-2.91-3.9-2.46-7.38,1.19-9.41A12.08,12.08,0,0,0,239.73,51.8Z" fill="#e63025" stroke="#e62f25" stroke-miterlimit="10"/><path d="M268.75,79.61l0.69-7.37C272.19,75.31,273.38,76.65,268.75,79.61Z" fill="#e63025" stroke="#e62f25" stroke-miterlimit="10"/><path d="M248.48,74.36c1.7,2.29,4.52,3.88,4.46,7.29l-0.63.41L247.61,75Z" fill="#e63025" stroke="#e62f25" stroke-miterlimit="10"/><path d="M276.56,45.36c-4.25-1.44-5-4.8-6-8l0.56-.43c0.46,0.57,1.25,1.11,1.3,1.72a5.58,5.58,0,0,0,3,4.69C275.88,43.6,276.05,44.43,276.56,45.36Z" fill="#e63025" stroke="#e62f25" stroke-miterlimit="10"/><path d="M264.41,72.83a8.31,8.31,0,0,0,1.1,1.49c2.7,2.3,2.4,3.82-1.1,5.89V72.83Z" fill="#e63025" stroke="#e62f25" stroke-miterlimit="10"/><path d="M253,74c3.35,2,5.39,4.84,3.37,7.67Z" fill="#e63025" stroke="#e62f25" stroke-miterlimit="10"/><path d="M258.78,73.48l3.94,4.3-2.49,3Z" fill="#e63025" stroke="#e62f25" stroke-miterlimit="10"/><path d="M248.36,82A19.55,19.55,0,0,1,243,75.23C245.1,75.75,246.51,77.44,248.36,82Z" fill="#e63025" stroke="#e62f25" stroke-miterlimit="10"/><path d="M234.67,49.73c-2.6-4.16-1.59-5.79,2.62-8.78C236.1,44,233.44,46.26,234.67,49.73Z" fill="#e63025" stroke="#e62f25" stroke-miterlimit="10"/><path d="M274.45,34.46c0.53,1.38.8,2.95,1.65,4.09s2.32,1.93,3.5,2.9a1.18,1.18,0,0,1,.06.6c-3.42-1.27-5.8-4.31-5.78-7.36Z" fill="#e63025" stroke="#e62f25" stroke-miterlimit="10"/><path d="M274.43,71.14c2.52,4.08,2.32,5.18-1,7Z" fill="#e63025" stroke="#e62f25" stroke-miterlimit="10"/><path d="M226.39,45a6.62,6.62,0,0,1,3.87-7.68Z" fill="#e63025" stroke="#e62f25" stroke-miterlimit="10"/><path d="M233.23,39.56l-3,7.07C228.8,44.72,230.22,40.52,233.23,39.56Z" fill="#e63025" stroke="#e62f25" stroke-miterlimit="10"/><path d="M239.32,75.21l6.1,6.58-0.42.42a16.51,16.51,0,0,1-6.24-6.5Z" fill="#e63025" stroke="#e62f25" stroke-miterlimit="10"/><path d="M271.23,48.91l-4-4.79a5.32,5.32,0,0,1,2.17.46c1.24,1,2.79,2,2.53,3.93Z" fill="#e63025" stroke="#e62f25" stroke-miterlimit="10"/><path d="M235.7,75.59l5.44,6C240.09,81.69,236.26,78.23,235.7,75.59Z" fill="#e63025" stroke="#e62f25" stroke-miterlimit="10"/><path d="M224.22,41.61c-0.43-3.21,1.32-5,3.93-6.25Z" fill="#e63025" stroke="#e62f25" stroke-miterlimit="10"/><path d="M223.14,38.82c0-3.1,1.85-5,3.87-6.9l0.48,0.39A29.59,29.59,0,0,0,225,35.22,35.05,35.05,0,0,0,223.14,38.82Z" fill="#e63025" stroke="#e62f25" stroke-miterlimit="10"/><path d="M279.55,71a28.25,28.25,0,0,1,1,3.09,0.85,0.85,0,1,1-1.68.2,28.87,28.87,0,0,1,0-3.2Z" fill="#e63025" stroke="#e62f25" stroke-miterlimit="10"/><path d="M280.65,76.09l2.09-5.49C284.08,72.61,283.64,73.91,280.65,76.09Z" fill="#e63025" stroke="#e62f25" stroke-miterlimit="10"/><path d="M281.66,38.77L278,36.3a3.06,3.06,0,0,1,4.09,1.94Z" fill="#e63025" stroke="#e62f25" stroke-miterlimit="10"/><path d="M280.27,32c1.53,0.51,3.19.82,3.9,2.57l-0.34.54-3.92-2.48Z" fill="#e63025" stroke="#e62f25" stroke-miterlimit="10"/><path d="M275.85,30.87c1.69,0.74,2,2.39,1.88,4.26l-2.56-3.78Z" fill="#e63025" stroke="#e62f25" stroke-miterlimit="10"/><path d="M279.27,31.76l-2.48-3.43,0.51-.4c1.72,0.44,2,2,2.48,3.49Z" fill="#e63025" stroke="#e62f25" stroke-miterlimit="10"/><path d="M268.53,39.88l0.3,3.46-1,.09L267.43,40Z" fill="#e63025" stroke="#e62f25" stroke-miterlimit="10"/><path d="M236.07,79.93L232.85,77l0.66-.7,3,3.29Z" fill="#e63025" stroke="#e62f25" stroke-miterlimit="10"/></g><text transform="translate(238.32 70.58)" font-size="20.8" fill="#1d2554" stroke="#1d2554" stroke-miterlimit="10" font-family="Graduate">16</text><text transform="translate(264.11 63.65) scale(0.58)" font-size="20.8" fill="#1d2554" stroke="#1d2554" stroke-miterlimit="10" font-family="Graduate">%</text><text transform="translate(91.73 64.67)" font-size="20.8" fill="#1d2554" stroke="#1d2554" stroke-miterlimit="10" font-family="Graduate">16</text><text transform="translate(117.52 57.74) scale(0.58)" font-size="20.8" fill="#1d2554" stroke="#1d2554" stroke-miterlimit="10" font-family="Graduate">%</text><text transform="translate(87.71 106.39)" font-size="14" fill="#4167b1" font-family="Graduate">Percen<tspan x="56.1" y="0">t</tspan><tspan x="63.66" y="0">age of people </tspan><tspan x="12.75" y="16.8">aged 15 years and </tspan><tspan x="7.43" y="33.6">older who engaged </tspan><tspan x="7.19" y="50.4">in sports excersise </tspan><tspan x="20.89" y="67.2">activities on an </tspan><tspan x="26.14" y="84">a</tspan><tspan x="34.36" y="84">verage d</tspan><tspan x="104.01" y="84">a</tspan><tspan x="112.23" y="84">y by </tspan><tspan x="16.25" y="100.8">region in the U.S.</tspan></text><circle cx="74.18" cy="266.36" r="45.18" fill="#eddb11" stroke="#cbe3ee"/><path d="M33.07,285.74l-0.3-.71,0.81-.34,1,2.35-0.81.34-0.3-.71-5,2.08,0.3,0.71L28,289.8l-0.88-2.11,4.37-5.3-4.79,2L27,285.1l-0.81.34-1-2.36,0.81-.34,0.3,0.71L32.06,281l0.58,1.4-4.36,5.3Z" fill="#1d2554"/><path d="M24.48,280.65l-1.17-5.1,2.1-.48,0.2,0.86-1.24.29,0.58,2.51,2.2-.5-0.58-2.51,0.86-.2L28,278l2.2-.5L29.62,275l-1.24.29-0.2-.86,2.1-.48,1.17,5.1-0.86.2-0.17-.75-5.25,1.21,0.17,0.75Z" fill="#1d2554"/><path d="M23.65,273.46l-0.88,0-0.08-2.33,0.88,0,0,0.77,5.17-1.72-5.27-1.39v0.44l-0.88,0-0.08-2.37,0.88,0v0.44l5.17-1.72-5.27-1.39,0,0.77-0.88,0-0.08-2.33,0.88,0,0,0.55,6.33,1.67,0,1.35L24.21,268l5.58,1.47,0,1.35-6.21,2.07Z" fill="#1d2554"/><path d="M23.46,256.32l1.25-5.08,2.09,0.52-0.21.85-1.24-.31-0.62,2.5,2.19,0.54,0.62-2.5,0.85,0.21-0.62,2.5L30,256.09l0.62-2.5-1.24-.31,0.21-.85,2.09,0.52L30.4,258l-0.85-.21,0.18-.75-5.23-1.29-0.18.75Z" fill="#1d2554"/><path d="M31.94,249.58l0.31-.71,0.81,0.35-1,2.34-0.81-.35,0.31-.71-4.94-2.16-0.31.71-0.81-.35,0.92-2.1,6.85-.51L28.49,244l-0.31.71-0.81-.35,1-2.34,0.81,0.35-0.31.71,5.75,2.51L34,247l-6.84.52Z" fill="#1d2554"/><path d="M35.67,238.64l-0.83,1.27-0.74-.48,1.31-2,2.07,1.35,0.39,1.62-1.58,2.41-1.64.3-4-2.59-0.39-1.62,1.58-2.41,1.64-.29,1.16,0.76-0.48.74-0.78-.51-1,.19L31.35,239l0.17,0.8,3.42,2.24,0.79-.15,1.1-1.69-0.21-1Z" fill="#1d2554"/><path d="M34,233.68l1.75-2,0.66,0.58-0.58.66,4.07,3.54,1.57-1.81-1-.84,0.55-.63,1.63,1.41-3.29,3.79-0.66-.58,0.5-.58-4.07-3.54-0.5.58Z" fill="#1d2554"/><path d="M46.15,231.47l-0.58-.67,0.55-.48-1.25-.72-2.08,1.8,0.54,1.34,0.56-.48,0.58,0.66-1.76,1.53-0.58-.66,0.44-.38-2.13-5.29-0.35.3-0.58-.67,2.22-1.92,0.58,0.67-0.36.31,4.94,2.85,0.45-.39,0.58,0.66Zm-4.93-4,1.23,3.06,1.63-1.41Z" fill="#1d2554"/><path d="M49.56,227.83l0.66-.4,0.46,0.75-2.18,1.32L48,228.75l0.66-.4-2.79-4.61-0.66.4-0.46-.75,2-1.18,5.89,3.54L50,221.29l-0.66.4-0.46-.75L51,219.62l0.46,0.75-0.66.4,3.24,5.37-1.3.79-5.88-3.53Z" fill="#1d2554"/><path d="M53.36,218.55l4.37-1.69,1.5,0.72,1.7,4.41-0.63,1.54-4.37,1.69-0.32-.82,0.72-.28-1.94-5-0.72.28Zm3.89,5.15,2.3-.89,0.32-.75-1.47-3.82-0.73-.34-2.31.89Z" fill="#1d2554"/><path d="M68.37,268.64l-3.57-7.17,3.36-5.56,0.63,0.25a2.66,2.66,0,0,1,0,1.3c-2.07,3-1.45,5.94.19,8.89a6.38,6.38,0,0,1,.38,1.95Z" fill="#e63025" stroke="#e62f25" stroke-miterlimit="10"/><path d="M61.89,267.65C57,262,58.31,259,63.2,255.21,61.31,259.19,59.63,263.2,61.89,267.65Z" fill="#e63025" stroke="#e62f25" stroke-miterlimit="10"/><path d="M79.91,254.86a2.44,2.44,0,0,1,.42.91c-1.08,3.48.29,6.26,2.39,8.91a8.65,8.65,0,0,1,.81,2.65C78.37,264.41,76.76,258.71,79.91,254.86Z" fill="#e63025" stroke="#e62f25" stroke-miterlimit="10"/><path d="M76.66,268.41c-5.52-3.32-6.3-9.65-1.6-12.66l-1.49,5.66Z" fill="#e63025" stroke="#e62f25" stroke-miterlimit="10"/><path d="M85.38,252.63c0.39,0.81.86,1.31,0.77,1.68-0.86,3.66,1.26,6.12,3.34,8.61a2,2,0,0,1,.32.72,1.91,1.91,0,0,1,0,.52C85.91,264.13,83,257.3,85.38,252.63Z" fill="#e63025" stroke="#e62f25" stroke-miterlimit="10"/><path d="M55.47,266.34c-3.63-4.88-3.07-9.22,1.49-11.76A15.1,15.1,0,0,0,55.47,266.34Z" fill="#e63025" stroke="#e62f25" stroke-miterlimit="10"/><path d="M91.76,301.11l0.86-9.21C96.05,295.74,97.54,297.4,91.76,301.11Z" fill="#e63025" stroke="#e62f25" stroke-miterlimit="10"/><path d="M66.41,294.55c2.13,2.87,5.65,4.85,5.58,9.12l-0.78.52-5.88-8.86Z" fill="#e63025" stroke="#e62f25" stroke-miterlimit="10"/><path d="M101.51,258.29c-5.31-1.81-6.27-6-7.51-10l0.69-.54c0.57,0.71,1.56,1.39,1.63,2.15a7,7,0,0,0,3.74,5.86C100.67,256.09,100.88,257.13,101.51,258.29Z" fill="#e63025" stroke="#e62f25" stroke-miterlimit="10"/><path d="M86.32,292.64a10.38,10.38,0,0,0,1.37,1.87c3.37,2.87,3,4.78-1.37,7.36v-9.23Z" fill="#e63025" stroke="#e62f25" stroke-miterlimit="10"/><path d="M72,294c4.18,2.55,6.74,6,4.21,9.58Z" fill="#e63025" stroke="#e62f25" stroke-miterlimit="10"/><path d="M79.28,293.44l4.93,5.38-3.11,3.7Z" fill="#e63025" stroke="#e62f25" stroke-miterlimit="10"/><path d="M66.26,304.14a24.44,24.44,0,0,1-6.72-8.51C62.19,296.28,63.95,298.39,66.26,304.14Z" fill="#e63025" stroke="#e62f25" stroke-miterlimit="10"/><path d="M49.15,263.76c-3.25-5.2-2-7.24,3.27-11C50.94,256.57,47.61,259.42,49.15,263.76Z" fill="#e63025" stroke="#e62f25" stroke-miterlimit="10"/><path d="M98.88,244.68c0.66,1.73,1,3.69,2.06,5.11s2.91,2.42,4.37,3.63a1.48,1.48,0,0,1,.08.75c-4.27-1.59-7.24-5.38-7.23-9.2Z" fill="#e63025" stroke="#e62f25" stroke-miterlimit="10"/><path d="M98.85,290.52c3.15,5.1,2.9,6.47-1.23,8.78Z" fill="#e63025" stroke="#e62f25" stroke-miterlimit="10"/><path d="M38.81,257.8c-0.76-4.44,1-7.72,4.84-9.6Z" fill="#e63025" stroke="#e62f25" stroke-miterlimit="10"/><path d="M47.35,251l-3.79,8.84C41.82,257.5,43.59,252.25,47.35,251Z" fill="#e63025" stroke="#e62f25" stroke-miterlimit="10"/><path d="M55,295.61l7.63,8.22-0.53.52a20.63,20.63,0,0,1-7.8-8.13Z" fill="#e63025" stroke="#e62f25" stroke-miterlimit="10"/><path d="M94.85,262.73l-5-6c1,0.19,2.11.08,2.71,0.57,1.55,1.29,3.49,2.53,3.16,4.91Z" fill="#e63025" stroke="#e62f25" stroke-miterlimit="10"/><path d="M50.44,296.08l6.8,7.53C55.92,303.7,51.13,299.38,50.44,296.08Z" fill="#e63025" stroke="#e62f25" stroke-miterlimit="10"/><path d="M36.09,253.61c-0.54-4,1.65-6.21,4.91-7.81Z" fill="#e63025" stroke="#e62f25" stroke-miterlimit="10"/><path d="M34.74,250.13c0-3.87,2.31-6.31,4.84-8.63l0.6,0.49a37,37,0,0,0-3.1,3.63A43.82,43.82,0,0,0,34.74,250.13Z" fill="#e63025" stroke="#e62f25" stroke-miterlimit="10"/><path d="M105.25,290.29a35.31,35.31,0,0,1,1.19,3.87c0.07,0.36-.6.86-0.92,1.3a3,3,0,0,1-1.17-1,36.08,36.08,0,0,1-.06-4Z" fill="#e63025" stroke="#e62f25" stroke-miterlimit="10"/><path d="M106.63,296.71l2.61-6.87C110.92,292.36,110.36,294,106.63,296.71Z" fill="#e63025" stroke="#e62f25" stroke-miterlimit="10"/><path d="M107.89,250.06l-4.61-3.1c2.77-.76,4.23.4,5.12,2.43Z" fill="#e63025" stroke="#e62f25" stroke-miterlimit="10"/><path d="M106.16,241.65c1.91,0.64,4,1,4.87,3.21l-0.43.67-4.9-3.11Z" fill="#e63025" stroke="#e62f25" stroke-miterlimit="10"/><path d="M100.63,240.18c2.12,0.93,2.44,3,2.36,5.32l-3.2-4.72Z" fill="#e63025" stroke="#e62f25" stroke-miterlimit="10"/><path d="M104.9,241.29L101.8,237l0.64-.5c2.15,0.55,2.56,2.51,3.11,4.36Z" fill="#e63025" stroke="#e62f25" stroke-miterlimit="10"/><path d="M91.48,251.45l0.38,4.33-1.26.11-0.49-4.3Z" fill="#e63025" stroke="#e62f25" stroke-miterlimit="10"/><path d="M50.91,301.5l-4-3.67,0.83-.87,3.69,4.11Z" fill="#e63025" stroke="#e62f25" stroke-miterlimit="10"/><text transform="translate(61.81 286.48)" font-size="20.8" fill="#1d2554" stroke="#1d2554" stroke-miterlimit="10" font-family="Graduate">18</text><text transform="translate(87.6 279.55) scale(0.58)" font-size="20.8" fill="#1d2554" stroke="#1d2554" stroke-miterlimit="10" font-family="Graduate">%</text></svg>