<svg id="Layer_1" data-name="Layer 1" xmlns="http://www.w3.org/2000/svg" viewBox="0 0 388.07 191.17"><title>pie-chart</title><rect y="45.93" width="388.07" height="122.61" rx="12" ry="12" fill="#fff"/><rect x="310.92" y="43.14" width="23.45" height="18.76" fill="#e62f25"/><path d="M275.13,99.61L229.79,51a65,65,0,0,1,45.34-17.86V99.61Z" fill="#e62f25"/><rect x="205.34" y="61.51" width="23.45" height="18.76" fill="#4167b1"/><path d="M275.09,98.83l-85.7,9c-2.93-27.83,6.46-52.95,26.93-72Z" fill="#4167b1"/><rect x="287.13" y="145.54" width="23.45" height="18.76" fill="#cc2036"/><path d="M274.93,99.83l74.77,10.51c-5,35.6-32.38,61.58-68.19,64.71Z" fill="#cc2036"/><polygon points="266 106.19 229.91 110.31 241.2 121.67 266.98 128.59 266 106.19" fill="#fff"/><path d="M275.17,99.58l7.94,90.75c-49.12,4.3-93.39-32.19-98.54-81.23Z" fill="#fff" stroke="#cbe3ee" stroke-miterlimit="10"/><rect x="298.49" y="43.37" width="23.45" height="18.76" fill="#f15623"/><path d="M275,100.08L274.76,0C339.15,0,374,56.08,374,114.16Z" fill="#f15623"/><text transform="translate(232.91 60.46)" font-size="13.5" fill="#fff" font-family="Graduate">Softball</text><text transform="translate(187.84 94.7)" font-size="14" fill="#fff" font-family="Graduate">Basketball</text><text transform="translate(278.93 133.77)" font-size="17" fill="#fff" font-family="Graduate">Soccer</text><text transform="translate(192.85 141.58)" font-size="17" fill="#cc2036" font-family="Graduate">Baseball</text><text transform="translate(279.58 79.98)" font-size="17" fill="#fff" font-family="Graduate">Football</text><text transform="translate(6.95 70.57)" font-size="12.44" fill="#4167b1" font-family="Graduate">A recent survey found <tspan x="33.74" y="14.92">the percen</tspan><tspan x="112.9" y="14.92">t</tspan><tspan x="119.61" y="14.92">age of </tspan><tspan x="9.9" y="29.85">young </tspan><tspan x="56.9" y="29.85">a</tspan><tspan x="64.57" y="29.85">theletes th</tspan><tspan x="148.36" y="29.85">a</tspan><tspan x="156.04" y="29.85">t </tspan><tspan x="30.44" y="44.77">h</tspan><tspan x="40.29" y="44.77">a</tspan><tspan x="47.59" y="44.77">ve been injured </tspan><tspan x="21.49" y="59.69">while pl</tspan><tspan x="82.82" y="59.69">a</tspan><tspan x="90.13" y="59.69">ying their </tspan><tspan x="36.49" y="74.62">respective sports</tspan></text></svg>