<?xml version="1.0" encoding="utf-8"?>
<!-- Generator: Adobe Illustrator 19.2.1, SVG Export Plug-In . SVG Version: 6.00 Build 0)  -->
<svg version="1.1" id="Layer_1" xmlns="http://www.w3.org/2000/svg" xmlns:xlink="http://www.w3.org/1999/xlink" x="0px" y="0px"
	 viewBox="0 0 328.2 92" style="enable-background:new 0 0 328.2 92;" xml:space="preserve">
<style type="text/css">
	.st0{fill:#F1FAFE;}
	.st1{fill:#CC2036;}
	.st2{font-family:'Graduate-Regular';}
	.st3{font-size:46px;}
	.st4{fill:none;stroke:#CC2036;stroke-miterlimit:10;}
</style>
<title>prevention</title>
<polygon class="st0" points="187.5,32.9 203,29.1 190.2,19.6 205.8,23 198.4,8.9 210.9,18.6 210.4,2.7 217.5,17 223.9,2.4 
	224.1,18.3 236.2,8 229.5,22.4 244.9,18.4 232.5,28.4 248.2,31.4 232.7,35.2 245.5,44.7 229.9,41.3 237.3,55.4 224.7,45.7 
	225.3,61.6 218.2,47.3 211.8,61.9 211.6,46 199.5,56.3 206.2,41.9 190.8,46 203.1,35.9 "/>
<polygon class="st0" points="69.9,54.7 89.5,50.4 73.7,38.1 93.2,42.8 84.3,24.8 99.9,37.5 99.7,17.4 108.2,35.5 116.7,17.4 
	116.5,37.5 132,24.8 123.1,42.8 142.7,38.1 126.8,50.4 146.5,54.7 126.8,59 142.7,71.3 123.1,66.6 132,84.6 116.5,71.9 116.7,92 
	108.2,73.8 99.7,92 99.9,71.9 84.3,84.6 93.2,66.6 73.7,71.3 89.5,59 "/>
<polygon class="st0" points="117,26.6 131,23.6 119.7,14.8 133.6,18.1 127.3,5.3 138.4,14.3 138.2,0 144.3,13 150.4,0 150.2,14.3 
	161.4,5.3 155,18.1 168.9,14.8 157.6,23.6 171.6,26.6 157.6,29.7 168.9,38.5 155,35.2 161.4,48 150.2,39 150.4,53.3 144.3,40.3 
	138.2,53.3 138.4,39 127.3,48 133.6,35.2 119.7,38.5 131,29.7 "/>
<polygon class="st0" points="0,39.1 19.8,34.8 3.8,22.4 23.5,27.1 14.5,9 30.2,21.8 30,1.6 38.5,19.9 47.1,1.6 46.9,21.8 62.6,9 
	53.6,27.1 73.3,22.4 57.3,34.8 77.1,39.1 57.3,43.4 73.3,55.8 53.6,51.1 62.6,69.2 46.9,56.5 47.1,76.7 38.5,58.4 30,76.7 
	30.2,56.5 14.5,69.2 23.5,51.1 3.8,55.8 19.8,43.4 "/>
<text transform="matrix(1 0 0 1 27.4 58.97)" class="st1 st2 st3">Prevention</text>
<text transform="matrix(1 0 0 1 27.4 58.97)" class="st4 st2 st3">Prevention</text>
</svg>
