<svg id="Layer_1" data-name="Layer 1" xmlns="http://www.w3.org/2000/svg" viewBox="0 0 310.13 92.02"><title>prevention</title><polygon points="187.5 32.86 202.97 29.12 190.2 19.63 205.76 22.97 198.37 8.88 210.94 18.64 210.39 2.73 217.48 16.98 223.89 2.42 224.1 18.33 236.19 7.99 229.47 22.41 244.86 18.35 232.54 28.43 248.17 31.44 232.7 35.18 245.47 44.67 229.92 41.33 237.31 55.42 224.74 45.66 225.28 61.56 218.19 47.32 211.78 61.88 211.58 45.97 199.48 56.31 206.2 41.88 190.82 45.95 203.13 35.87 187.5 32.86" fill="#f1fafe"/><polygon points="69.89 54.7 89.51 50.44 73.68 38.09 93.21 42.76 84.31 24.77 99.87 37.45 99.66 17.37 108.17 35.55 116.69 17.37 116.48 37.45 132.04 24.77 123.14 42.76 142.67 38.09 126.84 50.44 146.46 54.7 126.84 58.95 142.67 71.31 123.14 66.63 132.04 84.63 116.48 71.94 116.69 92.02 108.17 73.84 99.66 92.02 99.87 71.94 84.31 84.63 93.21 66.63 73.68 71.31 89.51 58.95 69.89 54.7" fill="#f1fafe"/><polygon points="117 26.64 131 23.6 119.7 14.79 133.64 18.12 127.28 5.28 138.4 14.33 138.24 0 144.32 12.98 150.41 0 150.25 14.33 161.36 5.28 155.01 18.12 168.95 14.79 157.65 23.6 171.65 26.64 157.65 29.68 168.95 38.5 155.01 35.16 161.36 48.01 150.25 38.95 150.41 53.29 144.32 40.31 138.24 53.29 138.4 38.95 127.28 48.01 133.64 35.16 119.7 38.5 131 29.68 117 26.64" fill="#f1fafe"/><polygon points="0 39.13 19.75 34.84 3.82 22.41 23.47 27.11 14.51 9 30.18 21.77 29.96 1.56 38.54 19.86 47.11 1.56 46.9 21.77 62.56 9 53.6 27.11 73.26 22.41 57.32 34.84 77.07 39.13 57.32 43.41 73.26 55.85 53.6 51.14 62.56 69.25 46.9 56.49 47.11 76.69 38.54 58.39 29.96 76.69 30.18 56.49 14.51 69.25 23.47 51.14 3.82 55.85 19.75 43.41 0 39.13" fill="#f1fafe"/><text transform="translate(27.4 58.97)" font-size="46" fill="#cc2036" stroke="#cc2036" stroke-miterlimit="10" font-family="Graduate" letter-spacing="-1">Prevention</text></svg>