<svg id="Layer_1" data-name="Layer 1" xmlns="http://www.w3.org/2000/svg" viewBox="0 0 271.49 88.62"><title>62%</title><rect x="6.74" y="8.01" width="264.76" height="80.6" rx="12" ry="12" fill="#fff"/><path d="M54.88,27.09v8h-7V30.16L43.8,26H30.63l-4.12,4.12V41.48H49l6.47,6.31V67.27L47,75.67H28l-8.41-8.41V27.09l8-8H47ZM26.51,48V64.36l4.37,4.37H44.13l4.29-4.37V51L45.5,48h-19Z" fill="#fff" stroke="#f15623" stroke-miterlimit="10" stroke-width="2"/><path d="M98.29,44l-6.55,6.55H72.66l-3,3v15.2H91.58V61h7V75.67H62.72V50.29L69.11,44H88.26l3-2.91V30.16l-4-4H74.28l-4,4v5h-7V27.09l8-8H90.29l8,8V44Z" fill="#fff" stroke="#f15623" stroke-miterlimit="10" stroke-width="2"/><path d="M116.48,28.16l-2.69,2.69H107.1l-2.73-2.69v-9.9l2.55-2.5H114l2.5,2.5v9.9Zm-8.34-9.66L107,19.58v7.35l1.27,1.23h4.24l1.27-1.23V19.58l-1.08-1.08h-4.57Zm2.59,30.26h-2.88l18.66-33h2.88Zm22.43-2.69-2.73,2.69h-6.65L121.05,46V36.17l2.5-2.5h7.07l2.55,2.5v9.9Zm-8.34-9.71-1.13,1.13V44.8L125,46.07h4.24l1.27-1.27V37.49l-1.08-1.13h-4.57Z" fill="#fff" stroke="#f15623" stroke-miterlimit="10"/><text transform="translate(140.34 29.32)" font-size="12.44" fill="#1d2554" font-family="Open Sans">of organized sports <tspan x="0" y="14.92">related injuries occur </tspan><tspan x="0" y="29.85">during practices </tspan><tspan x="0" y="44.77">rather than games</tspan></text><text transform="translate(29.09 13.29)" font-size="15.05" fill="#4167b1" stroke="#4167b1" stroke-miterlimit="10" font-family="Octin Sports">pr<tspan x="17.74" y="0">a</tspan><tspan x="26.9" y="0">ctice</tspan></text><text transform="translate(13.29 63.68) rotate(-90)" font-size="15.05" fill="#4167b1" stroke="#4167b1" stroke-miterlimit="10" font-family="Octin Sports">pl<tspan x="17.15" y="0" letter-spacing="-1">a</tspan><tspan x="25.31" y="0">y</tspan></text><text transform="translate(11.16 27.63) rotate(-45)" font-size="16.58" fill="#4167b1" stroke="#4167b1" stroke-miterlimit="10" font-family="Octin Sports">v<tspan x="10.09" y="0">s</tspan><tspan x="18.23" y="0">.</tspan></text></svg>