<svg id="Layer_1" data-name="Layer 1" xmlns="http://www.w3.org/2000/svg" viewBox="0 0 371.72 106.05"><title>sport-by-sport-01</title><rect y="23.36" width="371.72" height="82.69" rx="12" ry="12" fill="#fff"/><path d="M10.2,91.63c0.48,5.33-.14,5.49,5,6.17h-5V91.63C10.26,92.3,10.2,93.69,10.2,91.63Z" fill="#1d2554"/><circle cx="202.18" cy="26.26" r="24.93" fill="#231f20"/><path d="M183,42.54a0.18,0.18,0,0,0,0-.07c-0.22-.27-0.45-0.53-0.67-0.8s-0.44-.6-0.66-0.9-0.41-.59-0.61-0.9-0.43-.66-0.63-1a21.7,21.7,0,0,1-1.3-2.57q-0.38-.9-0.71-1.82c-0.18-.52-0.36-1-0.49-1.57-0.19-.74-0.36-1.48-0.5-2.23s-0.22-1.45-.3-2.18c-0.05-.46-0.06-0.92-0.08-1.38,0-.31,0-0.62,0-0.93a0.16,0.16,0,0,1,.13-0.19,19.18,19.18,0,0,1,5-1.17c0.43,0,.87-0.06,1.3-0.06s1.1,0,1.65,0,1.17,0.12,1.75.19a12.82,12.82,0,0,1,2.27.5c0.65,0.2,1.29.45,1.91,0.71s1,0.43,1.41.68a20,20,0,0,1,2.33,1.47,4.94,4.94,0,0,1,.9.75,1.39,1.39,0,0,1,.23,1.58,3.06,3.06,0,0,1-.67.89l-11.85,11.1-0.14.14Z" fill="#f15623"/><path d="M220,8.43l-0.15.13L208,19.68a2.39,2.39,0,0,1-1.25.68,1.32,1.32,0,0,1-1-.29,3.37,3.37,0,0,1-.83-1c-0.37-.63-0.75-1.27-1.08-1.92a15.83,15.83,0,0,1-.71-1.61c-0.22-.58-0.41-1.17-0.58-1.77a13.62,13.62,0,0,1-.46-2.51C202,10.61,202,10,202,9.37s0-1.15,0-1.72A17.62,17.62,0,0,1,202.38,5,15.63,15.63,0,0,1,203,2.86c0.21-.56.45-1.11,0.66-1.66a0.13,0.13,0,0,1,.16-0.1l1.64,0.17a19.39,19.39,0,0,1,2.67.49c0.72,0.18,1.43.4,2.14,0.62,0.54,0.17,1.08.37,1.61,0.59s1.18,0.53,1.76.81a21,21,0,0,1,2.49,1.45c0.46,0.31.91,0.64,1.35,1s0.69,0.53,1,.81c0.18,0.15.35,0.31,0.52,0.47l0.71,0.67h0.06Z" fill="#f15623"/><path d="M184.42,44l0.15-.13,11.89-11.13a2.35,2.35,0,0,1,1.25-.68,1.32,1.32,0,0,1,1,.29,3.43,3.43,0,0,1,.83,1c0.37,0.63.75,1.27,1.08,1.92a15.84,15.84,0,0,1,.71,1.61c0.22,0.58.41,1.17,0.58,1.77a13.63,13.63,0,0,1,.46,2.51c0.06,0.62.09,1.24,0.1,1.86a15,15,0,0,1,0,1.71c-0.07.77-.19,1.54-0.32,2.3a13.77,13.77,0,0,1-.71,2.56c-0.21.55-.44,1.09-0.66,1.63a0.14,0.14,0,0,1-.11.07c-0.48,0-1-.08-1.43-0.14s-1-.13-1.54-0.23c-0.7-.14-1.4-0.31-2.1-0.48a18.19,18.19,0,0,1-2.59-.86c-0.74-.3-1.46-0.63-2.18-1a19.86,19.86,0,0,1-2.49-1.45c-0.46-.31-0.91-0.64-1.35-1s-0.69-.53-1-0.81c-0.18-.15-0.35-0.31-0.52-0.47l-0.71-.67h-0.06Z" fill="#f15623"/><path d="M221.4,9.88a0.18,0.18,0,0,0,0,.07c0.15,0.18.31,0.35,0.45,0.53s0.43,0.55.63,0.84,0.44,0.6.65,0.91,0.45,0.71.67,1.07a21.59,21.59,0,0,1,1.47,2.85c0.25,0.6.49,1.21,0.71,1.82s0.36,1,.49,1.57c0.2,0.77.37,1.55,0.52,2.33s0.21,1.4.29,2.1c0.05,0.46.06,0.92,0.08,1.38,0,0.3,0,.61,0,0.91a0.16,0.16,0,0,1-.13.19c-0.49.16-1,.35-1.45,0.49a17.27,17.27,0,0,1-3.39.65c-0.52,0-1,.08-1.57.08s-1.12,0-1.67,0a19.29,19.29,0,0,1-2.56-.35,16.56,16.56,0,0,1-2.91-.89,15.19,15.19,0,0,1-1.51-.71q-0.91-.49-1.77-1a15.44,15.44,0,0,1-1.42-1,1.62,1.62,0,0,1-.69-1.25,1.41,1.41,0,0,1,.27-0.84,5.1,5.1,0,0,1,.63-0.75L221,9.75l0.14-.14Z" fill="#f15623"/><path d="M184.45,8.41l0.14,0.16,15.14,16.17a2.18,2.18,0,0,1,.65,1.41,1.32,1.32,0,0,1-.24.82A3,3,0,0,1,199,28a1.85,1.85,0,0,1-1.29.08,3.9,3.9,0,0,1-1.26-.69q-0.93-.65-1.88-1.26a17.24,17.24,0,0,0-2.41-1.28c-0.72-.31-1.45-0.58-2.19-0.83a15.89,15.89,0,0,0-1.75-.49c-0.64-.14-1.29-0.24-1.95-0.32s-1.24-.12-1.86-0.14a18.78,18.78,0,0,0-2.42.1,19,19,0,0,0-2.55.43c-0.72.18-1.43,0.41-2.15,0.62l-0.14,0c0-.26,0-0.52.07-0.77s0.09-.73.15-1.09,0.13-.85.23-1.26c0.14-.62.27-1.25,0.46-1.86,0.26-.85.56-1.68,0.87-2.52a18.86,18.86,0,0,1,1.4-2.92c0.43-.73.9-1.43,1.36-2.14,0.25-.38.53-0.74,0.8-1.09s0.41-.51.63-0.75l1-1.12a0.14,0.14,0,0,0,0-.06Z" fill="#f15623"/><path d="M218.57,45.38l-0.07,0c-0.18.15-.35,0.31-0.53,0.45l-0.8.6c-0.29.21-.57,0.42-0.86,0.61s-0.83.53-1.25,0.8a20,20,0,0,1-2.74,1.41c-0.6.25-1.21,0.49-1.82,0.71s-1,.35-1.57.49a23,23,0,0,1-3.27.67c-0.61.08-1.22,0.13-1.83,0.18-0.39,0-.79,0-1.19.06h-0.11c0.11-.27.21-0.54,0.31-0.8s0.29-.76.4-1.14c0.19-.66.38-1.32,0.53-2s0.23-1.22.3-1.84,0.12-1.2.14-1.8a18.78,18.78,0,0,0-.16-3,20.48,20.48,0,0,0-1.51-5.41,23.46,23.46,0,0,0-1.25-2.5c-0.27-.47-0.59-0.92-0.86-1.39a2.21,2.21,0,0,1-.25-2,1.7,1.7,0,0,1,.33-0.52,3.47,3.47,0,0,1,.85-0.7,1.48,1.48,0,0,1,1.34,0,2.73,2.73,0,0,1,.9.67L218.69,45l0.15,0.15Z" fill="#f15623"/><path d="M220,44l-0.14-.16L204.75,27.7a2.18,2.18,0,0,1-.65-1.41,1.31,1.31,0,0,1,.24-0.82,3,3,0,0,1,1.15-1,1.86,1.86,0,0,1,1.29-.08,3.9,3.9,0,0,1,1.26.69q0.93,0.65,1.88,1.26a17.25,17.25,0,0,0,2.41,1.28c0.72,0.31,1.45.58,2.19,0.83a15.89,15.89,0,0,0,1.75.49c0.64,0.14,1.29.24,1.95,0.32s1.25,0.12,1.87.14a18.27,18.27,0,0,0,2.8-.15,18.77,18.77,0,0,0,2.62-.51c0.56-.16,1.12-0.33,1.68-0.5l0.14,0c0,0.26,0,.51-0.07.75s-0.09.73-.15,1.09-0.13.84-.22,1.25c-0.14.64-.27,1.28-0.46,1.9-0.25.83-.55,1.64-0.85,2.45a19.13,19.13,0,0,1-1.43,3c-0.43.73-.9,1.43-1.36,2.14-0.25.38-.53,0.74-0.8,1.09s-0.43.51-.65,0.77l-0.74.84c-0.08.09-.17,0.16-0.25,0.24a0.41,0.41,0,0,0-.05.1Z" fill="#f15623"/><path d="M185.91,7L186,7c0.27-.22.53-0.45,0.8-0.67s0.6-.44.9-0.66,0.59-.41.9-0.61l1-.64a20,20,0,0,1,2.53-1.29c0.6-.25,1.21-0.49,1.82-0.71s1-.36,1.57-0.49c0.77-.2,1.55-0.37,2.33-0.52s1.4-.21,2.1-0.29c0.46-.05.92-0.06,1.38-0.08l0.58,0c-0.1.26-.2,0.5-0.29,0.75-0.15.4-.31,0.8-0.43,1.21-0.19.66-.38,1.32-0.53,2s-0.23,1.22-.3,1.84a16.72,16.72,0,0,0-.14,1.87c0,0.76,0,1.51.09,2.27a15.35,15.35,0,0,0,.4,2.49,16.09,16.09,0,0,0,.74,2.45c0.28,0.7.57,1.39,0.88,2.07a20.36,20.36,0,0,0,1.34,2.42,7.08,7.08,0,0,1,.5.87,2,2,0,0,1,.06,1.7,1.85,1.85,0,0,1-.34.53,3.37,3.37,0,0,1-.83.68,1.48,1.48,0,0,1-1.34,0,2.73,2.73,0,0,1-.9-0.67L185.78,7.45l-0.15-.15Z" fill="#f15623"/><text transform="translate(15.17 48.36)" font-size="55" fill="#4167b1" stroke="#4167b1" stroke-miterlimit="10" font-family="Graduate" letter-spacing="-1">SPORT</text><text transform="translate(54.23 92.49)" font-size="56.31" fill="#cc2036" font-family="Graduate" letter-spacing="-1">S<tspan x="32.66" y="0">P</tspan><tspan x="66.55" y="0">ORT</tspan></text><path d="M45.1,54.22c1.21,0,7-.65,8.1.33s0.31,6,.25,7.43A47.43,47.43,0,0,1,49,81.25c-5.79,11.54-17.82,15.83-30.1,16.09-1.22,0-6.58.52-7.64-.43-1.36-1.23-1-6.13-1-7.84a40.45,40.45,0,0,1,3.66-17.44c6-12.21,18.45-16.37,31.18-17.41C46.59,54.22,44.4,54.28,45.1,54.22Z" fill="#cc2036"/><path d="M53.71,57c-0.28-3.26-.9-2.79-3.94-3.09,3.6,0,3.94-.57,3.94,3.09C53.65,56.28,53.71,55.92,53.71,57Z" fill="#1d2554"/><text transform="translate(228.9 41.76)" font-size="12" fill="#1d2554" font-family="Open Sans">While injuries can range <tspan x="0" y="14.4">from scrapes and bruis</tspan><tspan x="129.32" y="14.4">-</tspan><tspan x="0" y="28.8">es to brain and spinal </tspan><tspan x="0" y="43.2">cord injuries, most fall </tspan><tspan x="0" y="57.6">somewhere in between</tspan></text><text transform="translate(26.71 91.63) rotate(-42.45)" font-size="24.94" fill="#fff" font-family="Graduate">by</text></svg>