<svg id="Layer_1" data-name="Layer 1" xmlns="http://www.w3.org/2000/svg" viewBox="0 0 404.61 119.44"><title>30-million-01</title><rect x="107.48" width="297.12" height="119.44" rx="12" ry="12" fill="#fff"/><path d="M191.15,19.71H186.5V53.36h4.65v5.48h-15V53.36h5.1V22.07L171.9,39H169l-9.31-16.89V53.36h5.1v5.48h-15V53.36h4.65V19.71h-4.65V14.23h11.28l9.62,17.66,9.62-17.66h10.83v5.48Z" fill="#fff" stroke="#2cbcee" stroke-miterlimit="10" stroke-width="2"/><path d="M213,19.71h-4.65V53.36H213v5.48H198.16V53.36h4.65V19.71h-4.65V14.23H213v5.48Z" fill="#fff" stroke="#2cbcee" stroke-miterlimit="10" stroke-width="2"/><path d="M235.06,19.71h-4.84V53.36h16.19V46.29h4.72V58.84H220V53.36h4.65V19.71H220V14.23h15v5.48Z" fill="#fff" stroke="#2cbcee" stroke-miterlimit="10" stroke-width="2"/><path d="M270.37,19.71h-4.84V53.36h16.19V46.29h4.72V58.84h-31.1V53.36H260V19.71h-4.65V14.23h15v5.48Z" fill="#fff" stroke="#2cbcee" stroke-miterlimit="10" stroke-width="2"/><path d="M306.77,19.71h-4.65V53.36h4.65v5.48H291.92V53.36h4.65V19.71h-4.65V14.23h14.85v5.48Z" fill="#fff" stroke="#2cbcee" stroke-miterlimit="10" stroke-width="2"/><path d="M342.9,51.64l-7.2,7.2H321l-7.2-7.2V21.11l6.88-6.88H336l6.88,6.88V51.64Zm-20-31.93-3.63,3.63V49.47l3.89,3.89h10.39l3.89-3.89V23.34l-3.63-3.63h-10.9Z" fill="#fff" stroke="#2cbcee" stroke-miterlimit="10" stroke-width="2"/><path d="M386.95,19.77h-4.72V58.84h-5.42l-18.67-36.9V53.36h4v5.48H348.64V53.36h4.65V19.77h-4.65V14.23h11.92l16.83,34V19.77h-4V14.23h13.57v5.55Z" fill="#fff" stroke="#2cbcee" stroke-miterlimit="10" stroke-width="2"/><path d="M62.34,23.12V45.71l-8.87,8.87L63,64.14V92L48.62,106.41H15.91L1.5,92V74.68H13.42V87l7.48,7.48H43.63L51,87V67.61L44,60.68H19.38V50.15H43.63l6.93-6.93V28.39l-6.93-7.07H20.9L14,28.39v8.18H2.05V23.12L15.77,9.41h33Z" fill="#fff" stroke="#cc2036" stroke-miterlimit="10" stroke-width="3"/><path d="M138.83,90.75l-15.66,15.66h-32L75.5,90.75V24.37l15-15h33.4l15,15V90.75ZM95.32,21.32l-7.9,7.9V86l8.45,8.45h22.59L126.91,86V29.22l-7.9-7.9H95.32Z" fill="#fff" stroke="#cc2036" stroke-miterlimit="10" stroke-width="3"/><text transform="translate(152.18 82.05)" font-size="12" fill="#1d2554" font-family="Open Sans">Children and Adolescents in the United <tspan x="0" y="14.4">States Participate in Youth Sports Activities.</tspan></text></svg>